<?xml version="1.0" encoding="UTF-8" standalone="no"?>
<svg
   xmlns:dc="http://purl.org/dc/elements/1.1/"
   xmlns:cc="http://creativecommons.org/ns#"
   xmlns:rdf="http://www.w3.org/1999/02/22-rdf-syntax-ns#"
   xmlns:svg="http://www.w3.org/2000/svg"
   xmlns="http://www.w3.org/2000/svg"
   id="svg4"
   xml:space="preserve"
   enable-background="new 0 0 200 200"
   viewBox="0 0 200 200"
   y="0px"
   x="0px"
   version="1.1"><metadata
     id="metadata10"><rdf:RDF><cc:Work
         rdf:about=""><dc:format>image/svg+xml</dc:format><dc:type
           rdf:resource="http://purl.org/dc/dcmitype/StillImage" /></cc:Work></rdf:RDF></metadata><defs
     id="defs8" /><path
     id="path2"
     d="m123.97 40c-0.26834 0.002-0.65769 0.03018-0.86523 0.06056-0.20794 0.03048-0.53516 0.09533-0.72852 0.14453-0.19334 0.04916-0.53836 0.16236-0.76758 0.25196-0.22918 0.08964-0.58308 0.25579-0.78515 0.36914-0.2021 0.11376-0.51658 0.31476-0.70118 0.44727-0.18417 0.13292-0.48937 0.38623-0.67773 0.5625-0.18835 0.17626-0.44714 0.44922-0.57421 0.60547-0.12668 0.15627-0.32809 0.43103-0.44727 0.60937-0.11959 0.17876-0.31849 0.53434-0.44141 0.79102-0.12294 0.2571-0.27063 0.60722-0.32813 0.7793-0.0571 0.17211-0.14166 0.48164-0.18749 0.68749-0.0454 0.20584-0.10238 0.5568-0.12696 0.7793-0.0246 0.22252-0.043 0.54694-0.043 0.7207s0.0188 0.49818 0.043 0.7207c0.0241 0.22252 0.0833 0.57301 0.13086 0.7793 0.0476 0.20626 0.15087 0.56378 0.23047 0.79297 0.0791 0.22918 0.23515 0.59529 0.34766 0.81445 0.1121 0.21919 0.3034 0.54024 0.42382 0.71485 0.12085 0.17459 0.35887 0.48134 0.5293 0.67969 0.17044 0.19793 0.47998 0.50119 0.6875 0.67578 0.20792 0.17418 0.52759 0.41443 0.71093 0.5332 0.18335 0.11918 0.48491 0.2938 0.66993 0.38672 0.18544 0.09253 0.52427 0.23248 0.75391 0.3125 0.22918 0.08004 0.59612 0.18535 0.81445 0.23242 0.21795 0.04747 0.61768 0.10544 0.89062 0.13087 0.27251 0.02578 0.67504 0.03607 0.89258 0.02148 0.21793-0.01499 0.60689-0.06435 0.86523-0.10938 0.25836-0.04457 0.66835-0.14921 0.91212-0.23046 0.24418-0.08164 0.63396-0.24311 0.86522-0.35937 0.23128-0.11585 0.57056-0.30914 0.75391-0.43165 0.18335-0.12209 0.49095-0.35983 0.68555-0.52734 0.19417-0.16751 0.49068-0.46402 0.6582-0.65821 0.16751-0.19459 0.40526-0.50221 0.52735-0.68555 0.12252-0.18336 0.31581-0.52263 0.43164-0.75391 0.11627-0.23126 0.27742-0.61669 0.35743-0.85546 0.0796-0.23835 0.17356-0.57441 0.20898-0.74609 0.0355-0.1721 0.0861-0.48952 0.11327-0.70703 0.0296-0.2417 0.0386-0.63978 0.0235-1.0215-0.015-0.38086-0.0584-0.7892-0.11133-1.043-0.0479-0.22918-0.15171-0.61053-0.23047-0.84766-0.0791-0.23752-0.22756-0.60545-0.33008-0.81836-0.10209-0.21336-0.32244-0.5911-0.48828-0.83984-0.20961-0.31419-0.46084-0.61237-0.82422-0.97656-0.3717-0.37212-0.65401-0.61007-0.97656-0.82423-0.24961-0.16542-0.58161-0.36656-0.73828-0.44531-0.15669-0.07874-0.42891-0.20036-0.60351-0.26953-0.1746-0.06955-0.49497-0.17185-0.7129-0.22852-0.21793-0.05666-0.61095-0.13186-0.87304-0.16602-0.2621-0.03458-0.69689-0.06106-0.96485-0.05856zm0.0606 3.002c0.18586-0.003 0.50074 0.02208 0.70116 0.05666 0.20044 0.03497 0.50382 0.11971 0.67384 0.18555 0.17002 0.06625 0.44632 0.19784 0.61133 0.29493 0.19377 0.11377 0.44844 0.32638 0.71679 0.59765 0.28918 0.29211 0.47251 0.5222 0.59961 0.74805 0.10084 0.17918 0.23396 0.4785 0.29688 0.66601 0.063 0.18794 0.13922 0.48726 0.16797 0.66602 0.0326 0.20376 0.0428 0.50128 0.0274 0.79297-0.0163 0.32169-0.0579 0.58119-0.13282 0.83789-0.06 0.2046-0.19352 0.53631-0.29686 0.73633s-0.29493 0.49218-0.42579 0.64844c-0.13125 0.15585-0.36927 0.39275-0.5293 0.52734-0.165 0.13876-0.46993 0.33213-0.70703 0.44922-0.22918 0.11293-0.56665 0.24463-0.75 0.29297-0.25253 0.06625-0.46455 0.08814-0.875 0.08984-0.42044 0.002-0.62358-0.01829-0.9082-0.08794-0.20168-0.04956-0.50437-0.15296-0.67188-0.23047-0.16793-0.07754-0.42405-0.22155-0.57031-0.32031-0.14626-0.09873-0.39059-0.3027-0.54102-0.45312-0.15043-0.15044-0.35437-0.3928-0.45312-0.53906-0.0987-0.14626-0.24015-0.40181-0.3164-0.56641-0.0762-0.16501-0.1823-0.45704-0.23439-0.65039-0.0783-0.29169-0.0938-0.45337-0.0918-0.95507 0.002-0.48463 0.0193-0.67194 0.0918-0.93945 0.0497-0.18335 0.16726-0.49025 0.25978-0.6836 0.0925-0.19294 0.2496-0.46434 0.34961-0.60352 0.0996-0.13917 0.30059-0.36892 0.44726-0.50976 0.1471-0.14085 0.39747-0.34044 0.55664-0.44336 0.15918-0.10292 0.42455-0.24332 0.58789-0.3125 0.16335-0.06955 0.42452-0.15514 0.58203-0.1914 0.15752-0.03627 0.33354-0.07335 0.39063-0.08204 0.0575-0.009 0.25709-0.01859 0.44336-0.02148zm-77.098 1.0117c-0.6813-0.01339-0.90952-0.002-1.25 0.06056-0.22918 0.04207-0.55642 0.11656-0.72852 0.16406-0.17168 0.04747-0.49582 0.1607-0.71875 0.25195-0.22252 0.09083-0.60066 0.28133-0.83984 0.42384-0.23918 0.14252-0.59236 0.38488-0.78321 0.53906-0.19126 0.15418-0.51444 0.45755-0.7207 0.67382-0.20627 0.21625-0.49085 0.56216-0.63086 0.76758-0.14002 0.20584-0.32937 0.51345-0.42188 0.68555-0.09253 0.17168-0.23514 0.48124-0.3164 0.6875-0.08124 0.20627-0.19711 0.56041-0.25587 0.7871-0.05876 0.22668-0.13521 0.64044-0.17188 0.91797-0.04747 0.35669-0.06116 0.66913-0.04487 1.0684 0.01459 0.3542 0.06265 0.76038 0.12891 1.0879 0.05836 0.2871 0.16507 0.68881 0.23633 0.89258 0.07165 0.20418 0.21207 0.54429 0.3125 0.75391 0.10001 0.20961 0.31699 0.58327 0.48242 0.83203 0.21418 0.32128 0.45898 0.60939 0.8457 0.99609 0.37628 0.37586 0.67302 0.63029 0.96094 0.82031 0.22918 0.15167 0.58476 0.35997 0.79102 0.4629 0.20627 0.10291 0.56954 0.25342 0.80664 0.33593 0.2371 0.08254 0.61076 0.18924 0.83203 0.23633 0.26794 0.05746 0.63598 0.09353 1.0977 0.10938 0.44503 0.01539 0.84098 0.005 1.1035-0.02738 0.22585-0.02838 0.61915-0.10338 0.875-0.16797 0.25628-0.06455 0.66234-0.20106 0.90234-0.30273 0.24002-0.10167 0.60175-0.28456 0.80469-0.40625 0.20335-0.12209 0.5119-0.32855 0.68359-0.45899 0.1721-0.13043 0.47718-0.40365 0.67969-0.60742 0.20292-0.20376 0.46704-0.50168 0.58789-0.6621 0.12042-0.16085 0.30163-0.42356 0.40039-0.58399 0.09833-0.16043 0.25725-0.45975 0.35352-0.66601 0.09583-0.20627 0.2319-0.55397 0.30274-0.77148 0.07125-0.21794 0.17141-0.59356 0.22265-0.83399 0.07754-0.36628 0.09403-0.57156 0.09573-1.2695 0.002-0.70756-0.01289-0.90583-0.09373-1.3066-0.05206-0.2596-0.15112-0.64308-0.2207-0.85352-0.06955-0.21001-0.22022-0.57832-0.33399-0.81836-0.11376-0.24002-0.32599-0.61564-0.47266-0.83399-0.14626-0.21834-0.39746-0.5446-0.55664-0.72461-0.1596-0.18001-0.43718-0.45688-0.61719-0.61524-0.18062-0.15964-0.48753-0.39692-0.68164-0.52734-0.1946-0.13043-0.55211-0.33395-0.79297-0.45312-0.24044-0.11876-0.61062-0.27332-0.82227-0.34375-0.21168-0.07005-0.56725-0.16804-0.79101-0.21679-0.31461-0.06795-0.59599-0.09053-1.2402-0.10352zm-0.66602 3c0.02288-0.009 0.31242-0.009 0.64454 0 0.45754 0.01169 0.67933 0.03637 0.91015 0.10352 0.16751 0.04876 0.46978 0.17176 0.67188 0.27343 0.20168 0.10126 0.51012 0.30056 0.68555 0.44141 0.17543 0.14126 0.43196 0.40073 0.57031 0.57616 0.13793 0.17501 0.3343 0.4871 0.43555 0.69336 0.10126 0.20627 0.22315 0.52368 0.27148 0.70703 0.05546 0.2096 0.09643 0.5198 0.10938 0.83399 0.01669 0.39753 0.004 0.58143-0.06056 0.89648-0.04547 0.21793-0.14263 0.54236-0.2168 0.7207-0.07415 0.17835-0.22734 0.46505-0.33984 0.63672-0.11209 0.1721-0.32978 0.43956-0.48437 0.59374-0.15461 0.15461-0.43035 0.37804-0.61328 0.49805-0.18251 0.11959-0.4786 0.27457-0.65821 0.34375-0.1796 0.06915-0.47064 0.15711-0.64648 0.19336-0.24002 0.04996-0.4603 0.05926-0.88281 0.04297-0.3967-0.01499-0.65457-0.04737-0.86914-0.10938-0.16751-0.04877-0.46795-0.17106-0.66797-0.27148-0.20002-0.10084-0.46638-0.26298-0.5918-0.36133-0.12501-0.09833-0.326-0.2804-0.44726-0.40625-0.12126-0.12543-0.3071-0.35769-0.41211-0.51562-0.105-0.15793-0.25005-0.43116-0.32422-0.60742-0.07375-0.17584-0.16914-0.46113-0.2129-0.63282-0.05876-0.23293-0.07944-0.45579-0.07814-0.875 0.000999-0.3817 0.02478-0.65294 0.07225-0.84375 0.03837-0.15418 0.12655-0.42713 0.19531-0.60547 0.06875-0.17834 0.21715-0.4635 0.33008-0.63476 0.11293-0.17168 0.32374-0.43228 0.46875-0.57812 0.145-0.14626 0.38022-0.3488 0.52148-0.44922 0.14125-0.10084 0.41224-0.255 0.60352-0.34375 0.19126-0.08874 0.48848-0.19367 0.66015-0.23242 0.1721-0.03917 0.33254-0.07924 0.35546-0.08794zm26.75 2.3555 0.002 0.01559c-0.30794-0.01-0.46712 0.005-0.60546 0.05466-0.10334 0.03747-0.26662 0.12278-0.36329 0.18945-0.09713 0.06665-0.2222 0.18126-0.27929 0.25586-0.05666 0.07505-0.57453 0.99733-1.1504 2.0508-0.57588 1.0534-1.1415 2.0745-1.2578 2.2695-0.11585 0.1946-0.36158 0.58045-0.54493 0.85547-0.18334 0.27502-0.47874 0.69186-0.65625 0.92773-0.17752 0.23627-0.5237 0.66448-0.76953 0.95118-0.24543 0.2871-0.69467 0.77082-0.99805 1.0742-0.30377 0.30377-0.76608 0.73633-1.0273 0.96094-0.26085 0.22502-0.71767 0.59073-1.0156 0.81445-0.29794 0.22336-0.78607 0.56712-1.084 0.76172-0.29794 0.1946-0.84228 0.52112-1.209 0.72656-0.3667 0.20544-1.3508 0.74499-2.1875 1.1992-1.3101 0.71131-1.5527 0.85918-1.7539 1.0625-0.16251 0.16376-0.26018 0.30918-0.32227 0.47461-0.06166 0.16459-0.08984 0.3327-0.08984 0.54688 0 0.21502 0.02728 0.38326 0.08984 0.55078 0.06665 0.17793 0.15736 0.30606 0.3457 0.49023 0.22544 0.22127 0.48289 0.37475 2.2481 1.334 1.0963 0.59588 2.2718 1.2646 2.6113 1.4863 0.33962 0.22168 0.81058 0.54904 1.0469 0.72656 0.23627 0.17751 0.58579 0.45255 0.77539 0.61133l0.34375 0.28711-0.12695 0.15234c-0.07005 0.08414-0.42278 0.51965-0.78321 0.9668-0.36087 0.44669-0.88631 1.1255-1.168 1.5098-0.28127 0.3842-0.74244 1.041-1.0254 1.459-0.28253 0.41795-0.68812 1.041-0.90234 1.3848-0.21378 0.34377-0.62027 1.0278-0.90235 1.5195-0.2817 0.49171-0.7628 1.3916-1.0703 2-0.30711 0.60838-0.71749 1.463-0.91211 1.8984-0.19418 0.43545-0.45983 1.0527-0.58984 1.3711-0.13043 0.31794-0.36565 0.91661-0.52148 1.332-0.15585 0.41504-0.43188 1.2141-0.61523 1.7754-0.18335 0.56172-0.40398 1.2744-0.49024 1.584-0.08624 0.30961-0.17771 0.58466-0.20312 0.61133-0.02498 0.02708-0.27185 0.10829-0.54688 0.18164-0.27502 0.07295-0.87561 0.24419-1.334 0.38086-0.45837 0.13668-1.105 0.33487-1.4375 0.43945-0.3321 0.1046-1.0535 0.34796-1.6035 0.54297-0.55004 0.1946-1.3835 0.51003-1.8535 0.69922-0.46962 0.18959-1.193 0.49648-1.6055 0.68359-0.41252 0.1871-1.021 0.48445-1.3535 0.65821-0.3321 0.17418-0.90447 0.49371-1.2695 0.7129-0.36545 0.21875-0.87168 0.54768-1.125 0.72852-0.25377 0.18085-0.63834 0.47105-0.85547 0.64648-0.2171 0.17543-0.58362 0.50714-0.81445 0.73632-0.23043 0.22918-0.52246 0.54856-0.65039 0.70899-0.12835 0.16044-0.32682 0.43142-0.4414 0.60352-0.1146 0.17169-0.28486 0.46313-0.37696 0.64648-0.09163 0.18334-0.22268 0.49248-0.29101 0.6875-0.06875 0.19459-0.15586 0.50304-0.19336 0.68555-0.03797 0.18252-0.08004 0.52-0.09373 0.75-0.01379 0.23002-0.004 0.58782 0.02148 0.79493 0.02578 0.20752 0.08534 0.52688 0.13282 0.70898 0.04796 0.1821 0.15396 0.49094 0.23438 0.68554 0.08084 0.19502 0.24551 0.5238 0.36718 0.73048 0.12126 0.20626 0.35647 0.54985 0.52148 0.76367 0.16502 0.21334 0.47303 0.56137 0.68555 0.77344 0.2121 0.21251 0.57944 0.54705 0.81445 0.74414 0.23501 0.19668 0.64321 0.5124 0.9082 0.70117 0.26503 0.18918 0.78903 0.52919 1.1641 0.75586 0.37545 0.22626 1.042 0.596 1.4824 0.82226 0.44045 0.22627 1.1465 0.56598 1.5703 0.75391 0.42378 0.18795 1.1191 0.47786 1.543 0.64454 0.42378 0.16668 1.1916 0.45378 1.707 0.63671 0.51588 0.18335 1.3033 0.44676 1.75 0.58594 0.44712 0.13959 1.1305 0.34522 1.5176 0.45899 0.38669 0.11333 0.71575 0.22148 0.73242 0.24022 0.01629 0.0188 0.08044 0.27823 0.14258 0.57618 0.06206 0.29793 0.20809 0.91663 0.32227 1.375 0.11459 0.45837 0.28825 1.125 0.38867 1.4805 0.10043 0.35503 0.28991 0.98202 0.41992 1.3945 0.1296 0.41253 0.36804 1.1173 0.5293 1.5644 0.16085 0.4467 0.446 1.196 0.63476 1.666 0.18876 0.46962 0.47336 1.1445 0.63087 1.5 0.15794 0.35502 0.51348 1.1043 0.79101 1.666 0.27752 0.5613 0.65704 1.299 0.84375 1.6387 0.18669 0.33961 0.33985 0.62673 0.33985 0.63672 0 0.0101-0.15204 0.28464-0.33789 0.61133-0.18627 0.3267-0.54832 0.98699-0.80665 1.4688-0.25793 0.48129-0.62917 1.1943-0.82422 1.584-0.19501 0.38919-0.51579 1.0595-0.71289 1.4883-0.19711 0.42878-0.48225 1.0754-0.63476 1.4375-0.15252 0.36169-0.41536 1.024-0.58203 1.4707-0.1671 0.44671-0.39742 1.1245-0.51368 1.5078-0.11626 0.38338-0.26803 0.91988-0.33594 1.1894-0.06795 0.26961-0.16989 0.72309-0.22656 1.0098-0.05666 0.28626-0.13578 0.76459-0.17578 1.0625-0.05166 0.38294-0.07265 0.81795-0.07225 1.4805 0.00042 0.77545 0.01509 1.0219 0.08794 1.4219 0.04876 0.26627 0.14861 0.66785 0.2207 0.89454 0.07205 0.22668 0.21179 0.58083 0.31055 0.78711 0.09833 0.20626 0.29569 0.5405 0.43945 0.74219 0.14376 0.20167 0.42428 0.52134 0.62304 0.71093 0.19919 0.1892 0.49163 0.43098 0.65039 0.53516 0.15877 0.10459 0.42624 0.25917 0.59375 0.34375 0.16752 0.0841 0.49558 0.21699 0.72852 0.29492 0.23293 0.0775 0.63899 0.17976 0.90234 0.22851 0.30252 0.0559 0.74135 0.0983 1.1914 0.11328 0.4217 0.0142 0.93208 0.004 1.25-0.0254 0.29586-0.0271 0.77237-0.0869 1.0586-0.1328 0.28668-0.0459 0.73664-0.13112 1-0.18946 0.26377-0.0588 0.74443-0.17841 1.0703-0.26757 0.32544-0.0887 0.85998-0.25033 1.1875-0.35743 0.32753-0.10709 0.90916-0.31356 1.293-0.45899 0.38378-0.14584 0.9482-0.36858 1.252-0.49609 0.30377-0.12793 0.87012-0.37619 1.2598-0.55078 0.38962-0.1746 1.2152-0.57379 1.834-0.88671 0.6188-0.31253 1.4918-0.76718 1.9414-1.0117 0.4492-0.24461 0.82989-0.44531 0.8457-0.44531 0.01539 0 0.19356 0.11179 0.39648 0.24804 0.20293 0.13668 0.78823 0.49909 1.3008 0.80664 0.51254 0.30752 1.2612 0.73715 1.6621 0.95508 0.40128 0.21793 1.0174 0.54053 1.3691 0.71679 0.35212 0.17586 0.90431 0.44332 1.2285 0.59375 0.3242 0.15085 0.805 0.3667 1.0684 0.48047 0.26377 0.11376 0.80268 0.3358 1.1973 0.49414 0.39462 0.15835 0.99523 0.39032 1.334 0.51367 0.33878 0.12376 0.99085 0.3465 1.4492 0.4961 0.45837 0.14959 1.1619 0.36657 1.5645 0.48242 0.40212 0.11543 1.1435 0.31094 1.6465 0.43554 0.50296 0.12459 1.2389 0.29446 1.6348 0.37696 0.39628 0.0825 1.0331 0.20635 1.416 0.27344 0.38336 0.0675 1.025 0.16864 1.4258 0.22656 0.40128 0.0575 1.066 0.14278 1.4785 0.18946 0.41251 0.0467 1.1126 0.11384 1.5547 0.14843 0.44171 0.0342 1.3318 0.0831 1.9785 0.10938 0.69006 0.028 1.6825 0.0374 2.4004 0.0215 0.67297-0.015 1.6411-0.0561 2.1524-0.0898 0.51129-0.0337 1.3012-0.0998 1.7558-0.14648 0.45421-0.0471 1.1637-0.13238 1.5762-0.18946 0.41253-0.0575 1.0726-0.15865 1.4668-0.22656 0.39462-0.0684 1.0896-0.20046 1.543-0.29297 0.45379-0.0929 1.2086-0.26195 1.6777-0.37695 0.4688-0.11501 1.2671-0.32877 1.7734-0.47461 0.50628-0.14585 1.285-0.38723 1.7305-0.53517 0.44587-0.14792 1.192-0.41203 1.6582-0.58788 0.46629-0.17585 1.131-0.43897 1.4785-0.58398 0.34752-0.1446 0.93301-0.3986 1.2988-0.56445 0.36585-0.16543 1.073-0.50583 1.5723-0.75587 0.4992-0.24961 1.2021-0.61499 1.5625-0.8125 0.36087-0.19792 1.05-0.5964 1.5312-0.88477 0.48129-0.28794 1.297-0.80579 1.8125-1.1504 0.51588-0.34502 1.2573-0.86058 1.6465-1.1465 0.38962-0.28587 1.0744-0.81394 1.5215-1.1719 0.44712-0.35794 1.0281-0.8358 1.291-1.0625 0.26294-0.22669 0.81556-0.72415 1.2285-1.1055 0.41337-0.38127 1.0803-1.0279 1.4824-1.4375 0.40212-0.40921 0.94645-0.98009 1.209-1.2676 0.26252-0.2871 0.69398-0.77325 0.95898-1.082 0.26502-0.30836 0.68454-0.81202 0.93163-1.1192 0.24752-0.30669 0.71667-0.9171 1.043-1.3555 0.32627-0.43795 0.8016-1.1006 1.0566-1.4727 0.25544-0.37169 0.62516-0.93093 0.82227-1.2422 0.19668-0.31169 0.49025-0.7848 0.65234-1.0527 0.16167-0.26751 0.46367-0.78758 0.66993-1.1543 0.20627-0.3667 0.61191-1.1341 0.90234-1.707 0.29002-0.57295 0.68415-1.3888 0.875-1.8125 0.19084-0.42419 0.48566-1.1085 0.65235-1.5215 0.16709-0.41296 0.4145-1.0517 0.55077-1.418 0.13667-0.36629 0.39786-1.1269 0.58203-1.6895 0.18418-0.56296 0.44731-1.4247 0.58399-1.916 0.13709-0.4917 0.34313-1.2965 0.45898-1.7891 0.11585-0.49295 0.23338-1.0224 0.26172-1.1758l0.0508-0.2793 0.27539-0.082c0.15125-0.0446 0.60303-0.17699 1.0039-0.29492 0.40128-0.11834 1.2548-0.39129 1.8965-0.60547 0.64173-0.2146 1.5318-0.5292 1.9785-0.69922 0.44712-0.17043 1.1591-0.45754 1.582-0.63672 0.42252-0.17918 1.1899-0.53472 1.707-0.79101 0.5167-0.25628 1.2207-0.63076 1.5644-0.83203 0.34378-0.20128 0.87186-0.53256 1.1719-0.73633 0.30001-0.20335 0.74997-0.53324 0.99999-0.73242 0.25003-0.19918 0.68002-0.58742 0.95508-0.86329 0.27543-0.27585 0.62269-0.66449 0.77148-0.86328 0.14876-0.19877 0.35875-0.51013 0.46875-0.6914 0.1096-0.18168 0.26388-0.4789 0.3418-0.66016 0.0779-0.18127 0.18943-0.4904 0.2461-0.6875 0.0571-0.19752 0.12385-0.50301 0.14843-0.67969 0.0246-0.17709 0.0434-0.48482 0.043-0.68359-0.00043-0.19918-0.0205-0.49388-0.043-0.6543-0.023-0.16044-0.0794-0.44165-0.12694-0.625-0.0471-0.18335-0.15735-0.50664-0.24611-0.71875-0.0887-0.21252-0.25019-0.5354-0.35937-0.71875-0.10918-0.18377-0.32153-0.49724-0.4707-0.69726-0.1496-0.20002-0.51727-0.60831-0.81641-0.90626-0.29961-0.29794-0.74046-0.69462-0.98047-0.88086-0.23959-0.18586-0.67031-0.49722-0.95703-0.6914-0.28626-0.19419-0.73623-0.482-1-0.63868-0.26336-0.15627-0.9104-0.50088-1.4375-0.76758-0.52712-0.26669-1.2965-0.62968-1.709-0.80468-0.41252-0.17501-1.0592-0.43842-1.4375-0.58594-0.37794-0.1475-1.0646-0.40041-1.5254-0.5625-0.46046-0.16168-1.2561-0.42551-1.7695-0.58594-0.51295-0.16044-1.3652-0.41444-1.8906-0.56445-0.52587-0.15001-0.97912-0.27343-1.0078-0.27343-0.0283 0-0.0614-0.01669-0.0743-0.03707-0.0129-0.02079-0.12722-0.39056-0.25391-0.82227-0.12667-0.43212-0.32585-1.0765-0.44336-1.4316-0.11709-0.35545-0.33995-0.99182-0.49413-1.416-0.15418-0.4242-0.39768-1.063-0.54102-1.418-0.14335-0.35545-0.40142-0.96388-0.57227-1.3535s-0.54167-1.177-0.82422-1.75c-0.28251-0.57297-0.6573-1.3042-0.83398-1.625-0.17627-0.32086-0.49171-0.87546-0.69922-1.2305-0.20793-0.35545-0.58931-0.97654-0.84765-1.3828l-0.46876-0.74023 0.26173-0.46875c0.14459-0.25835 0.47672-0.87464 0.73633-1.3672 0.2596-0.49254 0.61086-1.186 0.78124-1.541 0.17044-0.35545 0.45853-0.97299 0.64063-1.3731 0.18251-0.40044 0.50034-1.1517 0.70703-1.668 0.20709-0.5167 0.51454-1.3513 0.68164-1.8555 0.16751-0.50421 0.38843-1.2535 0.49219-1.666 0.10376-0.41253 0.22717-0.94707 0.27343-1.1875 0.0459-0.24086 0.10322-0.57005 0.12696-0.73047 0.0242-0.16044 0.0625-0.47279 0.0859-0.69531 0.0233-0.22252 0.0414-0.72872 0.041-1.125-0.00042-0.39628-0.0265-0.91891-0.0586-1.1602-0.0321-0.24127-0.0985-0.5929-0.14649-0.78125-0.0484-0.18834-0.13531-0.47827-0.19531-0.64454-0.0596-0.16626-0.16409-0.41522-0.23243-0.55273-0.0687-0.13751-0.22767-0.40415-0.35351-0.59375-0.12543-0.19001-0.38084-0.50028-0.56835-0.68945-0.18752-0.18918-0.5286-0.47053-0.75782-0.62304-0.2296-0.15292-0.56019-0.34076-0.73438-0.41993-0.17375-0.07914-0.46843-0.1932-0.65429-0.25195-0.18542-0.05876-0.52583-0.14433-0.75586-0.19141-0.23003-0.04667-0.65709-0.10038-0.94922-0.11913-0.29169-0.01919-0.83055-0.02128-1.1973-0.004-0.36669 0.01709-0.88267 0.06276-1.1465 0.10156-0.26335 0.03877-0.7035 0.11604-0.97852 0.17188-0.27502 0.05546-0.75288 0.16722-1.0625 0.24805-0.30961 0.08084-0.83138 0.23218-1.1602 0.33594-0.32878 0.10376-0.84483 0.27825-1.1465 0.38867-0.30169 0.11043-0.83366 0.31353-1.1816 0.45312-0.34794 0.1396-0.98469 0.41211-1.416 0.60546-0.43128 0.19335-1.0743 0.4921-1.4297 0.66211-0.35502 0.17043-1.0299 0.51223-1.5 0.75976-0.46962 0.2471-1.2085 0.64517-1.6406 0.88477-0.43212 0.23961-0.84391 0.47186-0.91601 0.51562-0.0721 0.04417-0.15091 0.07964-0.17383 0.08004-0.0233 0-0.36908-0.17926-0.76953-0.39844-0.40086-0.21918-1.1604-0.6111-1.6875-0.87109-0.52712-0.2596-1.2862-0.61786-1.6875-0.79492-0.40086-0.1771-1.068-0.45873-1.4805-0.625-0.41254-0.16626-1.1154-0.43291-1.5625-0.59375-0.4467-0.16125-1.1398-0.39634-1.541-0.52343-0.40086-0.12752-1.0577-0.32528-1.459-0.43945-0.40086-0.11459-1.0735-0.29385-1.4961-0.39844-0.42213-0.10418-1.1171-0.26505-1.543-0.35546-0.42544-0.09043-1.1569-0.23012-1.627-0.31055-0.46961-0.08044-1.193-0.19333-1.6055-0.25-0.41253-0.05706-1.1334-0.14043-1.6035-0.1875-0.46962-0.04707-1.1239-0.10598-1.4531-0.12891-0.32919-0.02288-1.1689-0.05946-1.8652-0.08204-0.8217-0.02628-1.7133-0.02618-2.543 0-0.70256 0.02248-1.5345 0.06106-1.8457 0.08404-0.31127 0.02248-0.78118 0.05976-1.0449 0.08394-0.26335 0.02418-0.79786 0.08154-1.1875 0.12696-0.38961 0.04537-1.0162 0.12888-1.3945 0.18555-0.37795 0.05706-1.0068 0.16088-1.3965 0.23046-0.38961 0.07005-1.0924 0.21153-1.5625 0.31445-0.46962 0.10293-1.0423 0.23546-1.2715 0.29297-0.22918 0.05756-0.72515 0.1892-1.1035 0.29297-0.37795 0.10376-1.0476 0.29817-1.4863 0.4336-0.4392 0.13542-1.1678 0.37905-1.6191 0.53906-0.45128 0.16-1.2166 0.44768-1.7012 0.64062-0.48504 0.19293-1.2384 0.50978-1.6738 0.70313-0.43545 0.19377-0.91192 0.41214-1.0586 0.48632l-0.271 0.116-0.54-0.535c-0.296-0.294-0.72-0.74-0.943-0.992-0.223-0.253-0.519-0.6-0.658-0.772s-0.405-0.525-0.592-0.785c-0.18669-0.26001-0.48601-0.70998-0.66602-1-0.18001-0.29043-0.8129-1.4179-1.4062-2.5059-0.82089-1.5043-1.125-2.0257-1.2676-2.1699-0.10293-0.10418-0.2819-0.23363-0.39648-0.28906-0.16793-0.08044-0.28914-0.10246-0.625-0.11329zm-0.06256 4.5879c0.01319 0.000999 0.2006 0.32216 0.41602 0.71679 0.21544 0.39544 0.51994 0.93066 0.67578 1.1895 0.15626 0.25918 0.38164 0.61476 0.5 0.79102 0.11792 0.17668 0.32802 0.48075 0.46679 0.67577 0.13834 0.1946 0.42938 0.58045 0.64648 0.85547 0.21668 0.27502 0.5759 0.70493 0.79882 0.95703 0.22251 0.25211 0.74858 0.79648 1.1699 1.209 0.4217 0.41253 1.0363 0.97058 1.3672 1.2402 0.33044 0.2692 0.87517 0.68434 1.209 0.92188 0.33336 0.2371 0.84066 0.57864 1.127 0.75781 0.28669 0.1796 0.8873 0.52675 1.334 0.77343 0.44712 0.24668 0.83819 0.4648 0.87109 0.48438 0.04297 0.02588-0.10848 0.12742-0.54101 0.36328-0.33086 0.18001-0.82651 0.45913-1.1016 0.61914-0.27502 0.1596-0.77805 0.47644-1.1172 0.70312-0.3396 0.2271-0.81787 0.56453-1.0625 0.75-0.24502 0.18585-0.66198 0.51799-0.92578 0.73633-0.26335 0.21877-0.88381 0.8011-1.3789 1.2949-0.49545 0.4938-1.0934 1.1313-1.3301 1.418-0.2371 0.28627-0.6123 0.7646-0.83398 1.0625-0.2221 0.29795-0.5636 0.78607-0.75782 1.084-0.1946 0.29795-0.48339 0.76597-0.64258 1.041-0.15918 0.27502-0.41978 0.74109-0.57812 1.0332-0.15877 0.29211-0.29846 0.53126-0.31055 0.53126-0.01249 0-0.24393-0.40325-0.51563-0.89454-0.27128-0.49129-0.65347-1.1419-0.84766-1.4473-0.19418-0.30544-0.50626-0.76842-0.69336-1.0293-0.18586-0.26156-0.50513-0.68464-0.70898-0.93945s-0.554-0.6681-0.77734-0.91992c-0.22334-0.25257-0.72266-0.76876-1.1094-1.1465-0.388-0.377-0.929-0.875-1.204-1.104-0.275-0.23-0.715-0.579-0.979-0.776-0.264-0.198-0.703-0.51-0.978-0.693s-0.671-0.436-0.877-0.561c-0.2061-0.12441-0.72607-0.41822-1.1563-0.6543-0.42944-0.23533-0.7793-0.43466-0.7793-0.4414 0-0.006 0.28516-0.16587 0.63477-0.35547 0.3496-0.18959 0.91598-0.51374 1.2598-0.71875 0.34377-0.20543 0.83187-0.51415 1.084-0.6875 0.2521-0.17294 0.67851-0.48178 0.94726-0.68555 0.26835-0.20376 0.75452-0.60073 1.082-0.88282 0.3271-0.28169 0.92453-0.84778 1.3262-1.2578 0.40211-0.40962 0.92566-0.9794 1.1641-1.2656 0.23878-0.28668 0.61621-0.76459 0.8379-1.0625 0.2221-0.29794 0.56164-0.78607 0.75586-1.084 0.1946-0.29794 0.48536-0.76595 0.64453-1.041 0.15918-0.27502 0.41783-0.73914 0.57618-1.0312 0.15808-0.29085 0.29701-0.52724 0.31055-0.5293zm27.576 3.0254c0.71673 0.009 1.6087 0.03418 1.9805 0.05666 0.37212 0.02248 0.99512 0.07045 1.3848 0.10546 0.38961 0.03497 1.0826 0.11159 1.541 0.16993 0.45838 0.05796 1.2096 0.16859 1.668 0.24609 0.45837 0.07754 1.2076 0.21748 1.666 0.3125 0.45837 0.09503 1.2639 0.28268 1.791 0.41602 0.52713 0.13334 1.3694 0.36743 1.8711 0.51953 0.50171 0.15209 1.2892 0.40781 1.75 0.57032 0.46087 0.16209 1.2238 0.44991 1.6934 0.63867 0.47004 0.18834 1.145 0.47223 1.5 0.62891 0.35545 0.1571 1.0666 0.49456 1.582 0.75 0.51588 0.25544 1.2388 0.62882 1.6055 0.83007 0.36669 0.20128 1.0104 0.57055 1.4297 0.82227 0.4196 0.25127 1.1225 0.69702 1.5625 0.98829 0.44004 0.29085 1.0439 0.70418 1.3418 0.91796 0.29795 0.21336 0.82224 0.60451 1.166 0.86914 0.34379 0.2646 0.89645 0.7066 1.2285 0.98242 0.33252 0.27585 0.85836 0.72692 1.168 1.002 0.3096 0.2746 0.84296 0.7721 1.1856 1.1055 0.3421 0.33295 0.91096 0.90478 1.2656 1.2715 0.35463 0.3667 0.91785 0.97556 1.25 1.3535 0.33168 0.37795 0.86622 1.0156 1.1875 1.416 0.3217 0.40087 0.74942 0.95023 0.95116 1.2207l0.3672 0.49219-0.3379 0.55078c-0.18584 0.30293-0.50774 0.82176-0.71484 1.1543-0.2071 0.3321-0.7983 1.2411-1.3125 2.0195-0.5138 0.77839-1.2068 1.8108-1.541 2.293-0.33462 0.48212-0.91742 1.3068-1.2949 1.834-0.37794 0.52712-1.1498 1.5777-1.7148 2.334-0.56504 0.75628-1.3984 1.8528-1.8535 2.4375-0.45503 0.58421-1.2863 1.6347-1.8476 2.334-0.56172 0.69881-1.482 1.8237-2.0449 2.5-0.56255 0.67588-1.4263 1.6985-1.918 2.2715-0.49214 0.57296-1.2992 1.5008-1.793 2.0625-0.49421 0.5613-1.3134 1.4818-1.8223 2.0469-0.50837 0.56462-1.3902 1.5295-1.959 2.1445-0.56839 0.61504-1.4066 1.512-1.8633 1.9941-0.45629 0.48212-1.6375 1.709-2.625 2.7266-0.98719 1.0176-2.6184 2.6516-3.6231 3.6308l-1.8262 1.7812-1.4434 0.0313c-0.7942 0.0171-3.0099 0.0205-4.9238 0.006-1.9135-0.0142-4.0992-0.0454-4.8555-0.0684-0.75628-0.0229-1.8993-0.0601-2.541-0.0839-0.64171-0.0241-1.7584-0.0712-2.4805-0.10547-0.72173-0.0337-1.7904-0.09-2.375-0.125-0.58422-0.0346-1.7374-0.11046-2.5625-0.16797-0.82508-0.0571-2.0522-0.15189-2.7285-0.20898-0.67589-0.0571-1.4271-0.12204-1.668-0.14454-0.24086-0.0225-0.83119-0.0787-1.3125-0.125-0.48129-0.0459-1.5499-0.1579-2.375-0.25-0.82509-0.0916-2.016-0.23403-2.6465-0.31445-0.63006-0.0804-1.6145-0.21214-2.1875-0.29297-0.57297-0.0804-1.5189-0.219-2.1035-0.30859-0.58464-0.09-1.5125-0.24064-2.0625-0.33399-0.55004-0.0929-1.45-0.25184-2-0.35351-0.55004-0.10126-1.516-0.28962-2.1465-0.41797-0.63006-0.12834-1.5221-0.31699-1.9805-0.41992-0.45837-0.10291-1.1823-0.27207-1.6094-0.375l-0.77735-0.1875-0.06645-0.44531c-0.03667-0.24502-0.10539-0.74655-0.15039-1.1133-0.04547-0.3667-0.11037-0.97557-0.14454-1.3535-0.03417-0.37836-0.08384-1.0431-0.11132-1.4785-0.02748-0.43546-0.04927-1.5242-0.04886-2.418 0-0.89381 0.02138-1.9806 0.04886-2.416 0.02748-0.43546 0.07674-1.1025 0.11132-1.4805 0.03418-0.37837 0.10023-0.99705 0.14648-1.375 0.04667-0.37837 0.15847-1.1375 0.24805-1.6875 0.08964-0.55004 0.22958-1.3276 0.3125-1.7285 0.08254-0.40129 0.22221-1.0298 0.31056-1.3965 0.08834-0.3667 0.25455-1.0035 0.36913-1.416 0.1146-0.41253 0.31531-1.0875 0.44531-1.5 0.13001-0.41253 0.35863-1.0875 0.50781-1.5 0.14918-0.41253 0.4213-1.1256 0.60547-1.584 0.18461-0.45837 0.47424-1.1377 0.64258-1.5098 0.16835-0.3721 0.51413-1.0931 0.76953-1.6035 0.25545-0.51046 0.60528-1.1826 0.77735-1.4922 0.1721-0.30961 0.51501-0.89999 0.76172-1.3125 0.24709-0.41253 0.69043-1.1149 0.98632-1.5625 0.29628-0.44753 0.74188-1.0942 0.99024-1.4375 0.24836-0.34294 0.61232-0.82999 0.8086-1.082 0.19585-0.25211 0.5431-0.6887 0.77148-0.96875 0.22794-0.27961 0.43005-0.49841 0.44922-0.48633 0.01919 0.01169 0.26912 0.31505 0.55664 0.67382 0.2871 0.35878 0.67734 0.87406 0.86524 1.1445 0.18834 0.27086 0.44784 0.6657 0.57618 0.87695 0.12876 0.21127 0.71546 1.2647 1.3047 2.3418 0.6538 1.1955 1.1308 2.0208 1.2246 2.1191 0.08414 0.08834 0.22023 0.20488 0.30274 0.25781 0.08204 0.05296 0.25053 0.12544 0.37304 0.16211 0.12209 0.03627 0.30963 0.06635 0.41797 0.06635 0.10792 0 0.32056-0.03887 0.47266-0.08594 0.2221-0.06835 0.32579-0.131 0.52539-0.32227l0.24609-0.23828 1.0703-1.959c0.58838-1.0772 1.1823-2.1458 1.3203-2.375 0.13792-0.2292 0.36445-0.58475 0.50196-0.79102 0.13751-0.20626 0.40275-0.58187 0.58984-0.83398 0.18668-0.2521 0.48053-0.62772 0.6543-0.83399 0.17334-0.20626 0.4923-0.56662 0.70898-0.80078 0.2171-0.23376 0.6279-0.64344 0.91211-0.91016 0.2846-0.26669 0.80708-0.71761 1.1621-1.0039 0.35544-0.28627 0.93794-0.71488 1.293-0.95116 0.35544-0.23627 0.90767-0.57768 1.2285-0.75977 0.32086-0.18169 1.3235-0.73174 2.2285-1.2226 1.4381-0.78004 1.6759-0.92382 1.8984-1.1426 0.18752-0.18417 0.27944-0.31467 0.3457-0.49219 0.06245-0.16751 0.08984-0.33576 0.08984-0.55077 0-0.21419-0.02628-0.38228-0.08784-0.54688-0.06205-0.16584-0.16171-0.3089-0.32423-0.47266-0.20985-0.20011-0.4792-0.36207-2.1348-1.2637-1.0425-0.56809-2.1112-1.1745-2.375-1.3477l-0.47852-0.31445 0.3125-0.14258c0.1721-0.07834 0.66807-0.2841 1.1035-0.45703 0.43545-0.17294 1.0542-0.40772 1.375-0.52148 0.32085-0.11376 0.83726-0.29048 1.1465-0.39258 0.3096-0.10209 0.90821-0.28639 1.332-0.41015 0.42419-0.12376 1.109-0.31102 1.5215-0.41602 0.41253-0.10459 1.1437-0.27375 1.625-0.375 0.48128-0.10167 1.2096-0.24096 1.6172-0.31055 0.40711-0.06995 1.082-0.17268 1.5-0.22852 0.41753-0.05626 1.1516-0.14166 1.6328-0.1875 0.48128-0.04587 1.2506-0.1039 1.709-0.12891 0.45837-0.02498 0.99286-0.05066 1.1875-0.05856 0.19501-0.007 0.9415-0.007 1.6582 0.002zm36.346 0.77148c0.33211-0.004 0.72139 0.01999 0.94727 0.05666 0.21042 0.03417 0.50428 0.10557 0.65429 0.16016 0.15002 0.05456 0.37864 0.16314 0.50782 0.24024 0.12876 0.07754 0.31824 0.23502 0.41992 0.34961 0.10167 0.1146 0.25877 0.35766 0.3496 0.54101 0.0904 0.18334 0.20586 0.48268 0.25587 0.66602 0.0795 0.29295 0.0905 0.44332 0.0918 1.2305 0.002 0.75545-0.0144 0.98077-0.0957 1.4375-0.0526 0.29794-0.17046 0.84032-0.26172 1.207-0.0912 0.36671-0.28509 1.0236-0.42969 1.459-0.145 0.43546-0.3972 1.1268-0.56055 1.5352-0.16335 0.40837-0.45649 1.1014-0.65234 1.541-0.19626 0.43961-0.66764 1.4121-1.0469 2.1621-0.3792 0.75007-0.7105 1.3916-0.73634 1.4258-0.0388 0.05166-0.13253-0.04567-0.54297-0.56445-0.27377-0.34544-0.74952-0.92054-1.0566-1.2793-0.30753-0.35878-0.80825-0.92572-1.1133-1.2578-0.30503-0.33252-0.97424-1.0164-1.4863-1.5215-0.51212-0.50505-1.249-1.1981-1.6387-1.541-0.38962-0.34294-0.96226-0.83253-1.2715-1.0859-0.30961-0.25336-0.80756-0.64934-1.1055-0.87891-0.29794-0.23001-0.812-0.61349-1.1445-0.85352-0.3321-0.2396-0.77813-0.55533-0.99023-0.70118-0.21209-0.14584-0.38477-0.27797-0.38477-0.29297 0-0.01459 0.28516-0.17785 0.63477-0.36328 0.34961-0.18586 0.98107-0.50874 1.4023-0.71875 0.42128-0.20961 1.0301-0.50429 1.3535-0.6543 0.32377-0.15001 0.78129-0.35619 1.0176-0.45703 0.23627-0.10126 0.70629-0.29313 1.043-0.42773 0.33669-0.13417 0.91065-0.34724 1.2774-0.47266 0.3667-0.12584 0.93941-0.30664 1.2715-0.40039 0.33252-0.09413 0.82061-0.21717 1.084-0.27343 0.26378-0.05626 0.67559-0.13018 0.91602-0.16602 0.24085-0.03537 0.50397-0.07165 0.58398-0.08004 0.0804-0.008 0.39784-0.01769 0.70703-0.02148zm-36.79 14.887c-0.16834-0.01079-0.3579 0.007-0.5 0.04687-0.12543 0.03498-0.30202 0.10947-0.39454 0.16406-0.09213 0.05456-0.22785 0.16202-0.30077 0.23828-0.07245 0.07665-0.60189 0.9983-1.1777 2.0488-0.57547 1.0501-1.1699 2.1089-1.3203 2.3535-0.15084 0.2446-0.40669 0.63212-0.56836 0.86133-0.16209 0.22918-0.47388 0.63999-0.6914 0.91211-0.2171 0.27211-0.58611 0.70469-0.82032 0.96094-0.23419 0.25626-0.62973 0.655-0.87891 0.88671-0.24918 0.23126-0.62184 0.56004-0.82812 0.73047-0.20627 0.17085-0.54374 0.43678-0.75 0.59179-0.20627 0.15501-0.57993 0.41773-0.83203 0.58399-0.25211 0.16626-0.68396 0.43303-0.95898 0.59179-0.27502 0.15877-1.2382 0.68991-2.1387 1.1816-1.2255 0.6688-1.6846 0.94045-1.8242 1.0801-0.10293 0.10209-0.23491 0.28764-0.29492 0.41016-0.07625 0.15669-0.11516 0.3137-0.12891 0.52539-0.01289 0.20627 0.00091 0.37528 0.04687 0.53321 0.03707 0.1271 0.13037 0.32388 0.20703 0.43555 0.07714 0.11168 0.22337 0.26035 0.32422 0.33203 0.10084 0.07165 0.91479 0.52847 1.8086 1.0156 0.89381 0.4867 1.8499 1.0169 2.125 1.1777 0.27502 0.16126 0.746 0.46071 1.0469 0.66406 0.30044 0.20376 0.76459 0.54485 1.0312 0.7578 0.26627 0.21294 0.71047 0.58998 0.98633 0.8379 0.27544 0.24794 0.6829 0.6496 0.90625 0.89258 0.22335 0.24294 0.52097 0.572 0.66015 0.73242 0.13917 0.16044 0.40835 0.4979 0.59961 0.75 0.19126 0.25211 0.52005 0.72211 0.73047 1.043 0.21044 0.32086 0.61651 1.0056 0.90234 1.5215 0.28586 0.51546 0.78908 1.4321 1.1191 2.0371 0.40169 0.73713 0.65927 1.1598 0.7793 1.2832 0.09833 0.10126 0.2867 0.23521 0.41797 0.29688 0.20626 0.0967 0.29028 0.11133 0.6328 0.11133 0.34212 0 0.42976-0.0151 0.63477-0.11133 0.13043-0.0613 0.31725-0.19183 0.41601-0.29101 0.13251-0.13252 0.42821-0.63312 1.1133-1.8887 0.51254-0.93966 1.0634-1.9339 1.2246-2.209 0.16085-0.27502 0.40504-0.66873 0.54297-0.875 0.13751-0.20626 0.38928-0.56378 0.56055-0.79297 0.17167-0.22918 0.4874-0.62289 0.70116-0.875 0.21377-0.2521 0.55261-0.63092 0.75391-0.84179 0.20126-0.21127 0.554-0.55563 0.7832-0.76563 0.22919-0.21001 0.63314-0.55476 0.89649-0.76563 0.26377-0.21085 0.69368-0.53526 0.95703-0.7207 0.26377-0.18501 0.69564-0.46582 0.95899-0.625 0.26378-0.15918 1.1735-0.67053 2.0215-1.1348 0.84802-0.46379 1.6823-0.91834 1.8535-1.0117 0.17085-0.09373 0.39218-0.25351 0.49218-0.35352 0.10043-0.10001 0.23173-0.28754 0.29297-0.41797 0.0962-0.20501 0.11133-0.29265 0.11133-0.63476 0-0.35003-0.0134-0.4235-0.11719-0.63476-0.0647-0.13168-0.19853-0.31852-0.29687-0.41602-0.12835-0.12752-0.6281-0.42364-1.7774-1.0508-0.87965-0.48045-1.8446-1.0116-2.1426-1.1816-0.29793-0.17043-0.76235-0.45783-1.0332-0.63867-0.27128-0.18085-0.68393-0.4726-0.91601-0.64844-0.23211-0.17543-0.61966-0.49016-0.86133-0.69726-0.24169-0.2071-0.61463-0.54531-0.83008-0.75196-0.21503-0.2071-0.60704-0.62-0.86914-0.91797-0.2621-0.29794-0.64122-0.75842-0.84375-1.0234-0.20294-0.26544-0.54697-0.75356-0.76367-1.084-0.21626-0.33086-0.62667-1.0236-0.91211-1.5391-0.28586-0.51588-0.77861-1.4158-1.0957-2-0.45755-0.84426-0.62126-1.1058-0.79297-1.2754-0.14669-0.14502-0.29385-0.24218-0.46094-0.30469-0.13543-0.05046-0.36841-0.10174-0.51758-0.11132zm-0.08983 4.6074 0.008 0.002c0.0137 0 0.12553 0.18289 0.24804 0.40625 0.12209 0.22335 0.33556 0.6029 0.47266 0.84375 0.13709 0.24044 0.40781 0.68058 0.60157 0.97852 0.19418 0.29795 0.56348 0.82225 0.82226 1.166 0.25835 0.34378 0.61542 0.79375 0.79296 1 0.17752 0.20626 0.51036 0.57684 0.73829 0.82227 0.22794 0.245 0.66907 0.67858 0.98243 0.96484 0.31294 0.28586 0.74123 0.65938 0.94921 0.82813 0.20835 0.16876 0.55594 0.44058 0.77343 0.60352 0.21793 0.16251 0.64752 0.46072 0.95509 0.66406 0.30753 0.20335 0.7757 0.49522 1.0391 0.64648 0.26377 0.15127 0.67192 0.3824 0.9082 0.51367l0.42969 0.23633-0.69922 0.38476c-0.38545 0.21168-0.90804 0.51212-1.1602 0.66797-0.2521 0.15585-0.70251 0.45529-1 0.66406-0.29753 0.20877-0.72743 0.5273-0.95703 0.70898-0.2296 0.18209-0.56857 0.46235-0.75194 0.6211-0.18335 0.15877-0.61144 0.56262-0.95314 0.89843-0.34169 0.33587-0.81168 0.82604-1.043 1.0898-0.23127 0.26377-0.55303 0.64724-0.71679 0.85352-0.16335 0.20584-0.45271 0.59172-0.64063 0.85546-0.18793 0.26335-0.49231 0.72159-0.67773 1.0195-0.18544 0.29794-0.51138 0.8587-0.72265 1.2441l-0.38477 0.70116-0.10156-0.18164c-0.05626-0.09913-0.28124-0.49909-0.5-0.88867-0.224-0.39-0.59-0.989-0.818-1.332-0.229-0.344-0.582-0.845-0.785-1.112-0.204-0.266-0.577-0.726-0.828-1.019-0.253-0.294-0.721-0.797-1.043-1.119-0.323-0.323-0.826-0.791-1.12-1.043-0.293-0.252-0.751-0.622-1.015-0.823-0.27355-0.20011-0.70781-0.51349-0.97462-0.69336-0.26531-0.17987-0.67934-0.44399-0.91992-0.58789s-0.69695-0.40139-1.0117-0.57227c-0.31552-0.17163-0.57226-0.32486-0.57226-0.33984 0.000419-0.01459 0.22145-0.14628 0.49023-0.29297 0.26919-0.14709 0.66729-0.37137 0.88477-0.49804 0.21793-0.12626 0.63448-0.38728 0.92577-0.57813 0.29127-0.19083 0.75108-0.5112 1.0215-0.71289 0.27003-0.20167 0.74356-0.5805 1.0527-0.84179 0.30961-0.26169 0.85464-0.76713 1.2109-1.1231 0.35585-0.35585 0.84603-0.88166 1.0898-1.168 0.24377-0.28668 0.58669-0.70717 0.76172-0.93555 0.17501-0.22793 0.50238-0.68812 0.72657-1.0215 0.22377-0.33336 0.52897-0.81234 0.67773-1.0645 0.14835-0.25211 0.38848-0.67808 0.53516-0.94727 0.14709-0.2692 0.27964-0.49023 0.29297-0.49023zm36.461 0.12891c0.0117-0.00082 0.15247 0.21712 0.31249 0.48632 0.16001 0.26919 0.43829 0.75143 0.61915 1.0723 0.18084 0.32087 0.55715 1.034 0.83593 1.584 0.27877 0.55003 0.6729 1.3756 0.875 1.834 0.20252 0.45837 0.50015 1.1612 0.66016 1.5625 0.16001 0.40086 0.40896 1.0577 0.55273 1.459 0.14334 0.40087 0.35444 1.0278 0.4707 1.3945 0.11585 0.36671 0.29705 0.96726 0.40039 1.334 0.10335 0.3667 0.27195 1.0133 0.37696 1.4375 0.10543 0.42377 0.2844 1.2313 0.39649 1.793 0.11209 0.5613 0.25936 1.3951 0.32812 1.8535 0.0691 0.45837 0.15599 1.0668 0.1914 1.3535 0.0355 0.28626 0.0912 0.82078 0.125 1.1875 0.0342 0.36669 0.0849 0.99522 0.11329 1.3965 0.0313 0.43421 0.052 1.5141 0.0508 2.668-0.002 1.4085-0.021 2.1937-0.0722 2.875-0.0392 0.51545-0.10805 1.2828-0.1543 1.707-0.0463 0.42379-0.12254 1.0346-0.16797 1.3555-0.045 0.32086-0.091 0.63405-0.10352 0.69531l-0.0235 0.11133-0.54882 0.13086c-0.30252 0.0721-0.86817 0.2045-1.2578 0.29492-0.38961 0.0904-1.2333 0.27669-1.875 0.41211-0.64172 0.13586-1.7202 0.351-2.3965 0.47852-0.6759 0.1271-1.8952 0.34378-2.709 0.48046-0.8134 0.13627-2.0508 0.3322-2.75 0.43555-0.6988 0.10293-1.7679 0.25357-2.375 0.33399-0.60713 0.0804-1.5735 0.20273-2.1465 0.27148-0.57294 0.0687-1.6597 0.18953-2.416 0.26953-0.75628 0.0796-1.9854 0.20078-2.7305 0.26954-0.74463 0.0688-1.9541 0.17296-2.6875 0.23046s-1.9043 0.14167-2.6035 0.1875c-0.69881 0.0463-1.7875 0.1119-2.418 0.14649-0.63005 0.035-1.7712 0.0927-2.5371 0.12695-0.76549 0.0346-1.4888 0.0614-1.6055 0.0606l-0.21094-0.002 0.79882-0.7793c0.43962-0.4292 1.3112-1.3052 1.9375-1.9473 0.6259-0.64214 1.6549-1.7108 2.2871-2.375 0.63214-0.66422 1.5336-1.6208 2.002-2.125 0.46836-0.50421 1.2256-1.3298 1.6836-1.834 0.45796-0.50421 1.134-1.2535 1.502-1.666 0.36753-0.41253 0.99763-1.1256 1.3984-1.584 0.40128-0.45836 1.1211-1.2922 1.6016-1.8535 0.48088-0.56172 1.2498-1.4715 1.709-2.0215 0.4592-0.55004 1.2379-1.4964 1.7305-2.1035 0.49212-0.60755 1.2433-1.5456 1.668-2.084 0.42503-0.53879 1.081-1.3825 1.459-1.875 0.37793-0.49254 0.91252-1.1958 1.1875-1.5625 0.27501-0.3667 0.84684-1.1463 1.2715-1.7305 0.42462-0.58463 1.0702-1.4845 1.4336-2 0.36336-0.51588 1.1308-1.6422 1.7051-2.5039 0.57422-0.86173 1.2782-1.9435 1.5645-2.4043 0.28621-0.4597 0.52902-0.83583 0.54102-0.83789zm-81.394 13.625c0.007 0.01539-0.03518 0.27883-0.09183 0.58594-0.05666 0.30711-0.15934 0.94211-0.22852 1.4121-0.06915 0.46962-0.17296 1.2952-0.23046 1.834-0.05706 0.53837-0.13186 1.4202-0.16602 1.959-0.03418 0.53837-0.07525 1.4946-0.08984 2.125-0.01499 0.64462-0.007 1.6652 0.01949 2.334 0.02538 0.65381 0.07365 1.5435 0.10742 1.9785 0.03418 0.43504 0.10206 1.1547 0.15039 1.5977 0.04837 0.44296 0.07874 0.8138 0.06835 0.82421-0.01039 0.0104-0.4099-0.10318-0.88867-0.25195-0.47838-0.14834-1.2184-0.38917-1.6426-0.53711-0.42378-0.14751-1.0425-0.3729-1.375-0.5-0.33211-0.12667-0.82846-0.32332-1.1035-0.4375-0.27502-0.11376-0.74306-0.32035-1.041-0.45703-0.29794-0.13667-0.73384-0.34384-0.96679-0.46094-0.23293-0.11709-0.67309-0.35581-0.97853-0.53125-0.30544-0.17585-0.77141-0.46576-1.0352-0.64452-0.26335-0.17877-0.65817-0.47333-0.87695-0.65626-0.21876-0.18294-0.50756-0.45181-0.64258-0.59765-0.13501-0.14543-0.32954-0.37812-0.43164-0.51563-0.10209-0.13751-0.25696-0.39868-0.34571-0.58203-0.08874-0.18335-0.1889-0.46457-0.22265-0.625-0.03417-0.16042-0.06245-0.37755-0.06245-0.48047 0-0.10335 0.02828-0.30391 0.06245-0.44726 0.03378-0.14335 0.1193-0.37856 0.1914-0.52148 0.07205-0.14294 0.20786-0.37113 0.30078-0.50781 0.09253-0.13668 0.31888-0.40668 0.50391-0.59961 0.18501-0.19251 0.49639-0.48426 0.6914-0.64844 0.19543-0.16376 0.56123-0.43992 0.8125-0.61328 0.25168-0.17293 0.65047-0.43212 0.88672-0.57422 0.23626-0.14251 0.73223-0.41687 1.1035-0.60938 0.37086-0.19252 0.92905-0.46462 1.2383-0.60546 0.3092-0.14085 0.91016-0.39779 1.334-0.57031 0.42378-0.17293 1.0991-0.43229 1.5-0.57813 0.40128-0.14584 1.1604-0.40491 1.6875-0.57616 0.52713-0.17085 1.136-0.36386 1.3535-0.42969 0.21793-0.06585 0.40195-0.10725 0.40821-0.09183zm89.986 0.01369c0.075 0.01459 0.55876 0.16017 1.0742 0.32227 0.51588 0.16209 1.3592 0.44444 1.873 0.62695 0.51379 0.18293 1.197 0.43736 1.5195 0.56445 0.32253 0.12709 0.90536 0.37045 1.2949 0.54297 0.38961 0.1721 0.97212 0.44504 1.293 0.60547 0.32086 0.16043 0.79913 0.41331 1.0625 0.56249 0.26377 0.14918 0.71373 0.42382 1 0.61133 0.28669 0.18752 0.70832 0.49272 0.93751 0.67773 0.22918 0.1846 0.59608 0.52177 0.81445 0.74805 0.21835 0.22627 0.48794 0.54803 0.59961 0.71679 0.11168 0.16877 0.2567 0.44971 0.32421 0.62305 0.0758 0.19502 0.13274 0.43062 0.14649 0.61523 0.0154 0.20252 0.00061 0.39839-0.0469 0.61133-0.0384 0.17293-0.14296 0.46256-0.23046 0.64258-0.0875 0.18001-0.24543 0.44314-0.34961 0.58398-0.10459 0.14126-0.31835 0.3908-0.47461 0.55664-0.15627 0.16584-0.47986 0.45941-0.72071 0.65234-0.24044 0.19295-0.64437 0.48917-0.89648 0.65626-0.2521 0.16752-0.67372 0.42504-0.9375 0.57422-0.26335 0.14959-0.73141 0.39967-1.041 0.55469-0.3092 0.15501-0.83543 0.40131-1.168 0.54882-0.3321 0.14794-0.95079 0.40671-1.375 0.57422-0.42377 0.1671-1.1466 0.43751-1.6074 0.59961-0.46045 0.16168-1.2638 0.42649-1.7852 0.58984-0.52089 0.16335-0.95345 0.2907-0.96094 0.28321-0.007-0.007 0.0204-0.313 0.0625-0.67969 0.0421-0.3667 0.10716-1.0138 0.14258-1.4375 0.0358-0.4242 0.0825-1.1536 0.10546-1.6211 0.0233-0.46712 0.0434-1.4697 0.043-2.2285 0-0.75837-0.0197-1.7466-0.043-2.1934-0.023-0.44711-0.0694-1.15-0.10351-1.5625-0.0347-0.41253-0.0908-1.0033-0.125-1.3125-0.0346-0.30961-0.11089-0.89999-0.16797-1.3125-0.0571-0.41253-0.16046-1.0776-0.23046-1.4785-0.0697-0.40128-0.13412-0.75549-0.14454-0.78711-0.0146-0.04417 0.0102-0.05216 0.11524-0.03128zm-3.4688 18.699c0.0329-0.002 0.0461 0.0242 0.0332 0.0683-0.0117 0.0401-0.0998 0.38335-0.19531 0.76172-0.0954 0.37794-0.28267 1.0529-0.41602 1.5-0.13376 0.4467-0.3663 1.1743-0.51758 1.6172-0.15126 0.44253-0.39951 1.1277-0.55078 1.5215-0.15126 0.39378-0.42014 1.0523-0.59766 1.4648-0.17708 0.41253-0.47682 1.0792-0.66601 1.4805-0.18917 0.40086-0.5223 1.066-0.74024 1.4785-0.21752 0.41254-0.47911 0.90067-0.58203 1.084-0.10292 0.18335-0.36562 0.63331-0.58398 1-0.21835 0.3667-0.66409 1.0695-0.98828 1.5625-0.32419 0.49253-0.79219 1.1777-1.041 1.5215-0.24919 0.34379-0.64217 0.86811-0.87306 1.166-0.23085 0.29795-0.64927 0.81719-0.92968 1.1543-0.28085 0.33711-0.74819 0.88148-1.0391 1.209-0.29086 0.32753-1.0559 1.1211-1.6992 1.7637-0.64339 0.64213-1.461 1.4211-1.8164 1.7324-0.35502 0.31086-0.88085 0.76168-1.168 1-0.28711 0.23836-0.75148 0.61021-1.0332 0.82813-0.28211 0.21751-0.77892 0.59062-1.1035 0.82812-0.3246 0.23753-0.99385 0.69871-1.4863 1.0254-0.49253 0.3267-1.1592 0.75225-1.4805 0.94727-0.32169 0.19459-0.93014 0.54849-1.3535 0.78515-0.42379 0.23668-1.2957 0.68736-1.9375 1.002-0.64172 0.3142-1.5416 0.72926-2 0.92384-0.45837 0.1946-1.1551 0.47805-1.5488 0.6289-0.39337 0.15086-1.1348 0.41273-1.6465 0.58398-0.51129 0.17085-1.2592 0.40607-1.6621 0.52149-0.40252 0.11585-1.1156 0.30562-1.584 0.42187-0.46795 0.11584-1.2531 0.29215-1.7461 0.39258-0.49255 0.10001-1.2521 0.24054-1.6875 0.31055-0.43545 0.0704-1.0923 0.16623-1.459 0.2129-0.36667 0.0467-1.0616 0.12183-1.543 0.16601-0.48127 0.0446-1.3152 0.10182-1.8535 0.1289-0.6088 0.0305-1.6254 0.0411-2.6875 0.0274-0.96717-0.0125-2.0791-0.0519-2.5625-0.0898-0.46961-0.0371-1.193-0.10414-1.6055-0.15039-0.41254-0.0463-1.0674-0.13083-1.457-0.18751-0.38961-0.0567-0.92376-0.14237-1.1875-0.18945-0.26335-0.0471-0.71331-0.13125-1-0.1875-0.28626-0.0563-0.92497-0.19484-1.418-0.3086-0.49296-0.11417-1.2902-0.31924-1.7715-0.45508-0.48086-0.13584-1.2306-0.36222-1.666-0.50389-0.43546-0.14168-1.1946-0.40804-1.6875-0.59181-0.49254-0.18376-1.2902-0.5016-1.7715-0.70703-0.48128-0.20544-1.1362-0.4983-1.457-0.65039-0.32086-0.1521-0.87499-0.42615-1.2305-0.60742-0.35502-0.18126-0.8514-0.44256-1.1035-0.58008-0.2521-0.13792-0.77502-0.43725-1.1621-0.66602l-0.70508-0.41406 0.14258-0.0879c0.07754-0.0479 0.55243-0.34878 1.0566-0.66797 0.50421-0.31919 1.4706-0.94952 2.1465-1.4004 0.67631-0.45088 1.5762-1.0604 2-1.3555 0.4242-0.29503 1.2679-0.89381 1.875-1.3301 0.60755-0.43629 1.7423-1.2716 2.5215-1.8574 0.77922-0.58546 1.7637-1.3372 2.1875-1.668 0.4242-0.33044 1.2879-1.0123 1.918-1.5156 0.63048-0.50379 1.6728-1.3526 2.3184-1.8848 0.64547-0.53255 1.6674-1.3863 2.2695-1.8984 0.60256-0.51211 1.6407-1.4073 2.3066-1.9902 0.66589-0.58338 1.6691-1.4755 2.2305-1.9805 0.56172-0.50546 1.4895-1.3494 2.0625-1.8769 0.57255-0.52713 1.5189-1.4096 2.1035-1.9609l1.0644-1.002 1.666-0.0508c0.91674-0.028 2.2768-0.0795 3.0215-0.11328 0.74505-0.0337 1.8699-0.09 2.5-0.125 0.63046-0.035 1.7172-0.10107 2.416-0.14649 0.69922-0.0459 1.872-0.12999 2.6055-0.18749 0.73339-0.0571 1.8583-0.15148 2.5-0.20899 0.64172-0.0575 1.7206-0.16018 2.3965-0.22852 0.67631-0.0684 1.7166-0.18167 2.3125-0.25 0.59588-0.0684 1.7491-0.20874 2.5625-0.31249 0.81385-0.10418 2.1256-0.28343 2.916-0.39845 0.7909-0.115 2.1506-0.32876 3.0215-0.4746 0.87087-0.14585 2.0422-0.35077 2.6035-0.45703 0.56172-0.10668 1.5658-0.30514 2.2305-0.44141 0.66463-0.13583 1.6027-0.34061 2.084-0.45312 0.48128-0.11209 0.89926-0.20495 0.92969-0.20703zm-83.094 0.0137c0.03837 0.0117 0.53051 0.12415 1.0918 0.25 0.56172 0.12584 1.5839 0.34325 2.2715 0.48242 0.68756 0.13918 1.7562 0.34411 2.375 0.45703 0.6188 0.11293 1.5187 0.27155 2 0.35156 0.48128 0.0804 1.3631 0.22084 1.959 0.3125 0.59588 0.0912 1.6264 0.24148 2.291 0.33398 0.66462 0.0921 1.7333 0.23445 2.375 0.31446 0.64171 0.0796 1.5797 0.19097 2.084 0.24805 0.50421 0.0572 1.3762 0.15301 1.9375 0.21094 0.5613 0.058 1.5276 0.15035 2.1465 0.20703 0.61879 0.0572 1.5832 0.14166 2.1445 0.18749 0.56172 0.0463 1.5478 0.12173 2.1895 0.16797 0.64172 0.0463 1.7847 0.1206 2.541 0.16602 0.75628 0.0455 1.9658 0.11189 2.6875 0.14649 0.72214 0.0346 1.7908 0.0805 2.375 0.10351 0.58463 0.023 1.7575 0.062 2.6055 0.0878 0.84801 0.0254 2.94 0.0597 4.6484 0.0743l3.1055 0.0274-0.76953 0.70898c-0.42254 0.38961-1.2713 1.1606-1.8867 1.7148-0.61505 0.55421-1.6292 1.4548-2.2539 2.002-0.62463 0.54712-1.5866 1.38-2.1367 1.8496-0.55004 0.46921-1.3375 1.1344-1.75 1.4785-0.41253 0.3442-1.1056 0.91601-1.541 1.2715-0.43546 0.35502-1.1202 0.90766-1.5215 1.2285-0.40086 0.32128-1.1985 0.94936-1.7715 1.3965-0.57297 0.4471-1.5653 1.2073-2.207 1.6894-0.64172 0.48212-1.5235 1.136-1.959 1.4531-0.43546 0.31669-1.2991 0.93295-1.918 1.3672-0.6188 0.4342-1.6772 1.157-2.3535 1.6074-0.67588 0.45087-1.566 1.0352-1.9785 1.2969-0.41253 0.26169-1.1147 0.69675-1.5605 0.96679-0.44629 0.27044-0.82652 0.49024-0.84571 0.49024-0.01959 0-0.22717-0.14405-0.46094-0.32031-0.23377-0.17585-0.73492-0.56704-1.1133-0.86915-0.37794-0.3021-0.91244-0.74142-1.1875-0.97851-0.27502-0.23669-0.81934-0.72433-1.209-1.084-0.38961-0.35918-1.0543-1.0081-1.4785-1.4414-0.42378-0.43337-0.988-1.031-1.2539-1.3281-0.26627-0.29711-0.74135-0.84831-1.0547-1.2246-0.31335-0.37628-0.74189-0.91088-0.95312-1.1875-0.21086-0.27669-0.5357-0.70886-0.7207-0.96094-0.18544-0.25253-0.57227-0.80664-0.85937-1.2305-0.28668-0.42421-0.70187-1.0635-0.92188-1.4219-0.22002-0.35836-0.54332-0.90359-0.71875-1.209-0.17543-0.30544-0.50674-0.9077-0.73633-1.3398-0.2296-0.43213-0.58517-1.1463-0.79101-1.5859-0.20627-0.43962-0.51401-1.1217-0.6836-1.5176-0.1696-0.39626-0.45166-1.0913-0.625-1.543-0.17336-0.45211-0.44293-1.2062-0.59961-1.6758-0.15669-0.47004-0.37043-1.145-0.47461-1.5-0.1046-0.35544-0.28273-1.0067-0.39648-1.4492-0.17376-0.6759-0.19547-0.80157-0.13672-0.7832zm3.5215 15.604 0.11328 0.15821c0.06296 0.0879 0.24483 0.34698 0.40235 0.57616 0.15793 0.22919 0.5901 0.81951 0.96094 1.3125 0.37086 0.49254 0.96266 1.2438 1.3164 1.668 0.3542 0.42378 0.91453 1.0708 1.2441 1.4375 0.32961 0.3667 1.0027 1.0714 1.4961 1.5664 0.49338 0.49464 1.1357 1.1169 1.4277 1.3828 0.29169 0.26627 0.77979 0.69727 1.084 0.95898 0.30377 0.26126 0.86227 0.72357 1.2402 1.0274 0.37836 0.30377 0.69214 0.568 0.69923 0.58593 0.007 0.0179-0.67614 0.37754-1.5195 0.79883-0.84337 0.42171-1.9548 0.94597-2.4707 1.166-0.51546 0.22001-1.2744 0.52523-1.6836 0.67774s-1.0558 0.37089-1.4375 0.48632c-0.38128 0.11543-0.91831 0.26424-1.1934 0.33008-0.27502 0.0659-0.72498 0.158-1 0.20509-0.27502 0.0467-0.74535 0.1022-1.0449 0.12304-0.32503 0.0225-0.73348 0.0242-1.0098 0.002-0.25544-0.0204-0.59108-0.0695-0.74609-0.10743-0.15501-0.0379-0.41378-0.12825-0.57422-0.20117-0.18001-0.0816-0.39107-0.22498-0.55274-0.375-0.2025-0.18751-0.30007-0.32117-0.42382-0.58203-0.08794-0.18543-0.19171-0.46847-0.23046-0.62891-0.03917-0.16042-0.08424-0.51189-0.09963-0.78321-0.01499-0.27126-0.01459-0.71521 0.002-0.98437 0.01629-0.26917 0.06925-0.72086 0.11718-1.0058 0.04837-0.28461 0.16335-0.82713 0.25587-1.2051 0.09253-0.37836 0.30472-1.1012 0.47265-1.6055 0.16835-0.5042 0.44817-1.2677 0.62109-1.6973 0.17336-0.4292 0.46944-1.1222 0.65821-1.541 0.18877-0.41836 0.55414-1.1837 0.8125-1.6992 0.25792-0.51587 0.6023-1.1867 0.76562-1.4922zm85.268 9.3008c-0.0246 0.002-0.12642 0.0209-0.22851 0.041-0.10209 0.02-0.28318 0.0846-0.40235 0.14258-0.11877 0.0583-0.29002 0.18682-0.38086 0.28517-0.0908 0.0983-0.21355 0.2616-0.27148 0.36327-0.0584 0.10167-0.4854 0.87855-0.94922 1.7266-0.46419 0.848-0.97318 1.7468-1.1328 1.998-0.1596 0.25169-0.45204 0.67374-0.65039 0.93751-0.19794 0.26419-0.55025 0.69714-0.78321 0.96094-0.23293 0.26335-0.60023 0.64861-0.81445 0.85742-0.2146 0.20834-0.53931 0.5092-0.72265 0.66796-0.18335 0.15834-0.55252 0.45079-0.81836 0.65039-0.26627 0.1996-0.69617 0.49792-0.95703 0.66211-0.26127 0.16459-1.2439 0.71904-2.1836 1.2324-1.4843 0.81092-1.7371 0.96238-1.9238 1.1582-0.14042 0.14709-0.24552 0.30887-0.30469 0.46679-0.0737 0.19585-0.0878 0.30901-0.0761 0.5957 0.0113 0.27128 0.039 0.40814 0.12109 0.58399 0.0588 0.12626 0.19088 0.31098 0.29297 0.41016 0.12418 0.12084 0.54664 0.3797 1.2871 0.78515 0.60672 0.3321 1.395 0.76353 1.75 0.95899 0.35545 0.19585 0.936 0.5482 1.291 0.7832 0.35544 0.2346 0.83806 0.58048 1.0723 0.76758 0.23376 0.18709 0.62748 0.52303 0.875 0.74805 0.2471 0.22502 0.60884 0.58538 0.80469 0.80078 0.19585 0.21544 0.48983 0.55108 0.65234 0.74609 0.16251 0.1946 0.44992 0.57021 0.63868 0.83398 0.18835 0.26336 0.4979 0.74165 0.6875 1.0625 0.1896 0.32086 0.6871 1.2106 1.1055 1.9785 0.41795 0.7676 0.81521 1.4772 0.88476 1.5742 0.0691 0.0971 0.22317 0.24114 0.33985 0.32031 0.11667 0.0791 0.32313 0.17455 0.45898 0.21289 0.16793 0.0479 0.33087 0.0636 0.51172 0.0489 0.18084-0.0142 0.34998-0.0632 0.53125-0.15234 0.16501-0.0812 0.33365-0.20814 0.44531-0.33399 0.10375-0.11668 0.41771-0.64242 0.74023-1.2383 0.30836-0.56962 0.73843-1.3545 0.95508-1.7441 0.21627-0.38962 0.53088-0.91894 0.69922-1.1777 0.16835-0.25836 0.45028-0.66116 0.62696-0.89453 0.17668-0.23293 0.48441-0.61177 0.68359-0.8418 0.19918-0.23002 0.57547-0.62596 0.83594-0.87891 0.26084-0.25294 0.60659-0.57371 0.76953-0.71289 0.16292-0.13918 0.48553-0.39684 0.71679-0.57227 0.2317-0.17501 0.63422-0.45624 0.89258-0.625 0.25877-0.16834 0.84436-0.51381 1.3027-0.76757 0.45837-0.25336 1.2458-0.68478 1.75-0.95898 0.50421-0.27418 1.0054-0.57646 1.1133-0.67188 0.12333-0.10876 0.24771-0.27616 0.33398-0.45117l0.13672-0.2793v-0.375c0-0.33169-0.0151-0.40652-0.12305-0.62695-0.0676-0.13751-0.21085-0.33458-0.31836-0.43751-0.13668-0.13083-0.5633-0.38692-1.418-0.85155-0.67338-0.36586-1.4594-0.79478-1.7461-0.95314-0.28627-0.15876-0.81055-0.48135-1.166-0.71679-0.35503-0.23543-0.84567-0.58845-1.0898-0.78515-0.24417-0.19711-0.63789-0.53708-0.875-0.75586-0.23709-0.21877-0.60654-0.59001-0.82031-0.82423-0.21418-0.23418-0.53103-0.59956-0.70313-0.81249-0.17168-0.21336-0.45332-0.58898-0.625-0.83399-0.17209-0.24543-0.42933-0.64239-0.57226-0.8828-0.14251-0.24086-0.64141-1.1412-1.1094-2-0.59672-1.0947-0.90368-1.6134-1.0254-1.7363-0.0954-0.0966-0.26332-0.22263-0.375-0.2793-0.11209-0.0567-0.3142-0.12344-0.44922-0.14845-0.13542-0.0251-0.26683-0.0435-0.29101-0.041zm0.0469 4.6641c0.005 0 0.14863 0.247 0.32032 0.55078 0.17168 0.30376 0.45543 0.77655 0.63086 1.0508 0.17501 0.27377 0.50154 0.74182 0.72656 1.041 0.22502 0.29878 0.55267 0.71172 0.72852 0.91797 0.17543 0.20626 0.58666 0.64654 0.9121 0.97657 0.32545 0.32961 0.82112 0.79473 1.1016 1.0352 0.28002 0.24086 0.68202 0.57004 0.89453 0.73047 0.21251 0.16084 0.64004 0.45904 0.94922 0.66406 0.30961 0.20459 0.82955 0.52438 1.1562 0.70899 0.32668 0.18501 0.59375 0.34759 0.59375 0.36133-0.00042 0.0142-0.11908 0.0855-0.26367 0.16015-0.1446 0.0751-0.51434 0.28765-0.82227 0.47266-0.30753 0.18502-0.77533 0.48881-1.0391 0.67383-0.26335 0.18542-0.70248 0.51491-0.97461 0.73242-0.2721 0.21752-0.70201 0.58766-0.95703 0.82227-0.25502 0.23459-0.59611 0.56365-0.75781 0.73242-0.1621 0.16834-0.39872 0.42166-0.5254 0.56249-0.12666 0.14084-0.40944 0.47831-0.62695 0.75-0.21752 0.2717-0.54503 0.70891-0.73047 0.97266-0.185 0.26378-0.48881 0.73155-0.67382 1.0391-0.18501 0.30794-0.39766 0.67768-0.47266 0.82227-0.0746 0.14459-0.14795 0.26325-0.16212 0.26367-0.0137 0-0.17631-0.26705-0.36133-0.59375-0.18501-0.32668-0.48713-0.82526-0.67382-1.1094-0.18627-0.2842-0.48206-0.70624-0.65625-0.93751-0.17417-0.23169-0.45905-0.5891-0.63281-0.79491-0.17377-0.20544-0.49384-0.56146-0.71094-0.79102-0.21668-0.22961-0.60016-0.61366-0.85352-0.85156-0.25293-0.23794-0.69968-0.62439-0.99218-0.85938-0.29252-0.23502-0.73855-0.57136-0.99024-0.74804-0.2521-0.1771-0.74665-0.49354-1.0996-0.70313-0.35335-0.21001-0.73979-0.43499-0.85937-0.5l-0.21875-0.11719 0.61719-0.35352c0.33961-0.19377 0.83415-0.49378 1.0996-0.66797 0.26501-0.17376 0.69954-0.47866 0.9629-0.67577 0.26377-0.19751 0.67557-0.52546 0.91601-0.73047 0.24086-0.20462 0.71117-0.64625 1.0449-0.98047 0.33334-0.33378 0.76554-0.79426 0.96093-1.0234 0.19501-0.22919 0.51145-0.62289 0.70313-0.875 0.19168-0.2521 0.5088-0.70274 0.70507-1.002 0.19627-0.29919 0.50611-0.80936 0.68946-1.1348 0.18334-0.32503 0.33762-0.59139 0.34179-0.59179zm-70.367 7.0879c-0.12626 0.003-0.38504 0.0208-0.57422 0.0391-0.18918 0.0184-0.49832 0.0649-0.6875 0.10352-0.18917 0.0384-0.51247 0.12431-0.71874 0.1914-0.20627 0.0671-0.58468 0.22236-0.8418 0.3457-0.25668 0.12334-0.66822 0.36221-0.91406 0.5293-0.26043 0.17752-0.63339 0.48716-0.89258 0.74219-0.24501 0.24126-0.55963 0.59513-0.69922 0.78515-0.1396 0.19043-0.35588 0.5279-0.48047 0.75-0.12459 0.22252-0.29432 0.58036-0.37891 0.79493-0.08504 0.21501-0.20885 0.60001-0.27343 0.85546-0.06455 0.25586-0.14006 0.66235-0.16797 0.90235-0.03168 0.27211-0.04117 0.67095-0.02538 1.0606 0.01419 0.36336 0.06016 0.79848 0.10938 1.041 0.04667 0.22919 0.14316 0.59456 0.21484 0.8125 0.07165 0.21752 0.2132 0.57394 0.31445 0.79101 0.10126 0.21669 0.3226 0.60286 0.4922 0.85743 0.17002 0.25501 0.49149 0.65517 0.71484 0.89062 0.22377 0.23503 0.5576 0.54498 0.7422 0.6875 0.18502 0.14251 0.45824 0.33482 0.60742 0.42774 0.14959 0.0929 0.39015 0.22786 0.53516 0.30077 0.14502 0.0733 0.4066 0.18949 0.58203 0.25782 0.17585 0.0684 0.49592 0.17184 0.71094 0.22851 0.21502 0.0563 0.61895 0.13131 0.89648 0.16797 0.35794 0.0476 0.67412 0.0609 1.0879 0.045 0.34086-0.0134 0.76562-0.0593 1.0215-0.11133 0.24086-0.0488 0.64284-0.1569 0.89454-0.24024 0.25127-0.0833 0.63154-0.24042 0.8457-0.3496 0.21418-0.10918 0.5456-0.30036 0.73437-0.42579 0.18834-0.12584 0.50549-0.37269 0.70508-0.54687 0.19919-0.17461 0.48698-0.46004 0.63867-0.63672 0.15209-0.17668 0.38871-0.491 0.52539-0.69726 0.13667-0.20627 0.33262-0.54233 0.43555-0.7461 0.10251-0.20418 0.25736-0.58766 0.3457-0.85351 0.08834-0.26628 0.19001-0.62521 0.22461-0.79688 0.03458-0.17209 0.08424-0.51742 0.11133-0.76953 0.02958-0.27544 0.03867-0.64968 0.02148-0.93555-0.01539-0.26126-0.05606-0.63492-0.08984-0.83203-0.03378-0.19668-0.09983-0.49824-0.14648-0.66992-0.04627-0.17126-0.15804-0.50045-0.24804-0.73047-0.09004-0.23003-0.25945-0.58517-0.37696-0.79101-0.1171-0.20627-0.31738-0.51583-0.44531-0.68751-0.12793-0.17209-0.34716-0.44139-0.48633-0.59765-0.13877-0.15626-0.41044-0.41715-0.60546-0.58008-0.1946-0.16293-0.51047-0.39619-0.69923-0.51953-0.18877-0.12335-0.53452-0.31689-0.76953-0.42774-0.23502-0.11125-0.57191-0.24914-0.74609-0.30664-0.17459-0.0574-0.4923-0.14236-0.70899-0.18945-0.21626-0.0467-0.59878-0.10514-0.84961-0.12891-0.25085-0.0238-0.55928-0.0405-0.68555-0.0371zm0.25 3.0176c0.21751 0.01 0.55134 0.0558 0.74219 0.10155 0.19043 0.0459 0.48288 0.14711 0.65039 0.22461 0.16752 0.077 0.42406 0.22156 0.57032 0.32032 0.14626 0.0987 0.38863 0.30269 0.53906 0.45313 0.15043 0.15042 0.35084 0.38592 0.44335 0.52343 0.09253 0.13751 0.2144 0.34439 0.27148 0.45899 0.05746 0.11459 0.14461 0.3254 0.19336 0.46874 0.04916 0.14335 0.12112 0.43481 0.15821 0.64648 0.04667 0.26752 0.05956 0.50795 0.04297 0.78712-0.01289 0.22128-0.06455 0.55875-0.11328 0.75-0.04877 0.19168-0.16041 0.50363-0.25 0.69531-0.08964 0.19168-0.25916 0.47612-0.375 0.63281-0.11626 0.15626-0.32666 0.39372-0.46875 0.52539-0.1421 0.13169-0.38278 0.31852-0.53321 0.41602-0.15084 0.0975-0.38451 0.22557-0.51953 0.28516-0.13543 0.06-0.38607 0.1471-0.5586 0.19336-0.17251 0.0459-0.5111 0.0944-0.75195 0.10742-0.31128 0.0166-0.54906 0.004-0.82618-0.045-0.21418-0.0375-0.52879-0.1232-0.69922-0.18945-0.17085-0.0662-0.44562-0.19937-0.60938-0.29688-0.16377-0.0975-0.45397-0.32864-0.64648-0.51367-0.19293-0.185-0.44259-0.47605-0.55468-0.64648-0.11168-0.17085-0.26344-0.45123-0.33594-0.625-0.07215-0.17334-0.16748-0.49301-0.2129-0.71094-0.06545-0.31711-0.07724-0.50082-0.06056-0.91797 0.01339-0.32961 0.04996-0.62789 0.10157-0.81249 0.04457-0.16043 0.12916-0.40758 0.1875-0.54884 0.05796-0.14126 0.19482-0.39344 0.30274-0.56054 0.10833-0.16709 0.31032-0.42322 0.45116-0.57031 0.14085-0.14668 0.36836-0.34738 0.50587-0.44531 0.13751-0.0979 0.38365-0.24339 0.54492-0.32423 0.16168-0.0808 0.42508-0.18756 0.58594-0.23632 0.16084-0.0488 0.41303-0.10612 0.56055-0.12696 0.14751-0.0208 0.44655-0.0295 0.66406-0.0195z"
     fill="#FFFFFF" /></svg>