<?xml version="1.0" encoding="UTF-8" standalone="no"?>
<svg
   xmlns:dc="http://purl.org/dc/elements/1.1/"
   xmlns:cc="http://creativecommons.org/ns#"
   xmlns:rdf="http://www.w3.org/1999/02/22-rdf-syntax-ns#"
   xmlns:svg="http://www.w3.org/2000/svg"
   xmlns="http://www.w3.org/2000/svg"
   id="svg111"
   xml:space="preserve"
   viewBox="0 0 1024 1024"
   y="0px"
   x="0px"
   version="1.1"><metadata
     id="metadata117"><rdf:RDF><cc:Work
         rdf:about=""><dc:format>image/svg+xml</dc:format><dc:type
           rdf:resource="http://purl.org/dc/dcmitype/StillImage" /></cc:Work></rdf:RDF></metadata><defs
     id="defs115" /><style
     id="style2">
.bubbles circle {
  stroke: #A174CE;
  fill: none;
}
.bubbles &gt; g &gt; g:nth-of-type(3n) circle {
  stroke: #7649A3;
}
.bubbles &gt; g &gt; g:nth-of-type(4n) circle {
  stroke: #592B88;
}

.bubbles-large {
  overflow: visible;
}
.bubbles-large &gt; g {
  -webkit-transform: translateY(1500px);
          transform: translateY(1500px);
  opacity: 0;
  will-change: transform, opacity;
}
.bubbles-large g:nth-of-type(1) {
  -webkit-animation: up 6.5s infinite;
          animation: up 6.5s infinite;
}
.bubbles-large g:nth-of-type(1) g {
  -webkit-transform: translateX(350px);
          transform: translateX(350px);
}
.bubbles-large g:nth-of-type(1) circle {
  -webkit-animation: wobble 3s infinite ease-in-out;
          animation: wobble 3s infinite ease-in-out;
}
.bubbles-large g:nth-of-type(2) {
  -webkit-animation: up 5.25s 250ms infinite;
          animation: up 5.25s 250ms infinite;
}
.bubbles-large g:nth-of-type(2) g {
  -webkit-transform: translateX(450px);
          transform: translateX(450px);
}
.bubbles-large g:nth-of-type(2) circle {
  -webkit-animation: wobble 3s infinite ease-in-out;
          animation: wobble 3s infinite ease-in-out;
}
.bubbles-large g:nth-of-type(3) {
  -webkit-animation: up 6s 750ms infinite;
          animation: up 6s 750ms infinite;
}
.bubbles-large g:nth-of-type(3) g {
  -webkit-transform: translateX(700px);
          transform: translateX(700px);
}
.bubbles-large g:nth-of-type(3) circle {
  -webkit-animation: wobble 3s infinite ease-in-out;
          animation: wobble 3s infinite ease-in-out;
}
.bubbles-large g:nth-of-type(4) {
  -webkit-animation: up 5.5s 1.5s infinite;
          animation: up 5.5s 1.5s infinite;
}
.bubbles-large g:nth-of-type(4) g {
  -webkit-transform: translateX(500px);
          transform: translateX(500px);
}
.bubbles-large g:nth-of-type(4) circle {
  -webkit-animation: wobble 3s infinite ease-in-out;
          animation: wobble 3s infinite ease-in-out;
}
.bubbles-large g:nth-of-type(5) {
  -webkit-animation: up 6.5s 4s infinite;
          animation: up 6.5s 4s infinite;
}
.bubbles-large g:nth-of-type(5) g {
  -webkit-transform: translateX(675px);
          transform: translateX(675px);
}
.bubbles-large g:nth-of-type(5) circle {
  -webkit-animation: wobble 3s infinite ease-in-out;
          animation: wobble 3s infinite ease-in-out;
}

.bubbles-small {
  overflow: visible;
}
.bubbles-small &gt; g {
  -webkit-transform: translateY(1400px);
          transform: translateY(1400px);
  opacity: 0;
  will-change: transform, opacity;
}
.bubbles-small g circle {
  -webkit-transform: scale(0);
          transform: scale(0);
}
.bubbles-small g:nth-of-type(1) {
  -webkit-animation: up 5.25s infinite;
          animation: up 5.25s infinite;
}
.bubbles-small g:nth-of-type(1) g {
  -webkit-transform: translateX(350px);
          transform: translateX(350px);
}
.bubbles-small g:nth-of-type(1) circle {
  -webkit-animation: wobble 3s infinite ease-in-out;
          animation: wobble 3s infinite ease-in-out;
}
.bubbles-small g:nth-of-type(2) {
  -webkit-animation: up 5.75s infinite;
          animation: up 5.75s infinite;
}
.bubbles-small g:nth-of-type(2) g {
  -webkit-transform: translateX(750px);
          transform: translateX(750px);
}
.bubbles-small g:nth-of-type(2) circle {
  -webkit-animation: wobble 3s infinite ease-in-out;
          animation: wobble 3s infinite ease-in-out;
}
.bubbles-small g:nth-of-type(3) {
  -webkit-animation: up 5.25s 250ms infinite;
          animation: up 5.25s 250ms infinite;
}
.bubbles-small g:nth-of-type(3) g {
  -webkit-transform: translateX(350px);
          transform: translateX(350px);
}
.bubbles-small g:nth-of-type(3) circle {
  -webkit-animation: wobble 3s 250ms infinite ease-in-out;
          animation: wobble 3s 250ms infinite ease-in-out;
}
.bubbles-small g:nth-of-type(4) {
  -webkit-animation: up 5.75s 325ms infinite;
          animation: up 5.75s 325ms infinite;
}
.bubbles-small g:nth-of-type(4) g {
  -webkit-transform: translateX(180px);
          transform: translateX(180px);
}
.bubbles-small g:nth-of-type(4) circle {
  -webkit-animation: wobble 3s 325ms infinite ease-in-out;
          animation: wobble 3s 325ms infinite ease-in-out;
}
.bubbles-small g:nth-of-type(5) {
  -webkit-animation: up 6s 125ms infinite;
          animation: up 6s 125ms infinite;
}
.bubbles-small g:nth-of-type(5) g {
  -webkit-transform: translateX(350px);
          transform: translateX(350px);
}
.bubbles-small g:nth-of-type(5) circle {
  -webkit-animation: wobble 3s 250ms infinite ease-in-out;
          animation: wobble 3s 250ms infinite ease-in-out;
}
.bubbles-small g:nth-of-type(6) {
  -webkit-animation: up 5.13s 250ms infinite;
          animation: up 5.13s 250ms infinite;
}
.bubbles-small g:nth-of-type(6) g {
  -webkit-transform: translateX(650px);
          transform: translateX(650px);
}
.bubbles-small g:nth-of-type(6) circle {
  -webkit-animation: wobble 3s 125ms infinite ease-in-out;
          animation: wobble 3s 125ms infinite ease-in-out;
}
.bubbles-small g:nth-of-type(7) {
  -webkit-animation: up 6.25s 350ms infinite;
          animation: up 6.25s 350ms infinite;
}
.bubbles-small g:nth-of-type(7) g {
  -webkit-transform: translateX(480px);
          transform: translateX(480px);
}
.bubbles-small g:nth-of-type(7) circle {
  -webkit-animation: wobble 3s 325ms infinite ease-in-out;
          animation: wobble 3s 325ms infinite ease-in-out;
}
.bubbles-small g:nth-of-type(8) {
  -webkit-animation: up 7s 200ms infinite;
          animation: up 7s 200ms infinite;
}
.bubbles-small g:nth-of-type(8) g {
  -webkit-transform: translateX(330px);
          transform: translateX(330px);
}
.bubbles-small g:nth-of-type(8) circle {
  -webkit-animation: wobble 3s 325ms infinite ease-in-out;
          animation: wobble 3s 325ms infinite ease-in-out;
}
.bubbles-small g:nth-of-type(9) {
  -webkit-animation: up 6.25s 233ms infinite;
          animation: up 6.25s 233ms infinite;
}
.bubbles-small g:nth-of-type(9) g {
  -webkit-transform: translateX(230px);
          transform: translateX(230px);
}
.bubbles-small g:nth-of-type(9) circle {
  -webkit-animation: wobble 3s 275ms infinite ease-in-out;
          animation: wobble 3s 275ms infinite ease-in-out;
}
.bubbles-small g:nth-of-type(10) {
  -webkit-animation: up 6s 900ms infinite;
          animation: up 6s 900ms infinite;
}
.bubbles-small g:nth-of-type(10) g {
  -webkit-transform: translateX(730px);
          transform: translateX(730px);
}
.bubbles-small g:nth-of-type(10) circle {
  -webkit-animation: wobble 2s 905ms infinite ease-in-out;
          animation: wobble 2s 905ms infinite ease-in-out;
}

@-webkit-keyframes wobble {
  33% {
    -webkit-transform: translateX(-50px);
            transform: translateX(-50px);
  }
  66% {
    -webkit-transform: translateX(50px);
            transform: translateX(50px);
  }
}

@keyframes wobble {
  33% {
    -webkit-transform: translateX(-50px);
            transform: translateX(-50px);
  }
  66% {
    -webkit-transform: translateX(50px);
            transform: translateX(50px);
  }
}

@-webkit-keyframes up {
  0% {
    opacity: 0;
  }
  10%, 90% {
    opacity: 1;
  }
  100% {
    opacity: 0;
    -webkit-transform: translateY(-768px);
            transform: translateY(-768px);
  }
}
@keyframes up {
  0% {
    opacity: 0;
  }
  10%, 90% {
    opacity: 1;
  }
  100% {
    opacity: 0;
    -webkit-transform: translateY(-768px);
            transform: translateY(-768px);
  }
}

</style><g
     id="g98"
     transform="translate(150)"
     class="bubbles"><g
       style="overflow:visible;stroke-width:7"
       id="g34"
       class="bubbles-large"><g
         style="opacity:0"
         id="g8"><g
           id="g6"
           transform="translate(10,940)"><path
             id="circle4"
             d="M 70,35 A 35,35 0 0 1 35,70 35,35 0 0 1 0,35 35,35 0 0 1 35,0 35,35 0 0 1 70,35 Z"
             style="fill:none;stroke:#a174ce" /></g></g><g
         style="opacity:0"
         id="g14"><g
           id="g12"
           transform="translate(373,940)"><path
             id="circle10"
             d="M 70,35 A 35,35 0 0 1 35,70 35,35 0 0 1 0,35 35,35 0 0 1 35,0 35,35 0 0 1 70,35 Z"
             style="fill:none;stroke:#a174ce" /></g></g><g
         style="opacity:0"
         id="g20"><g
           id="g18"
           transform="translate(408,940)"><path
             id="circle16"
             d="M 70,35 A 35,35 0 0 1 35,70 35,35 0 0 1 0,35 35,35 0 0 1 35,0 35,35 0 0 1 70,35 Z"
             style="fill:none;stroke:#a174ce" /></g></g><g
         style="opacity:0"
         id="g26"><g
           id="g24"
           transform="translate(621,940)"><path
             id="circle22"
             d="M 70,35 A 35,35 0 0 1 35,70 35,35 0 0 1 0,35 35,35 0 0 1 35,0 35,35 0 0 1 70,35 Z"
             style="fill:none;stroke:#a174ce" /></g></g><g
         style="opacity:0"
         id="g32"><g
           id="g30"
           transform="translate(179,940)"><path
             id="circle28"
             d="M 70,35 A 35,35 0 0 1 35,70 35,35 0 0 1 0,35 35,35 0 0 1 35,0 35,35 0 0 1 70,35 Z"
             style="fill:none;stroke:#a174ce" /></g></g></g><g
       style="overflow:visible;stroke-width:4"
       id="g96"
       class="bubbles-small"><g
         style="opacity:0"
         id="g40"><g
           id="g38"
           transform="translate(147,984)"><path
             id="circle36"
             d="M 30,15 A 15,15 0 0 1 15,30 15,15 0 0 1 0,15 15,15 0 0 1 15,0 15,15 0 0 1 30,15 Z"
             style="fill:none;stroke:#a174ce" /></g></g><g
         style="opacity:0"
         id="g46"><g
           id="g44"
           transform="translate(255,984)"><path
             id="circle42"
             d="M 30,15 A 15,15 0 0 1 15,30 15,15 0 0 1 0,15 15,15 0 0 1 15,0 15,15 0 0 1 30,15 Z"
             style="fill:none;stroke:#a174ce" /></g></g><g
         style="opacity:0"
         id="g52"><g
           id="g50"
           transform="translate(573,984)"><path
             id="circle48"
             d="M 30,15 A 15,15 0 0 1 15,30 15,15 0 0 1 0,15 15,15 0 0 1 15,0 15,15 0 0 1 30,15 Z"
             style="fill:none;stroke:#a174ce" /></g></g><g
         style="opacity:0"
         id="g58"><g
           id="g56"
           transform="translate(429,984)"><path
             id="circle54"
             d="M 30,15 A 15,15 0 0 1 15,30 15,15 0 0 1 0,15 15,15 0 0 1 15,0 15,15 0 0 1 30,15 Z"
             style="fill:none;stroke:#a174ce" /></g></g><g
         style="opacity:0"
         id="g64"><g
           id="g62"
           transform="translate(91,984)"><path
             id="circle60"
             d="M 30,15 A 15,15 0 0 1 15,30 15,15 0 0 1 0,15 15,15 0 0 1 15,0 15,15 0 0 1 30,15 Z"
             style="fill:none;stroke:#a174ce" /></g></g><g
         style="opacity:0"
         id="g70"><g
           id="g68"
           transform="translate(640,984)"><path
             id="circle66"
             d="M 30,15 A 15,15 0 0 1 15,30 15,15 0 0 1 0,15 15,15 0 0 1 15,0 15,15 0 0 1 30,15 Z"
             style="fill:none;stroke:#a174ce" /></g></g><g
         style="opacity:0"
         id="g76"><g
           id="g74"
           transform="translate(321,984)"><path
             id="circle72"
             d="M 30,15 A 15,15 0 0 1 15,30 15,15 0 0 1 0,15 15,15 0 0 1 15,0 15,15 0 0 1 30,15 Z"
             style="fill:none;stroke:#a174ce" /></g></g><g
         style="opacity:0"
         id="g82"><g
           id="g80"
           transform="translate(376,984)"><path
             id="circle78"
             d="M 30,15 A 15,15 0 0 1 15,30 15,15 0 0 1 0,15 15,15 0 0 1 15,0 15,15 0 0 1 30,15 Z"
             style="fill:none;stroke:#a174ce" /></g></g><g
         style="opacity:0"
         id="g88"><g
           id="g86"
           transform="translate(376,984)"><path
             id="circle84"
             d="M 30,15 A 15,15 0 0 1 15,30 15,15 0 0 1 0,15 15,15 0 0 1 15,0 15,15 0 0 1 30,15 Z"
             style="fill:none;stroke:#a174ce" /></g></g><g
         style="opacity:0"
         id="g94"><g
           id="g92"
           transform="translate(497,984)"><path
             id="circle90"
             d="M 30,15 A 15,15 0 0 1 15,30 15,15 0 0 1 0,15 15,15 0 0 1 15,0 15,15 0 0 1 30,15 Z"
             style="fill:none;stroke:#a174ce" /></g></g></g></g><g
     transform="translate(0,128)"
     id="fade"><g
       transform="matrix(1.1078,0,0,1.1078,-55.221,-49.607)"
       id="logo-group"><path
         id="polygon12"
         d="M 110.22,124 89.871,96.208 V 124 H 78.494 V 75.998 H 89.007 L 121.51,120.02 V 124 Z"
         style="font-variant-ligatures:normal;stroke-width:0;stroke-miterlimit:2"
         transform="matrix(1.67,0,0,1.67,149.85,300.32)" /><path
         id="rect14"
         d="m 333.76999,427.23999 h 19 v 31.986 h -19 z"
         style="font-variant-ligatures:normal;fill:#592b88;stroke-width:0;stroke-miterlimit:2" /><path
         stroke-miterlimit="2"
         class="c1"
         d="m 364.77,507.41 h 56.757 V 490.495 H 364.77 Z m 0,-31.265 h 56.757 V 459.23 H 364.77 Z m 0,-48.901 v 16.915 h 56.757 v -16.915 z"
         style="font-variant-ligatures:normal;stroke-width:0;stroke-miterlimit:2"
         id="path17" /><path
         stroke-miterlimit="2"
         class="c1"
         d="m 500.44,485.72 c 0,12.026 -8.0972,21.645 -23.328,21.645 h -43.53 v -80.24 h 42.247 c 15.232,0 23.088,9.7803 23.088,20.443 0,10.101 -6.3326,16.835 -13.869,18.438 8.4984,1.3626 15.392,9.6196 15.392,19.721 z m -47.859,-28.379 h 19.481 c 4.4881,0 7.4547,-2.6452 7.4547,-6.7338 0,-4.0886 -2.9665,-6.8146 -7.4547,-6.8146 h -19.481 z m 28.458,25.974 c 0,-4.4889 -3.2862,-7.4555 -8.4169,-7.4555 h -20.042 v 14.831 h 20.042 c 3.2062,0 8.4168,-0.9622 8.4168,-7.3756 z"
         style="font-variant-ligatures:normal;stroke-width:0;stroke-miterlimit:2"
         id="path20" /><path
         stroke-miterlimit="2"
         class="c1"
         d="m 565.56,427.12 h 19.321 v 48.101 c 0,19.962 -11.705,33.589 -36.156,33.589 -24.45,0 -36.235,-13.707 -36.235,-33.429 v -48.18 h 19.24 v 47.619 c 0,10.742 6.2527,16.915 16.995,16.915 10.663,0 16.835,-6.1728 16.835,-16.915 z"
         style="font-variant-ligatures:normal;stroke-width:0;stroke-miterlimit:2"
         id="path23" /><path
         stroke-miterlimit="2"
         class="c1"
         d="m 647.79,490.49 v 16.915 h -50.986 v -80.167 h 19 v 63.251 z"
         style="font-variant-ligatures:normal;stroke-width:0;stroke-miterlimit:2"
         id="path26" /><path
         id="polygon29"
         d="M 106.43,75.998 H 93.615 L 75.038,124 h 12.913 l 12.099,-34.417 6.05,17.277 6,17.14 h 12.86 z"
         style="font-variant-ligatures:normal;stroke-width:0;stroke-miterlimit:2"
         transform="matrix(1.67,0,0,1.67,534.42,300.32)" /><path
         id="polygon31"
         d="M 100.03,124 92.408,112.2 H 107.59 Z"
         style="font-variant-ligatures:normal;fill:#592b88;stroke-width:0;stroke-miterlimit:2"
         transform="matrix(1.67,0,0,1.67,534.42,300.32)" /><path
         style="fill:#592b88;stroke-width:0.75"
         d="m 536.01,274.01 c -0.26854,0.002 -0.65803,0.0292 -0.86572,0.0596 -0.20809,0.0305 -0.53626,0.0955 -0.72976,0.1447 -0.19348,0.0492 -0.53959,0.16305 -0.76897,0.25271 -0.22935,0.0897 -0.58213,0.25603 -0.78435,0.36946 -0.20224,0.11384 -0.51833,0.31567 -0.70306,0.44827 -0.18431,0.13302 -0.48997,0.38615 -0.67846,0.56254 -0.18849,0.17639 -0.44703,0.44869 -0.57421,0.60506 -0.12677,0.15638 -0.32859,0.43077 -0.44786,0.60924 -0.11967,0.17889 -0.31775,0.53543 -0.44076,0.7923 -0.12302,0.25729 -0.27064,0.6084 -0.32818,0.7806 -0.0571,0.17223 -0.14137,0.48206 -0.18724,0.68806 -0.0454,0.20599 -0.10258,0.55711 -0.12718,0.77977 -0.0246,0.22268 -0.0446,0.5471 -0.0446,0.72099 0,0.17389 0.02,0.49831 0.0442,0.72099 0.0241,0.22268 0.083,0.57379 0.13051,0.78023 0.0476,0.20641 0.15137,0.56295 0.23103,0.7923 0.0792,0.22934 0.23601,0.5963 0.3486,0.81562 0.11218,0.21935 0.30275,0.54168 0.42326,0.71641 0.12093,0.17472 0.35862,0.47997 0.52917,0.67846 0.17056,0.19807 0.48039,0.5029 0.68806,0.67762 0.20807,0.17431 0.52833,0.41491 0.71181,0.53376 0.18348,0.11927 0.48539,0.29273 0.67054,0.38572 0.18557,0.0926 0.525,0.23394 0.7548,0.31401 0.22935,0.0801 0.59548,0.1839 0.81397,0.23101 0.2181,0.0475 0.61967,0.10717 0.89281,0.13261 0.27271,0.0258 0.67428,0.0346 0.89197,0.02 0.21809,-0.015 0.60757,-0.0638 0.8661,-0.10884 0.25854,-0.0446 0.66971,-0.14846 0.91365,-0.22977 0.24436,-0.0817 0.63301,-0.24353 0.86445,-0.35987 0.23144,-0.11593 0.57087,-0.31067 0.75435,-0.43327 0.18348,-0.12218 0.49248,-0.35945 0.68722,-0.52708 0.19431,-0.16763 0.49039,-0.4637 0.65803,-0.65803 0.16763,-0.19473 0.4049,-0.50374 0.52708,-0.68721 0.1226,-0.18349 0.31734,-0.52292 0.43326,-0.75436 0.11635,-0.23143 0.27647,-0.6159 0.35653,-0.85485 0.0797,-0.23852 0.1739,-0.57504 0.20934,-0.74685 0.0355,-0.17222 0.0863,-0.49122 0.11343,-0.70889 0.0296,-0.24187 0.0392,-0.63968 0.0241,-1.0217 -0.015,-0.38113 -0.0588,-0.78854 -0.11176,-1.0425 -0.0479,-0.22935 -0.15221,-0.61133 -0.23102,-0.84863 -0.0792,-0.23769 -0.22768,-0.60631 -0.33027,-0.81937 -0.10216,-0.21351 -0.3215,-0.59131 -0.48746,-0.84023 -0.20976,-0.31442 -0.46121,-0.61257 -0.82486,-0.97702 -0.37196,-0.37239 -0.65469,-0.61174 -0.97747,-0.82605 -0.24979,-0.16555 -0.58256,-0.36613 -0.73934,-0.44494 -0.1568,-0.0788 -0.42826,-0.20058 -0.60299,-0.2698 -0.17472,-0.0696 -0.49623,-0.17264 -0.71432,-0.22935 -0.21809,-0.0567 -0.61132,-0.13136 -0.8736,-0.16555 -0.26229,-0.0346 -0.6968,-0.0605 -0.96495,-0.058 z m 0.0592,3.0037 c 0.18599,-0.003 0.50249,0.0229 0.70306,0.0575 0.20058,0.035 0.50415,0.11802 0.67429,0.1839 0.17014,0.0663 0.44494,0.19974 0.61007,0.2969 0.19391,0.11385 0.44953,0.32652 0.71808,0.59798 0.28939,0.29232 0.47329,0.52125 0.60048,0.74726 0.10091,0.17931 0.23477,0.47955 0.29773,0.6672 0.063,0.18807 0.13803,0.48789 0.1668,0.66678 0.0326,0.20391 0.0434,0.5004 0.028,0.7923 -0.0163,0.32192 -0.058,0.58297 -0.13303,0.83985 -0.0601,0.20475 -0.1939,0.53627 -0.29732,0.73643 -0.10341,0.20016 -0.29523,0.49164 -0.42618,0.64801 -0.13135,0.15596 -0.36945,0.39365 -0.52959,0.52834 -0.16512,0.13886 -0.47037,0.33277 -0.70764,0.44994 -0.22935,0.11301 -0.56712,0.24478 -0.7506,0.29315 -0.25271,0.0663 -0.46496,0.088 -0.8757,0.0897 -0.42075,0.002 -0.62425,-0.0179 -0.90908,-0.0876 -0.20182,-0.0496 -0.50457,-0.15387 -0.6722,-0.23144 -0.16805,-0.0776 -0.42493,-0.22184 -0.57129,-0.32067 -0.14637,-0.0988 -0.38948,-0.30274 -0.54002,-0.45327 -0.15054,-0.15055 -0.35445,-0.39365 -0.45327,-0.54002 -0.0988,-0.14637 -0.24186,-0.40074 -0.31817,-0.56546 -0.0763,-0.16513 -0.18099,-0.45828 -0.23311,-0.65177 -0.0784,-0.2919 -0.0942,-0.45411 -0.0922,-0.95617 0.002,-0.48498 0.02,-0.67054 0.0926,-0.93825 0.0497,-0.18348 0.16596,-0.49164 0.25854,-0.68513 0.0926,-0.19308 0.24936,-0.46538 0.34944,-0.60466 0.0997,-0.13927 0.3015,-0.36821 0.44828,-0.50915 0.1472,-0.14095 0.39824,-0.34028 0.55753,-0.44328 0.15929,-0.10299 0.42367,-0.24394 0.58713,-0.31317 0.16347,-0.0696 0.42618,-0.15595 0.5838,-0.19224 0.15763,-0.0363 0.3336,-0.073 0.39073,-0.0817 0.0575,-0.009 0.25646,-0.0184 0.44286,-0.0213 z m -77.152,1.0133 c -0.68179,-0.0134 -0.91028,-0.002 -1.251,0.0605 -0.22935,0.0421 -0.55753,0.11551 -0.72975,0.16305 -0.1718,0.0475 -0.4954,0.16097 -0.71849,0.25229 -0.22268,0.0909 -0.60132,0.2823 -0.84068,0.42491 -0.23935,0.14262 -0.59172,0.38531 -0.7827,0.5396 -0.1914,0.15429 -0.51666,0.45745 -0.72307,0.67388 -0.20642,0.21641 -0.48998,0.56169 -0.63009,0.76725 -0.14012,0.20599 -0.33069,0.51457 -0.42326,0.68679 -0.0926,0.1718 -0.23477,0.48164 -0.31609,0.68805 -0.0813,0.20642 -0.19599,0.56087 -0.25479,0.78773 -0.0588,0.22684 -0.13719,0.63967 -0.17388,0.9174 -0.0475,0.35695 -0.0605,0.67095 -0.0442,1.0705 0.0146,0.35445 0.0626,0.76103 0.12885,1.0888 0.0584,0.28731 0.16472,0.68971 0.23603,0.89362 0.0717,0.20433 0.21225,0.54293 0.31275,0.7527 0.10008,0.20976 0.31775,0.58506 0.4833,0.834 0.21433,0.32151 0.4587,0.61007 0.8457,0.99705 0.37655,0.37613 0.67345,0.62967 0.96157,0.81983 0.22935,0.15178 0.58589,0.35987 0.7923,0.46287 0.20642,0.10299 0.56921,0.25437 0.80648,0.33694 0.23727,0.0826 0.61257,0.1889 0.834,0.23602 0.26813,0.0575 0.63509,0.0942 1.0971,0.11008 0.44535,0.0154 0.84232,0.005 1.105,-0.0275 0.22601,-0.0284 0.62049,-0.10425 0.87652,-0.16888 0.25646,-0.0646 0.66261,-0.20058 0.90278,-0.30233 0.24019,-0.10174 0.60256,-0.28481 0.80565,-0.40658 0.2035,-0.12218 0.5104,-0.32859 0.68221,-0.45912 0.17222,-0.13052 0.47872,-0.40406 0.68138,-0.60798 0.20307,-0.20391 0.46787,-0.50207 0.5888,-0.66261 0.12051,-0.16097 0.30024,-0.42368 0.39907,-0.58422 0.0984,-0.16055 0.25812,-0.46079 0.35445,-0.6672 0.0959,-0.20642 0.2331,-0.55378 0.30399,-0.77145 0.0713,-0.2181 0.17139,-0.5934 0.22267,-0.834 0.0776,-0.36654 0.093,-0.57338 0.0947,-1.2718 0.002,-0.70807 -0.0125,-0.90533 -0.0934,-1.3064 -0.0521,-0.25979 -0.1522,-0.64426 -0.22184,-0.85485 -0.0696,-0.21016 -0.21975,-0.57879 -0.3336,-0.819 -0.11384,-0.24019 -0.32651,-0.61549 -0.47329,-0.834 -0.14636,-0.2185 -0.39699,-0.54502 -0.55628,-0.72516 -0.15971,-0.18014 -0.43785,-0.45786 -0.61799,-0.61633 -0.18075,-0.15975 -0.48825,-0.39599 -0.6825,-0.5265 -0.19474,-0.13052 -0.55127,-0.33443 -0.7923,-0.45369 -0.24061,-0.11885 -0.61133,-0.27397 -0.82313,-0.34445 -0.21183,-0.0701 -0.56837,-0.16722 -0.79229,-0.21601 -0.31484,-0.068 -0.59632,-0.0913 -1.241,-0.10424 z m -0.021,3.0015 c 0.45787,0.0117 0.67846,0.0371 0.90945,0.10426 0.16763,0.0488 0.47038,0.1718 0.67262,0.27355 0.20183,0.10133 0.51125,0.30024 0.6868,0.44119 0.17556,0.14136 0.43201,0.40032 0.57046,0.57588 0.13803,0.17514 0.33402,0.48747 0.43534,0.69388 0.10133,0.20642 0.22435,0.52542 0.27272,0.7089 0.0555,0.20975 0.0963,0.51959 0.10925,0.834 0.0167,0.39782 0.004,0.58172 -0.0609,0.897 -0.0455,0.21809 -0.14304,0.54252 -0.21727,0.72099 -0.0742,0.17848 -0.22684,0.46538 -0.33943,0.63718 -0.11217,0.17222 -0.33068,0.43951 -0.48538,0.5938 -0.15472,0.15472 -0.43077,0.37947 -0.61383,0.49957 -0.18264,0.11968 -0.47913,0.2748 -0.65886,0.34403 -0.17973,0.0692 -0.47038,0.15554 -0.64635,0.19182 -0.24019,0.05 -0.4612,0.0609 -0.88402,0.0446 -0.39698,-0.015 -0.65386,-0.048 -0.86858,-0.11008 -0.16763,-0.0488 -0.4687,-0.17055 -0.66886,-0.27105 -0.20016,-0.10091 -0.46621,-0.26354 -0.59172,-0.36196 -0.1251,-0.0984 -0.32693,-0.28189 -0.44828,-0.40783 -0.12135,-0.12552 -0.30649,-0.35736 -0.41158,-0.51541 -0.10508,-0.15804 -0.25145,-0.4316 -0.32567,-0.60799 -0.0738,-0.17597 -0.16972,-0.4612 -0.21351,-0.63301 -0.0588,-0.2331 -0.0784,-0.45619 -0.0771,-0.8757 0.001,-0.38197 0.0246,-0.65302 0.0721,-0.84397 0.0384,-0.15429 0.12635,-0.42701 0.19516,-0.60548 0.0688,-0.17848 0.21767,-0.46496 0.33068,-0.63635 0.11301,-0.1718 0.32443,-0.43159 0.46955,-0.57754 0.14511,-0.14637 0.37946,-0.34862 0.52083,-0.44911 0.14135,-0.10091 0.41366,-0.25646 0.60507,-0.34528 0.1914,-0.0888 0.48872,-0.1939 0.66052,-0.23268 0.17222,-0.0392 0.33151,-0.078 0.35445,-0.0867 0.0229,-0.009 0.314,-0.009 0.64635,-4.2e-4 z m 26.125,2.3727 c -0.30816,-0.01 -0.46579,0.004 -0.60423,0.0542 -0.10342,0.0375 -0.26688,0.1226 -0.36362,0.18932 -0.0972,0.0667 -0.2231,0.18223 -0.28023,0.25688 -0.0567,0.0751 -0.57504,0.99869 -1.1513,2.0529 -0.57629,1.0542 -1.1426,2.0758 -1.259,2.271 -0.11593,0.19474 -0.36113,0.57963 -0.54461,0.85485 -0.18347,0.27522 -0.47913,0.69389 -0.65677,0.92993 -0.17765,0.23644 -0.52417,0.6647 -0.77017,0.9516 -0.24561,0.28731 -0.69556,0.77062 -0.99916,1.0742 -0.30399,0.30399 -0.76605,0.73642 -1.0275,0.96119 -0.26104,0.22518 -0.7189,0.59257 -1.0171,0.81645 -0.29815,0.22352 -0.78608,0.56629 -1.0842,0.76103 -0.29816,0.19474 -0.84233,0.5225 -1.2093,0.72808 -0.36696,0.20559 -1.352,0.7456 -2.1892,1.2002 -1.3111,0.71182 -1.5546,0.85906 -1.756,1.0625 -0.16263,0.16388 -0.26104,0.309 -0.32317,0.47455 -0.0617,0.16471 -0.0892,0.3336 -0.0892,0.54793 0,0.21518 0.0275,0.38322 0.0901,0.55086 0.0667,0.17806 0.15721,0.30733 0.34569,0.49164 0.2256,0.22143 0.48372,0.37447 2.2502,1.3344 1.0971,0.59631 2.2731,1.2656 2.6129,1.4875 0.33986,0.22184 0.81106,0.54877 1.0475,0.72641 0.23644,0.17764 0.58546,0.45244 0.7752,0.61133 l 0.34569,0.28814 -0.1276,0.15304 c -0.0701,0.0842 -0.42284,0.51875 -0.78353,0.96623 -0.36113,0.44702 -0.88657,1.1276 -1.1684,1.5121 -0.28147,0.38448 -0.74351,1.0412 -1.0267,1.4595 -0.28273,0.41825 -0.6893,1.042 -0.90367,1.3861 -0.21393,0.34402 -0.61967,1.0283 -0.90195,1.5204 -0.2819,0.49206 -0.76395,1.3928 -1.0717,2.0016 -0.30733,0.60882 -0.71807,1.4632 -0.91283,1.899 -0.19432,0.43576 -0.46036,1.0529 -0.59047,1.3715 -0.13052,0.31817 -0.36488,0.91868 -0.52083,1.3344 -0.15596,0.41534 -0.43368,1.2152 -0.61716,1.7768 -0.18348,0.56212 -0.40449,1.2748 -0.49081,1.5846 -0.0863,0.30983 -0.17764,0.58463 -0.20307,0.61132 -0.025,0.0271 -0.27105,0.10842 -0.54627,0.18182 -0.27522,0.073 -0.8757,0.24478 -1.3344,0.38155 -0.4587,0.13678 -1.1059,0.33402 -1.4386,0.43868 -0.33234,0.10467 -1.055,0.34987 -1.6054,0.54502 -0.55044,0.19474 -1.3852,0.50958 -1.8556,0.6989 -0.46996,0.18973 -1.1927,0.49789 -1.6055,0.68513 -0.41282,0.18723 -1.0225,0.48289 -1.3552,0.65677 -0.33234,0.17431 -0.90405,0.49582 -1.2694,0.71516 -0.36571,0.21892 -0.8724,0.54669 -1.1259,0.72766 -0.25395,0.18098 -0.63884,0.47288 -0.85613,0.64844 -0.21726,0.17556 -0.5838,0.50666 -0.8148,0.73601 -0.2306,0.22935 -0.52458,0.54835 -0.6526,0.70889 -0.12844,0.16055 -0.32693,0.43243 -0.4416,0.60465 -0.11468,0.17181 -0.28356,0.46287 -0.37572,0.64636 -0.0917,0.18347 -0.22352,0.49289 -0.2919,0.68805 -0.0688,0.19473 -0.15595,0.50415 -0.19348,0.68679 -0.038,0.18265 -0.0797,0.52042 -0.0934,0.7506 -0.0138,0.23018 -0.004,0.58797 0.0213,0.79523 0.0258,0.20767 0.0859,0.52667 0.13344,0.7089 0.048,0.18223 0.15304,0.49122 0.23352,0.68596 0.0809,0.19516 0.24603,0.52418 0.36779,0.73101 0.12135,0.20641 0.35612,0.55043 0.52125,0.7644 0.16514,0.2135 0.47413,0.56253 0.6868,0.77475 0.21225,0.21266 0.5788,0.54752 0.81398,0.74475 0.23518,0.19683 0.64426,0.51291 0.90944,0.70182 0.26522,0.18932 0.789,0.52917 1.1643,0.756 0.37572,0.22643 1.0429,0.59714 1.4836,0.82357 0.44077,0.22643 1.1484,0.56545 1.5725,0.75352 0.42409,0.18808 1.1188,0.4783 1.5429,0.6451 0.42409,0.1668 1.1938,0.45329 1.7097,0.63635 0.51625,0.18348 1.3044,0.44744 1.7514,0.58672 0.44744,0.13969 1.1296,0.34652 1.517,0.46037 0.38697,0.11342 0.71723,0.22184 0.73391,0.2406 0.0163,0.0188 0.0809,0.27814 0.14304,0.5763 0.0621,0.29815 0.20683,0.9174 0.32109,1.3761 0.11467,0.4587 0.29023,1.1246 0.39072,1.4804 0.1005,0.35528 0.28899,0.98415 0.41909,1.397 0.12969,0.41283 0.36779,1.1163 0.52917,1.5638 0.16097,0.44702 0.44744,1.1976 0.63635,1.668 0.1889,0.46996 0.47246,1.1455 0.63008,1.5012 0.15805,0.35528 0.51458,1.1059 0.79231,1.668 0.27772,0.5617 0.65802,1.2998 0.84487,1.6396 0.18682,0.33985 0.33986,0.62592 0.33986,0.63592 0,0.0101 -0.15221,0.28523 -0.33819,0.61216 -0.1864,0.32693 -0.54961,0.98827 -0.80813,1.4704 -0.25812,0.48163 -0.62884,1.1947 -0.82403,1.5846 -0.19515,0.38947 -0.51624,1.0596 -0.71348,1.4887 -0.19725,0.42909 -0.48331,1.0762 -0.63593,1.4386 -0.15263,0.36195 -0.41408,1.0246 -0.58088,1.4716 -0.16722,0.44703 -0.39866,1.1272 -0.515,1.5108 -0.11634,0.38365 -0.2673,0.91868 -0.33526,1.1884 -0.068,0.2698 -0.17014,0.72517 -0.22685,1.0121 -0.0567,0.28647 -0.13594,0.76522 -0.17597,1.0634 -0.0517,0.38321 -0.0734,0.81735 -0.073,1.4804 4.2e-4,0.77602 0.0159,1.0221 0.0888,1.4224 0.0488,0.26646 0.14761,0.6697 0.21975,0.89655 0.0721,0.22685 0.21184,0.5813 0.31067,0.78773 0.0984,0.20641 0.2969,0.54043 0.44077,0.74226 0.14386,0.20182 0.4245,0.52208 0.62341,0.71181 0.19933,0.18933 0.49206,0.43035 0.65094,0.5346 0.15888,0.10467 0.42576,0.25938 0.59339,0.34402 0.16764,0.0842 0.4954,0.21684 0.7285,0.29483 0.2331,0.0776 0.63968,0.18097 0.90323,0.22976 0.30274,0.0559 0.74226,0.0972 1.1926,0.11218 0.422,0.0142 0.93285,0.004 1.251,-0.0254 0.29607,-0.0271 0.77272,-0.0863 1.0592,-0.13219 0.28689,-0.0459 0.73725,-0.13094 1.0008,-0.18932 0.26396,-0.0588 0.74601,-0.17931 1.0721,-0.26854 0.32568,-0.0888 0.8607,-0.24937 1.1884,-0.35654 0.32777,-0.10717 0.9099,-0.314 1.294,-0.45953 0.38406,-0.14595 0.94702,-0.36988 1.251,-0.49748 0.30399,-0.12802 0.87195,-0.37572 1.2619,-0.55044 0.3899,-0.17472 1.2155,-0.5738 1.8348,-0.88695 0.61925,-0.31275 1.4937,-0.76898 1.9436,-1.0137 0.44952,-0.24478 0.83025,-0.44494 0.84607,-0.44494 0.0154,0 0.19433,0.11176 0.3974,0.24811 0.20308,0.13678 0.78856,0.49998 1.3015,0.80775 0.51291,0.30775 1.261,0.73809 1.6622,0.95618 0.40157,0.21809 1.0179,0.54043 1.3699,0.71682 0.35237,0.17598 0.90571,0.44327 1.2302,0.59381 0.32443,0.15095 0.80603,0.36737 1.0696,0.48122 0.26396,0.11384 0.80273,0.33651 1.1976,0.49497 0.3949,0.15846 0.9954,0.38906 1.3344,0.5125 0.33902,0.12385 0.99165,0.34736 1.4504,0.49706 0.4587,0.1497 1.1634,0.36696 1.5662,0.48289 0.40241,0.11551 1.1438,0.31233 1.6472,0.43702 0.50332,0.12468 1.2393,0.2944 1.6355,0.37696 0.39657,0.0826 1.0346,0.20559 1.4178,0.27272 0.38364,0.0676 1.0258,0.16972 1.427,0.22768 0.40157,0.0575 1.0675,0.14261 1.4804,0.18932 0.41282,0.0467 1.1122,0.11259 1.5546,0.1472 0.44203,0.0342 1.3336,0.0838 1.9808,0.11009 0.69056,0.028 1.6826,0.0367 2.401,0.0208 0.67346,-0.015 1.6434,-0.0546 2.1551,-0.0884 0.51166,-0.0337 1.3023,-0.10008 1.7572,-0.14678 0.45453,-0.0471 1.1643,-0.13219 1.5771,-0.18931 0.41283,-0.0575 1.0733,-0.16014 1.4678,-0.2281 0.3949,-0.0684 1.0892,-0.20016 1.5429,-0.29274 0.45411,-0.093 1.2098,-0.26271 1.6792,-0.3778 0.46913,-0.11509 1.2676,-0.32818 1.7744,-0.47413 0.50665,-0.14595 1.286,-0.38697 1.7318,-0.53501 0.44619,-0.14803 1.1926,-0.41366 1.6592,-0.58964 0.46663,-0.17597 1.1334,-0.43868 1.4812,-0.5838 0.34777,-0.1447 0.93202,-0.39865 1.2981,-0.56462 0.36612,-0.16554 1.0742,-0.5054 1.5738,-0.75562 0.49956,-0.24979 1.2039,-0.61633 1.5646,-0.81398 0.36113,-0.19807 1.0508,-0.59589 1.5325,-0.88447 0.48164,-0.28815 1.2981,-0.80693 1.814,-1.1518 0.51625,-0.34527 1.2572,-0.8619 1.6467,-1.148 0.3899,-0.28607 1.0746,-0.8136 1.522,-1.1718 0.44745,-0.3582 1.0288,-0.83693 1.2919,-1.0638 0.26313,-0.22685 0.8169,-0.72474 1.2302,-1.1063 0.41366,-0.38155 1.0813,-1.0288 1.4836,-1.4386 0.40241,-0.4095 0.94657,-0.97995 1.2093,-1.2676 0.26271,-0.28731 0.69473,-0.7752 0.95992,-1.0842 0.26522,-0.30858 0.68514,-0.81232 0.93241,-1.1197 0.24769,-0.30692 0.71723,-0.91658 1.0438,-1.3552 0.3265,-0.43827 0.80227,-1.1013 1.0575,-1.4737 0.25562,-0.37196 0.6255,-0.93157 0.82275,-1.243 0.19682,-0.31191 0.49081,-0.78607 0.65302,-1.0542 0.16179,-0.26771 0.46371,-0.78727 0.67012,-1.1542 0.20642,-0.36696 0.61341,-1.1363 0.90405,-1.7097 0.29023,-0.57337 0.68471,-1.3899 0.8757,-1.814 0.19098,-0.4245 0.48413,-1.1096 0.65094,-1.5229 0.16721,-0.41325 0.41574,-1.0513 0.55211,-1.4178 0.13677,-0.36655 0.39907,-1.1272 0.58338,-1.6901 0.18431,-0.56337 0.44702,-1.4266 0.5838,-1.9182 0.13719,-0.49206 0.34402,-1.2981 0.45995,-1.791 0.11593,-0.49331 0.23352,-1.0225 0.26188,-1.1759 l 0.0508,-0.27939 0.27439,-0.0817 c 0.15136,-0.0446 0.60339,-0.17847 1.0046,-0.29648 0.40157,-0.11843 1.2552,-0.39073 1.8973,-0.60507 0.64219,-0.21475 1.5338,-0.52959 1.9808,-0.69973 0.44744,-0.17055 1.1593,-0.45702 1.5825,-0.63633 0.42283,-0.17931 1.1922,-0.53627 1.7097,-0.79275 0.51708,-0.25646 1.2218,-0.63093 1.5658,-0.83235 0.34403,-0.20142 0.87113,-0.53293 1.1714,-0.73685 0.30023,-0.20349 0.75059,-0.53334 1.0008,-0.73267 0.25021,-0.19932 0.68055,-0.58838 0.95581,-0.86445 0.27563,-0.27605 0.62299,-0.66469 0.77189,-0.86362 0.14887,-0.19891 0.3603,-0.51041 0.47038,-0.69181 0.10967,-0.18181 0.26354,-0.47871 0.34152,-0.6601 0.078,-0.1814 0.18849,-0.49165 0.2452,-0.68889 0.0571,-0.19766 0.12385,-0.50374 0.14845,-0.68055 0.0246,-0.17722 0.0442,-0.48455 0.0438,-0.68346 -4.3e-4,-0.19932 -0.0196,-0.49331 -0.0421,-0.65385 -0.023,-0.16055 -0.0801,-0.44202 -0.1276,-0.6255 -0.0471,-0.18348 -0.15805,-0.50749 -0.24687,-0.71975 -0.0888,-0.21267 -0.25061,-0.53668 -0.35987,-0.72016 -0.10926,-0.1839 -0.32109,-0.49789 -0.47037,-0.69805 -0.14971,-0.20016 -0.51709,-0.60799 -0.81645,-0.90615 -0.29982,-0.29816 -0.74143,-0.69473 -0.98161,-0.8811 -0.23977,-0.18599 -0.67053,-0.4979 -0.95745,-0.69222 -0.28647,-0.19433 -0.73683,-0.48164 -1.0008,-0.63843 -0.26355,-0.15638 -0.91118,-0.50291 -1.4387,-0.7698 -0.5275,-0.26688 -1.2969,-0.62842 -1.7097,-0.80355 -0.41282,-0.17514 -1.06,-0.4391 -1.4386,-0.58672 -0.37822,-0.14761 -1.0655,-0.40074 -1.5266,-0.56295 -0.46079,-0.1618 -1.2585,-0.42576 -1.7722,-0.5863 -0.51332,-0.16055 -1.3644,-0.41492 -1.8902,-0.56504 -0.52625,-0.15012 -0.9804,-0.27313 -1.0091,-0.27313 -0.0283,0 -0.0622,-0.0171 -0.0751,-0.0375 -0.0129,-0.0208 -0.12718,-0.39156 -0.25396,-0.82358 -0.12676,-0.43243 -0.32651,-1.0771 -0.4441,-1.4324 -0.11717,-0.35571 -0.33944,-0.9933 -0.49373,-1.4178 -0.15429,-0.42451 -0.39823,-1.0625 -0.54168,-1.4178 -0.14345,-0.35571 -0.40116,-0.96533 -0.57213,-1.3552 -0.17097,-0.3899 -0.5421,-1.178 -0.82485,-1.7514 -0.28272,-0.57338 -0.65802,-1.3052 -0.83482,-1.6263 -0.1764,-0.32109 -0.49123,-0.87488 -0.69889,-1.2302 -0.20809,-0.35571 -0.58964,-0.97868 -0.84817,-1.3852 l -0.47038,-0.73893 0.26313,-0.47037 c 0.1447,-0.25854 0.47538,-0.87405 0.73517,-1.367 0.25979,-0.4929 0.61174,-1.1876 0.78225,-1.5429 0.17056,-0.35571 0.45912,-0.9741 0.64135,-1.3744 0.18264,-0.40074 0.50123,-1.1513 0.70807,-1.668 0.20724,-0.51708 0.51374,-1.3528 0.68096,-1.8573 0.16763,-0.50457 0.38989,-1.2552 0.49372,-1.668 0.10384,-0.41283 0.22685,-0.94785 0.27314,-1.1884 0.0459,-0.24103 0.10342,-0.56921 0.12718,-0.72975 0.0242,-0.16055 0.0625,-0.47413 0.0859,-0.69681 0.0233,-0.22268 0.0421,-0.72933 0.0417,-1.1259 -4.2e-4,-0.39657 -0.0271,-0.91823 -0.0592,-1.1596 -0.0321,-0.24144 -0.098,-0.5934 -0.14595,-0.78188 -0.0484,-0.18848 -0.13636,-0.47913 -0.19641,-0.64552 -0.0596,-0.16638 -0.16429,-0.41491 -0.23268,-0.55252 -0.0688,-0.13761 -0.22727,-0.40574 -0.3532,-0.59548 -0.12552,-0.19015 -0.38198,-0.50082 -0.56963,-0.69013 -0.18765,-0.18932 -0.52917,-0.46955 -0.75855,-0.62217 -0.22977,-0.15303 -0.55961,-0.34277 -0.73392,-0.422 -0.17388,-0.0792 -0.4687,-0.19224 -0.65469,-0.25103 -0.18556,-0.0588 -0.52625,-0.14512 -0.75645,-0.19224 -0.23019,-0.0467 -0.65761,-0.1005 -0.94995,-0.11927 -0.2919,-0.0192 -0.83107,-0.0204 -1.198,-0.003 -0.36696,0.0171 -0.88275,0.0625 -1.1468,0.10134 -0.26354,0.0388 -0.70473,0.11592 -0.97995,0.1718 -0.27522,0.0555 -0.75352,0.16722 -1.0634,0.24811 -0.30983,0.0809 -0.8319,0.23186 -1.1609,0.33569 -0.32902,0.10383 -0.84488,0.27856 -1.1468,0.38906 -0.30191,0.11051 -0.834,0.31484 -1.1822,0.45453 -0.34819,0.1397 -0.98617,0.41241 -1.4178,0.6059 -0.43159,0.19349 -1.075,0.49164 -1.4307,0.66178 -0.35528,0.17055 -1.0308,0.51249 -1.5012,0.7602 -0.46996,0.24728 -1.2085,0.64552 -1.6409,0.8853 -0.43243,0.23978 -0.84525,0.47204 -0.9174,0.51583 -0.0721,0.0442 -0.15054,0.0801 -0.17348,0.0805 -0.0233,0 -0.37071,-0.17973 -0.77145,-0.39907 -0.40115,-0.21934 -1.1609,-0.61132 -1.6884,-0.8715 -0.5275,-0.25979 -1.2873,-0.61758 -1.6888,-0.79477 -0.40115,-0.17723 -1.0676,-0.45828 -1.4804,-0.62467 -0.41283,-0.16638 -1.1163,-0.4341 -1.5638,-0.59506 -0.44702,-0.16137 -1.1414,-0.3974 -1.5429,-0.52458 -0.40115,-0.12761 -1.058,-0.32568 -1.4595,-0.43994 -0.40115,-0.11467 -1.0754,-0.29356 -1.4983,-0.39823 -0.42243,-0.10425 -1.1168,-0.26397 -1.5429,-0.35445 -0.42575,-0.0905 -1.1588,-0.23061 -1.6292,-0.31109 -0.46995,-0.0805 -1.1926,-0.19307 -1.6054,-0.24978 -0.41283,-0.0571 -1.135,-0.1422 -1.6054,-0.18931 -0.46996,-0.0471 -1.1246,-0.10467 -1.4541,-0.12761 -0.32943,-0.0229 -1.1692,-0.06 -1.8661,-0.0826 -0.8223,-0.0263 -1.7156,-0.0258 -2.5458,4.2e-4 -0.70307,0.0225 -1.5338,0.0596 -1.8452,0.0826 -0.3115,0.0225 -0.78187,0.0613 -1.0458,0.0855 -0.26354,0.0242 -0.79852,0.0813 -1.1884,0.12677 -0.38989,0.0454 -1.0184,0.12927 -1.397,0.18598 -0.37822,0.0571 -1.007,0.16097 -1.397,0.2306 -0.38989,0.0701 -1.0934,0.21184 -1.5638,0.31484 -0.46996,0.103 -1.0425,0.23435 -1.2718,0.2919 -0.22935,0.0576 -0.72641,0.18931 -1.105,0.29315 -0.37822,0.10383 -1.0475,0.29982 -1.4866,0.43535 -0.43952,0.13552 -1.1684,0.3778 -1.6201,0.53793 -0.45161,0.16012 -1.2181,0.44952 -1.703,0.6426 -0.48539,0.19307 -1.2389,0.50957 -1.6747,0.70306 -0.43576,0.19391 -0.91237,0.41283 -1.0592,0.48706 l -0.26625,0.1185 -0.53925,-0.5355 c -0.29625,-0.294 -0.7215,-0.74175 -0.94425,-0.99375 -0.2235,-0.25275 -0.51975,-0.6 -0.6585,-0.77175 -0.13886,-0.17222 -0.40532,-0.52542 -0.59214,-0.78518 -0.18682,-0.2602 -0.48664,-0.71056 -0.66678,-1.0008 -0.18014,-0.29064 -0.8136,-1.4194 -1.4074,-2.5082 -0.82148,-1.5054 -1.1254,-2.0258 -1.2681,-2.17 -0.103,-0.10425 -0.28148,-0.23435 -0.39615,-0.28982 -0.16805,-0.0805 -0.2894,-0.10258 -0.6255,-0.11342 z m -0.063,4.5735 c 0.0125,0 0.19974,0.32359 0.41575,0.71932 0.21559,0.39573 0.52041,0.93112 0.67637,1.1901 0.15637,0.25937 0.38113,0.61591 0.49957,0.7923 0.11801,0.17681 0.32817,0.4808 0.46704,0.67596 0.13844,0.19474 0.42951,0.57963 0.64677,0.85485 0.21684,0.27522 0.57671,0.70682 0.7998,0.9591 0.22267,0.25229 0.75015,0.7965 1.1718,1.2093 0.422,0.41283 1.0375,0.97117 1.3686,1.241 0.33068,0.26939 0.87442,0.68472 1.2085,0.92243 0.3336,0.23727 0.8415,0.5788 1.128,0.7581 0.2869,0.17973 0.8874,0.52834 1.3344,0.7752 0.44744,0.24686 0.83985,0.46495 0.87278,0.48455 0.043,0.0259 -0.10926,0.12802 -0.5421,0.36405 -0.3311,0.18014 -0.82688,0.45869 -1.1021,0.61882 -0.27522,0.15971 -0.77857,0.47663 -1.118,0.70348 -0.33985,0.22726 -0.81855,0.56545 -1.0634,0.75105 -0.2452,0.18598 -0.66136,0.5175 -0.92535,0.736 -0.26354,0.21893 -0.88485,0.80228 -1.3803,1.2964 -0.49581,0.49415 -1.0951,1.1326 -1.3319,1.4194 -0.23727,0.28648 -0.61299,0.76523 -0.83483,1.0634 -0.22226,0.29816 -0.56337,0.78608 -0.75772,1.0842 -0.19474,0.29816 -0.48414,0.76725 -0.64344,1.0425 -0.15929,0.27522 -0.4195,0.73976 -0.57796,1.0321 -0.15888,0.29232 -0.29858,0.53167 -0.31067,0.53167 -0.0125,0 -0.24477,-0.40198 -0.51666,-0.89362 -0.27147,-0.49164 -0.65302,-1.1434 -0.84735,-1.4491 -0.19432,-0.30566 -0.50707,-0.76935 -0.6943,-1.0304 -0.186,-0.26175 -0.50625,-0.684 -0.71025,-0.939 -0.204,-0.255 -0.5535,-0.66975 -0.777,-0.92175 -0.2235,-0.25275 -0.723,-0.76875 -1.11,-1.1468 -0.387,-0.37875 -0.9285,-0.87675 -1.2038,-1.1062 -0.27525,-0.2295 -0.7155,-0.579 -0.9795,-0.77625 -0.264,-0.198 -0.705,-0.50925 -0.98025,-0.693 -0.27525,-0.183 -0.669,-0.43575 -0.876,-0.561 -0.20625,-0.1245 -0.72675,-0.41925 -1.1572,-0.6555 -0.42975,-0.2355 -0.7815,-0.43425 -0.7815,-0.441 0,-0.006 0.28606,-0.16722 0.63593,-0.35696 0.34985,-0.18973 0.91739,-0.51333 1.2614,-0.71849 0.34402,-0.20558 0.8319,-0.515 1.0842,-0.68847 0.25228,-0.17306 0.67846,-0.48164 0.9474,-0.68555 0.26854,-0.20391 0.75645,-0.60173 1.0842,-0.88402 0.32734,-0.28189 0.92452,-0.84817 1.3264,-1.2585 0.4024,-0.40991 0.92655,-0.9804 1.1651,-1.2668 0.23895,-0.28689 0.61591,-0.76522 0.83776,-1.0633 0.22226,-0.29816 0.56336,-0.78608 0.75772,-1.0842 0.19474,-0.29815 0.48414,-0.76724 0.64343,-1.0425 0.15929,-0.27522 0.41951,-0.73975 0.57797,-1.0321 0.15888,-0.29232 0.29898,-0.53167 0.31149,-0.53167 z m 27.596,3.0295 c 0.71724,0.009 1.6088,0.035 1.9808,0.0575 0.37238,0.0225 0.99578,0.0692 1.3857,0.10425 0.38989,0.035 1.0842,0.11133 1.5429,0.16971 0.4587,0.058 1.2093,0.16931 1.668,0.24687 0.4587,0.0776 1.2093,0.2185 1.668,0.31358 0.4587,0.0951 1.2656,0.2819 1.7931,0.41534 0.52751,0.13344 1.3699,0.36737 1.8719,0.51958 0.50207,0.1522 1.2902,0.40949 1.7514,0.57212 0.4612,0.16221 1.2235,0.44953 1.6934,0.63843 0.47038,0.18848 1.1459,0.47163 1.5012,0.62842 0.3557,0.15721 1.0688,0.49498 1.5846,0.7506 0.51625,0.25562 1.2385,0.62967 1.6054,0.83107 0.36696,0.20142 1.0108,0.57213 1.4303,0.82403 0.41991,0.25145 1.1234,0.69597 1.5637,0.98745 0.44036,0.29107 1.0446,0.70473 1.3427,0.91867 0.29816,0.21351 0.82357,0.60549 1.1676,0.87031 0.34403,0.26479 0.89783,0.70723 1.2302,0.98325 0.33277,0.27605 0.85777,0.72683 1.1676,1.0021 0.30983,0.2748 0.84315,0.77272 1.186,1.1063 0.34235,0.33319 0.91319,0.90616 1.2681,1.2731 0.35487,0.36696 0.91695,0.97702 1.2494,1.3552 0.33192,0.37822 0.86737,1.0162 1.1889,1.417 0.32193,0.40116 0.75016,0.95033 0.95206,1.221 l 0.36695,0.49207 -0.33818,0.55127 c -0.18598,0.30315 -0.50791,0.82312 -0.71516,1.1559 -0.20725,0.33234 -0.7977,1.2422 -1.3123,2.0212 -0.51417,0.77895 -1.2088,1.811 -1.5434,2.2935 -0.33486,0.48247 -0.91786,1.3085 -1.2956,1.8361 -0.37822,0.5275 -1.15,1.5784 -1.7156,2.3352 -0.56545,0.75682 -1.4002,1.8544 -1.8556,2.4394 -0.45536,0.58463 -1.2877,1.6354 -1.8494,2.3352 -0.56211,0.69931 -1.4824,1.8252 -2.0458,2.502 -0.56295,0.67637 -1.4266,1.6993 -1.9186,2.2726 -0.49248,0.57337 -1.2998,1.502 -1.7939,2.0642 -0.49457,0.5617 -1.3156,1.4836 -1.8248,2.0492 -0.50874,0.56503 -1.3907,1.5308 -1.9599,2.1463 -0.56879,0.61549 -1.4082,1.5133 -1.8652,1.9958 -0.45661,0.48247 -1.6388,1.7102 -2.6271,2.7284 -0.9879,1.0184 -2.6188,2.6534 -3.6242,3.6333 l -1.8281,1.7822 -1.4453,0.0317 c -0.79477,0.0171 -3.012,0.0196 -4.9273,0.005 -1.9149,-0.0142 -4.1012,-0.0446 -4.858,-0.0676 -0.75683,-0.0229 -1.9016,-0.0617 -2.5437,-0.0855 -0.64218,-0.0241 -1.7585,-0.0713 -2.4812,-0.1055 -0.72225,-0.0337 -1.7918,-0.0901 -2.3769,-0.1251 -0.58464,-0.0346 -1.7389,-0.11009 -2.5646,-0.16764 -0.82568,-0.0571 -2.0546,-0.15095 -2.7314,-0.20808 -0.67638,-0.0571 -1.427,-0.12218 -1.668,-0.14469 -0.24103,-0.0225 -0.8319,-0.0784 -1.3136,-0.12469 -0.48164,-0.0459 -1.5512,-0.15929 -2.3769,-0.25145 -0.82568,-0.0917 -2.017,-0.23311 -2.648,-0.31359 -0.63051,-0.0805 -1.6159,-0.21225 -2.1892,-0.29314 -0.57338,-0.0805 -1.5208,-0.22018 -2.1058,-0.30983 -0.58506,-0.0901 -1.5137,-0.23978 -2.0642,-0.33319 -0.55044,-0.093 -1.4512,-0.25229 -2.0016,-0.35403 -0.55044,-0.10133 -1.5166,-0.28982 -2.1476,-0.41826 -0.63051,-0.12843 -1.522,-0.31775 -1.9808,-0.42075 -0.4587,-0.10299 -1.1839,-0.27188 -1.6113,-0.37488 l -0.7773,-0.18765 -0.0676,-0.44619 c -0.0367,-0.24519 -0.10425,-0.74601 -0.14928,-1.113 -0.0455,-0.36696 -0.11051,-0.97703 -0.1447,-1.3552 -0.0342,-0.37864 -0.0847,-1.0446 -0.11217,-1.4804 -0.0275,-0.43577 -0.05,-1.5242 -0.0496,-2.4186 0,-0.89445 0.0225,-1.9828 0.05,-2.4186 0.0275,-0.43577 0.0776,-1.1021 0.11217,-1.4804 0.0342,-0.37864 0.10008,-0.99788 0.14637,-1.3761 0.0467,-0.37864 0.15763,-1.1384 0.24728,-1.6888 0.0897,-0.55044 0.2306,-1.3294 0.31358,-1.7306 0.0826,-0.40158 0.22268,-1.03 0.31109,-1.397 0.0884,-0.36696 0.25437,-1.005 0.36904,-1.4178 0.11468,-0.41283 0.31484,-1.0884 0.44494,-1.5012 0.1301,-0.41283 0.35862,-1.0884 0.50791,-1.5012 0.14929,-0.41283 0.42242,-1.1259 0.60673,-1.5846 0.18474,-0.4587 0.4733,-1.1384 0.64176,-1.5108 0.16847,-0.37238 0.51542,-1.0946 0.771,-1.6054 0.25563,-0.51083 0.60549,-1.1818 0.77768,-1.4916 0.17222,-0.30983 0.51541,-0.90075 0.7623,-1.3136 0.24728,-0.41283 0.6918,-1.1171 0.9879,-1.565 0.29649,-0.44785 0.74184,-1.0951 0.99037,-1.4386 0.24854,-0.34319 0.61216,-0.8307 0.80858,-1.0829 0.19599,-0.25229 0.54335,-0.68763 0.7719,-0.96788 0.2281,-0.27981 0.43076,-0.49914 0.44994,-0.48705 0.0192,0.0117 0.27022,0.31525 0.55795,0.67428 0.28731,0.35904 0.67679,0.87443 0.86482,1.1451 0.18848,0.27105 0.44786,0.66595 0.57629,0.87735 0.12885,0.21142 0.71641,1.2664 1.306,2.3444 0.65427,1.1964 1.1318,2.0224 1.2256,2.1208 0.0842,0.0884 0.22101,0.20391 0.30358,0.25688 0.0821,0.053 0.24978,0.12593 0.37238,0.16263 0.12218,0.0363 0.31066,0.0659 0.41908,0.0659 0.108,0 0.32067,-0.0384 0.47288,-0.0855 0.22226,-0.0684 0.32484,-0.13177 0.52459,-0.32318 l 0.24769,-0.23769 1.0705,-1.9599 c 0.5888,-1.078 1.1834,-2.1475 1.3215,-2.3769 0.13802,-0.22936 0.36362,-0.58589 0.50123,-0.79231 0.13761,-0.20641 0.40324,-0.58171 0.59047,-0.834 0.18682,-0.25228 0.48164,-0.62758 0.65553,-0.834 0.17347,-0.20641 0.49289,-0.56712 0.70973,-0.80145 0.21726,-0.23393 0.62758,-0.64426 0.912,-0.91117 0.28481,-0.26688 0.80857,-0.71932 1.1638,-1.0058 0.3557,-0.28648 0.93742,-0.71433 1.2927,-0.95078 0.3557,-0.23644 0.90907,-0.5788 1.2302,-0.76102 0.32109,-0.18182 1.3244,-0.73267 2.2301,-1.2239 1.4391,-0.7806 1.678,-0.92407 1.9006,-1.143 0.18765,-0.18431 0.27897,-0.314 0.34528,-0.49164 0.0625,-0.16763 0.0901,-0.33568 0.0901,-0.55086 0,-0.21434 -0.0275,-0.38322 -0.0892,-0.54794 -0.0621,-0.16596 -0.16054,-0.31024 -0.32317,-0.47412 -0.21,-0.20025 -0.48,-0.3615 -2.1368,-1.2638 -1.0432,-0.5685 -2.1128,-1.1752 -2.3768,-1.3485 l -0.47955,-0.31484 0.31275,-0.14261 c 0.17222,-0.0784 0.66928,-0.28398 1.105,-0.45703 0.43576,-0.17306 1.055,-0.40783 1.3761,-0.52168 0.32109,-0.11384 0.8373,-0.29064 1.1468,-0.39281 0.30983,-0.10216 0.91027,-0.28731 1.3344,-0.41116 0.4245,-0.12385 1.1092,-0.31109 1.522,-0.41617 0.41283,-0.10467 1.1446,-0.27356 1.6263,-0.37488 0.48163,-0.10174 1.2093,-0.24186 1.6172,-0.3115 0.4074,-0.07 1.0829,-0.17305 1.5012,-0.22893 0.41783,-0.0563 1.1539,-0.14011 1.6354,-0.18598 0.48163,-0.0459 1.251,-0.10425 1.7097,-0.12927 0.4587,-0.025 0.99367,-0.0517 1.1884,-0.0596 0.19515,-0.007 0.94117,-0.006 1.6584,0.003 z m 36.372,0.7719 c 0.33235,-0.004 0.72016,0.0192 0.9462,0.0559 0.21058,0.0342 0.50624,0.10676 0.65636,0.16138 0.15012,0.0546 0.37864,0.16263 0.50791,0.23978 0.12885,0.0776 0.31775,0.23477 0.4195,0.34944 0.10175,0.11468 0.25896,0.35863 0.34986,0.54211 0.0905,0.18347 0.20558,0.48372 0.25562,0.66719 0.0796,0.29316 0.0909,0.44245 0.0922,1.2302 0.002,0.75599 -0.0137,0.98159 -0.0951,1.4386 -0.0526,0.29815 -0.17097,0.84232 -0.26229,1.2093 -0.0913,0.36697 -0.28481,1.0238 -0.42951,1.4595 -0.14511,0.43577 -0.3974,1.1267 -0.56086,1.5354 -0.16347,0.40866 -0.45787,1.103 -0.65386,1.5429 -0.19641,0.43993 -0.6672,1.4136 -1.0467,2.1642 -0.37947,0.75061 -0.71099,1.3928 -0.73684,1.427 -0.0388,0.0517 -0.13386,-0.0467 -0.5446,-0.56586 -0.27397,-0.34569 -0.74935,-0.92198 -1.0567,-1.281 -0.30774,-0.35904 -0.80895,-0.9249 -1.1142,-1.2572 -0.30525,-0.33276 -0.97455,-1.0179 -1.487,-1.5233 -0.51249,-0.50541 -1.251,-1.1997 -1.6409,-1.5429 -0.38989,-0.3432 -0.9624,-0.8319 -1.2718,-1.0855 -0.30983,-0.25354 -0.80692,-0.64927 -1.105,-0.879 -0.29815,-0.23018 -0.81397,-0.61465 -1.1468,-0.85485 -0.33235,-0.23977 -0.77812,-0.55586 -0.99037,-0.70181 -0.21225,-0.14595 -0.38573,-0.27731 -0.38573,-0.29232 0,-0.0146 0.28607,-0.17889 0.63593,-0.36445 0.34986,-0.18599 0.98077,-0.51 1.4024,-0.72016 0.42158,-0.20976 1.0316,-0.50457 1.3552,-0.65469 0.32401,-0.15012 0.78225,-0.35571 1.0187,-0.45662 0.23644,-0.10133 0.70557,-0.29398 1.0425,-0.42868 0.33693,-0.13427 0.91283,-0.34736 1.2798,-0.47287 0.36696,-0.12593 0.93953,-0.30608 1.2718,-0.3999 0.33277,-0.0942 0.82065,-0.21684 1.0842,-0.27314 0.26397,-0.0563 0.6768,-0.13135 0.9174,-0.16722 0.24103,-0.0354 0.50374,-0.0713 0.5838,-0.0797 0.0805,-0.008 0.39949,-0.0179 0.7089,-0.0217 z m -0.417,19.636 c 0.0117,-8.2e-4 0.15178,0.2185 0.31192,0.48789 0.16012,0.26938 0.43951,0.75225 0.6205,1.0733 0.18097,0.3211 0.55793,1.0342 0.83692,1.5846 0.27897,0.55043 0.67345,1.3761 0.8757,1.8348 0.20266,0.4587 0.49957,1.1622 0.65969,1.5638 0.16013,0.40115 0.40866,1.058 0.55253,1.4595 0.14344,0.40116 0.35611,1.03 0.47246,1.397 0.11593,0.36697 0.29565,0.96743 0.39907,1.3344 0.10342,0.36696 0.27396,1.0141 0.37905,1.4386 0.1055,0.42408 0.28315,1.231 0.39532,1.7931 0.11217,0.5617 0.26062,1.397 0.32943,1.8556 0.0692,0.4587 0.15471,1.0684 0.19015,1.3553 0.0355,0.28647 0.0921,0.82147 0.12593,1.1884 0.0342,0.36695 0.0855,0.99539 0.11385,1.3969 0.0313,0.43452 0.0517,1.5141 0.0505,2.6688 -0.002,1.4095 -0.0212,2.1955 -0.0725,2.8773 -0.0392,0.51583 -0.10842,1.2852 -0.15471,1.7097 -0.0463,0.42409 -0.12134,1.0342 -0.1668,1.3552 -0.045,0.32109 -0.0926,0.63426 -0.10508,0.69556 l -0.0229,0.11217 -0.54961,0.13094 c -0.30273,0.0721 -0.86902,0.20558 -1.259,0.29607 -0.38989,0.0905 -1.2343,0.27564 -1.8765,0.41116 -0.64218,0.13595 -1.721,0.35153 -2.3978,0.47914 -0.67638,0.12719 -1.8961,0.34318 -2.7105,0.47996 -0.81398,0.13636 -2.0525,0.33277 -2.7522,0.43619 -0.6993,0.103 -1.7693,0.25353 -2.3769,0.33401 -0.60757,0.0805 -1.5742,0.20309 -2.1476,0.27189 -0.57337,0.0688 -1.6618,0.19057 -2.4186,0.27063 -0.75683,0.0797 -1.9858,0.20141 -2.7314,0.27022 -0.74517,0.0688 -1.9557,0.17222 -2.6896,0.22976 -0.73392,0.0575 -1.9065,0.1422 -2.6062,0.18807 -0.69931,0.0463 -1.7877,0.11217 -2.4186,0.14678 -0.63051,0.035 -1.7735,0.0917 -2.54,0.12594 -0.76604,0.0346 -1.4887,0.0625 -1.6054,0.0617 l -0.21224,-0.002 0.80025,-0.7806 c 0.43993,-0.42951 1.3123,-1.3065 1.939,-1.949 0.62635,-0.6426 1.6563,-1.7122 2.2889,-2.3769 0.63259,-0.6647 1.5338,-1.6213 2.0024,-2.1259 0.4687,-0.50457 1.2272,-1.3302 1.6855,-1.8348 0.45829,-0.50457 1.1342,-1.2552 1.5025,-1.668 0.36779,-0.41283 0.9975,-1.1259 1.3986,-1.5846 0.40157,-0.4587 1.1238,-1.294 1.6046,-1.8556 0.48122,-0.56212 1.2502,-1.472 1.7097,-2.0224 0.45953,-0.55044 1.2385,-1.4983 1.7314,-2.1058 0.49248,-0.60799 1.2435,-1.5462 1.6684,-2.085 0.42534,-0.53918 1.0826,-1.3836 1.4608,-1.8765 0.37821,-0.49289 0.91282,-1.1968 1.188,-1.5638 0.27521,-0.36696 0.84817,-1.1459 1.2731,-1.7306 0.42492,-0.58505 1.0704,-1.4858 1.4341,-2.0016 0.36363,-0.51625 1.1313,-1.6438 1.7059,-2.5062 0.57463,-0.86235 1.2794,-1.9449 1.5659,-2.4061 0.28689,-0.46079 0.53084,-0.83903 0.5421,-0.83986 z m -81.45,13.635 c 0.007,0.0154 -0.0346,0.27939 -0.0913,0.58672 -0.0567,0.30733 -0.15971,0.94327 -0.22893,1.4136 -0.0692,0.46996 -0.17305,1.2956 -0.2306,1.8348 -0.0571,0.53876 -0.13261,1.4207 -0.1668,1.9599 -0.0342,0.53876 -0.0746,1.4958 -0.0892,2.1267 -0.015,0.64509 -0.007,1.6667 0.0192,2.336 0.0254,0.65428 0.0742,1.5454 0.108,1.9808 0.0342,0.43535 0.10133,1.1542 0.1497,1.5975 0.0484,0.44328 0.0792,0.81443 0.0688,0.82485 -0.0104,0.0104 -0.41074,-0.10216 -0.88987,-0.25104 -0.47872,-0.14844 -1.2176,-0.39072 -1.6421,-0.53876 -0.42409,-0.14762 -1.0433,-0.37238 -1.3761,-0.49957 -0.33235,-0.12676 -0.8298,-0.324 -1.105,-0.43826 -0.27522,-0.11384 -0.74434,-0.31942 -1.0425,-0.4562 -0.29815,-0.13677 -0.73309,-0.34444 -0.96622,-0.46162 -0.2331,-0.11717 -0.67429,-0.35653 -0.97995,-0.53209 -0.30567,-0.17598 -0.77145,-0.46579 -1.0354,-0.64468 -0.26354,-0.17889 -0.65886,-0.47455 -0.8778,-0.65761 -0.21892,-0.18307 -0.50832,-0.45161 -0.64343,-0.59756 -0.13511,-0.14553 -0.32901,-0.37739 -0.43118,-0.515 -0.10216,-0.13761 -0.25812,-0.40032 -0.34694,-0.5838 -0.0888,-0.18348 -0.1889,-0.46495 -0.22267,-0.6255 -0.0342,-0.16054 -0.0621,-0.37655 -0.0621,-0.47955 0,-0.10342 0.0275,-0.30524 0.0617,-0.44869 0.0338,-0.14345 0.12051,-0.37822 0.19266,-0.52125 0.0721,-0.14304 0.20683,-0.37196 0.29982,-0.50874 0.0926,-0.13678 0.31983,-0.40658 0.50499,-0.59965 0.18514,-0.19265 0.49665,-0.48497 0.6918,-0.64927 0.19557,-0.16388 0.56169,-0.43993 0.81315,-0.61341 0.25186,-0.17305 0.65135,-0.43159 0.88777,-0.57379 0.23644,-0.14261 0.7335,-0.417 1.105,-0.60965 0.37113,-0.19266 0.92865,-0.46579 1.2381,-0.60674 0.30942,-0.14095 0.91028,-0.39782 1.3344,-0.57046 0.42409,-0.17305 1.1,-0.43368 1.5012,-0.57963 0.40157,-0.14595 1.1614,-0.40491 1.6888,-0.57629 0.52751,-0.17097 1.1376,-0.36446 1.3552,-0.43034 0.21809,-0.0659 0.40157,-0.10717 0.40783,-0.0917 z m 90.052,0.015 c 0.0751,0.0146 0.55878,0.15972 1.0746,0.32193 0.51625,0.16221 1.359,0.44494 1.8732,0.62758 0.51416,0.18306 1.1993,0.4366 1.522,0.56379 0.32276,0.12718 0.90615,0.37196 1.296,0.5446 0.38989,0.17222 0.97162,0.44452 1.2927,0.60507 0.32109,0.16055 0.7998,0.41408 1.0634,0.56337 0.26396,0.14929 0.71432,0.42492 1.0008,0.61257 0.2869,0.18765 0.7089,0.49248 0.93825,0.67763 0.22935,0.18473 0.59589,0.52124 0.81442,0.74768 0.21851,0.22643 0.48873,0.5496 0.60048,0.71849 0.11176,0.16889 0.25812,0.44911 0.32568,0.62258 0.0759,0.19516 0.13135,0.43034 0.14511,0.61508 0.0154,0.20266 4.2e-4,0.40032 -0.0471,0.61341 -0.0384,0.17305 -0.14178,0.46203 -0.22934,0.64218 -0.0876,0.18014 -0.2452,0.44285 -0.34945,0.5838 -0.10467,0.14136 -0.31859,0.3924 -0.47496,0.55836 -0.15638,0.16596 -0.48122,0.45995 -0.72224,0.65302 -0.24061,0.19308 -0.64427,0.48831 -0.89656,0.65552 -0.25228,0.16764 -0.67428,0.4266 -0.93825,0.57589 -0.26354,0.1497 -0.73266,0.39864 -1.0425,0.55377 -0.30942,0.15513 -0.83483,0.40282 -1.1676,0.55044 -0.33234,0.14804 -0.95159,0.40616 -1.3761,0.57379 -0.42408,0.16722 -1.1488,0.43702 -1.61,0.59923 -0.46078,0.1618 -1.2647,0.42826 -1.7864,0.59173 -0.52126,0.16346 -0.95371,0.29106 -0.96121,0.28356 -0.007,-0.007 0.0213,-0.31401 0.0634,-0.68097 0.0421,-0.36696 0.10592,-1.0146 0.14137,-1.4386 0.0358,-0.42451 0.0842,-1.1542 0.10716,-1.6221 0.0233,-0.46746 0.0425,-1.4716 0.0421,-2.231 0,-0.75892 -0.0192,-1.7464 -0.0425,-2.1934 -0.023,-0.44744 -0.0705,-1.151 -0.10466,-1.5638 -0.0347,-0.41283 -0.0913,-1.0041 -0.12552,-1.3136 -0.0346,-0.30983 -0.10968,-0.90075 -0.1668,-1.3136 -0.0571,-0.41283 -0.16097,-1.0792 -0.23102,-1.4804 -0.0697,-0.40157 -0.13511,-0.75562 -0.14554,-0.78727 -0.0146,-0.0442 0.0121,-0.0513 0.11718,-0.0304 z m -86.625,18.726 c 0.0384,0.0117 0.53001,0.12427 1.0917,0.25021 0.56212,0.12593 1.5846,0.34277 2.2726,0.48204 0.68805,0.13928 1.7576,0.3457 2.3769,0.4587 0.61924,0.11301 1.52,0.27147 2.0016,0.35154 0.48163,0.0805 1.3636,0.22101 1.9599,0.31274 0.59631,0.0913 1.6284,0.24187 2.2935,0.33444 0.66511,0.0922 1.7348,0.2331 2.3769,0.31317 0.64218,0.0797 1.5804,0.19224 2.085,0.24936 0.50457,0.0572 1.3774,0.15179 1.939,0.20976 0.5617,0.058 1.5283,0.15178 2.1476,0.2085 0.61924,0.0572 1.5859,0.14094 2.1476,0.18681 0.56212,0.0463 1.5471,0.12177 2.1892,0.16805 0.64218,0.0463 1.7869,0.12135 2.5437,0.1668 0.75682,0.0455 1.9674,0.11092 2.6896,0.14554 0.72266,0.0346 1.7923,0.0817 2.3769,0.10466 0.58505,0.023 1.7576,0.0625 2.6062,0.0884 0.84862,0.0254 2.942,0.0588 4.6516,0.0734 l 3.1088,0.0271 -0.76935,0.7089 c -0.42284,0.3899 -1.2727,1.1626 -1.8886,1.7172 -0.61549,0.55461 -1.6309,1.4562 -2.256,2.0037 -0.62508,0.54753 -1.5871,1.3798 -2.1376,1.8498 -0.55044,0.46955 -1.3386,1.136 -1.7514,1.4804 -0.41283,0.34445 -1.1072,0.91695 -1.5429,1.2727 -0.43577,0.35528 -1.1205,0.90862 -1.522,1.2297 -0.40115,0.32151 -1.1989,0.94995 -1.7722,1.3974 -0.57338,0.44743 -1.568,1.208 -2.2101,1.6905 -0.64218,0.48247 -1.5242,1.1368 -1.9599,1.4541 -0.43577,0.31692 -1.2989,0.9324 -1.9182,1.367 -0.61925,0.43451 -1.6792,1.1593 -2.356,1.61 -0.67637,0.45119 -1.568,1.0346 -1.9808,1.2964 -0.41283,0.26188 -1.1155,0.69765 -1.5616,0.96788 -0.44661,0.27063 -0.82733,0.49164 -0.84653,0.49164 -0.0196,0 -0.22684,-0.14387 -0.46078,-0.32026 -0.23394,-0.17597 -0.73475,-0.56753 -1.1134,-0.86985 -0.37821,-0.30232 -0.9132,-0.74351 -1.1884,-0.98077 -0.27522,-0.23686 -0.81937,-0.72474 -1.2093,-1.0847 -0.38989,-0.35945 -1.0558,-1.0087 -1.4804,-1.4424 -0.42408,-0.43368 -0.9891,-1.0316 -1.2552,-1.329 -0.26646,-0.29733 -0.741,-0.84901 -1.0546,-1.2256 -0.31358,-0.37655 -0.74351,-0.91117 -0.9549,-1.188 -0.21101,-0.27689 -0.53585,-0.71014 -0.72099,-0.9624 -0.18557,-0.25271 -0.57212,-0.80647 -0.85943,-1.2306 -0.28689,-0.42451 -0.70181,-1.065 -0.92197,-1.4236 -0.22018,-0.35862 -0.54419,-0.9024 -0.71975,-1.208 -0.17556,-0.30566 -0.50707,-0.90945 -0.73683,-1.3419 -0.22977,-0.43244 -0.58631,-1.1459 -0.7923,-1.5859 -0.20642,-0.43994 -0.51417,-1.1242 -0.68388,-1.5204 -0.16972,-0.39656 -0.45078,-1.0909 -0.62425,-1.5429 -0.17348,-0.45245 -0.44369,-1.2072 -0.60048,-1.6772 -0.1568,-0.47038 -0.3703,-1.1459 -0.47455,-1.5012 -0.10467,-0.3557 -0.28314,-1.0083 -0.39698,-1.4512 -0.17389,-0.67638 -0.19557,-0.80108 -0.13678,-0.7827 z m 83.152,-0.0146 c 0.0329,-0.002 0.0463,0.0254 0.0334,0.0696 -0.0117,0.0401 -0.0996,0.38239 -0.19515,0.76103 -0.0955,0.37821 -0.28314,1.0538 -0.41658,1.5012 -0.13386,0.44702 -0.36696,1.1756 -0.51834,1.6188 -0.15137,0.44285 -0.39864,1.128 -0.55002,1.522 -0.15137,0.39406 -0.42033,1.0542 -0.59798,1.467 -0.17722,0.41283 -0.47746,1.0788 -0.66678,1.4804 -0.18931,0.40115 -0.5225,1.0675 -0.74059,1.4803 -0.21768,0.41283 -0.48039,0.90076 -0.58338,1.0842 -0.103,0.18348 -0.36613,0.63383 -0.58464,1.0008 -0.21851,0.36696 -0.66302,1.0704 -0.98745,1.5638 -0.32442,0.49289 -0.79395,1.178 -1.043,1.522 -0.24936,0.34403 -0.64217,0.86948 -0.87322,1.1676 -0.23102,0.29816 -0.64969,0.81818 -0.9303,1.1555 -0.28106,0.33735 -0.74893,0.88155 -1.04,1.2093 -0.29107,0.32776 -1.0563,1.1217 -1.7001,1.7648 -0.64385,0.64259 -1.4616,1.4232 -1.8172,1.7348 -0.35528,0.31108 -0.88155,0.76103 -1.1689,0.99952 -0.28731,0.23853 -0.75352,0.61174 -1.0354,0.82981 -0.28231,0.21767 -0.77895,0.59047 -1.1038,0.82814 -0.32484,0.2377 -0.99457,0.69931 -1.4874,1.0262 -0.49289,0.32693 -1.1596,0.75352 -1.4812,0.94868 -0.32192,0.19473 -0.93157,0.54752 -1.3552,0.78435 -0.42409,0.23685 -1.296,0.68763 -1.9382,1.0024 -0.64218,0.31442 -1.5429,0.731 -2.0016,0.92572 -0.4587,0.19474 -1.1563,0.47746 -1.5504,0.62842 -0.39365,0.15096 -1.1351,0.4145 -1.6472,0.58588 -0.51166,0.17097 -1.2606,0.40575 -1.6638,0.52125 -0.40281,0.11593 -1.1158,0.30567 -1.5846,0.42201 -0.46829,0.11592 -1.2547,0.29315 -1.7481,0.39365 -0.4929,0.10008 -1.2531,0.23977 -1.6888,0.30983 -0.43577,0.0705 -1.0925,0.16597 -1.4595,0.21267 -0.36695,0.0467 -1.0612,0.12134 -1.5429,0.16555 -0.48163,0.0446 -1.3165,0.10342 -1.8552,0.13052 -0.60924,0.0305 -1.6268,0.0404 -2.6896,0.0267 -0.96787,-0.0125 -2.0812,-0.0517 -2.565,-0.0897 -0.46995,-0.0371 -1.1926,-0.10508 -1.6054,-0.15137 -0.41284,-0.0463 -1.0696,-0.13051 -1.4595,-0.18723 -0.38989,-0.0567 -0.92452,-0.14178 -1.1884,-0.1889 -0.26354,-0.0471 -0.7139,-0.13177 -1.0008,-0.18806 -0.28647,-0.0563 -0.9249,-0.19558 -1.4182,-0.30942 -0.49331,-0.11426 -1.2906,-0.31859 -1.7722,-0.45453 -0.48121,-0.13594 -1.2318,-0.36363 -1.6675,-0.50541 -0.43577,-0.14178 -1.1956,-0.40824 -1.6888,-0.59214 -0.4929,-0.18389 -1.2906,-0.50206 -1.7723,-0.70764 -0.48163,-0.20559 -1.1384,-0.49832 -1.4595,-0.65052 -0.32109,-0.15221 -0.87442,-0.42534 -1.2302,-0.60674 -0.35528,-0.18139 -0.85275,-0.44244 -1.105,-0.58005 -0.25228,-0.13802 -0.77565,-0.43785 -1.163,-0.66678 l -0.70431,-0.41575 0.14136,-0.0876 c 0.0776,-0.0479 0.55419,-0.34861 1.0588,-0.66803 0.50457,-0.31942 1.4712,-0.94995 2.1476,-1.4012 0.6768,-0.4512 1.5775,-1.0621 2.0016,-1.3574 0.42451,-0.29524 1.2689,-0.89407 1.8765,-1.3306 0.60799,-0.4366 1.7431,-1.2731 2.5228,-1.8594 0.77978,-0.58588 1.7651,-1.3365 2.1892,-1.6676 0.42451,-0.33068 1.2877,-1.0142 1.9182,-1.5178 0.63093,-0.50415 1.6755,-1.3523 2.3215,-1.8848 0.64593,-0.53293 1.6676,-1.3878 2.2702,-1.9003 0.60299,-0.51249 1.6413,-1.4095 2.3077,-1.9928 0.66637,-0.5838 1.6713,-1.475 2.233,-1.9803 0.56212,-0.50583 1.4903,-1.351 2.0637,-1.879 0.57296,-0.5275 1.5208,-1.4111 2.1058,-1.9628 l 1.0638,-1.0029 1.668,-0.0513 c 0.9174,-0.028 2.278,-0.0788 3.0232,-0.11259 0.7456,-0.0337 1.8715,-0.0901 2.502,-0.1251 0.63092,-0.035 1.7193,-0.10134 2.4186,-0.14679 0.69973,-0.0459 1.8723,-0.13011 2.6062,-0.18765 0.73392,-0.0571 1.8598,-0.15137 2.502,-0.20892 0.64218,-0.0575 1.7214,-0.16096 2.3978,-0.22935 0.67679,-0.0684 1.718,-0.18056 2.3144,-0.24894 0.59631,-0.0684 1.7506,-0.20934 2.5646,-0.31317 0.81443,-0.10425 2.128,-0.28356 2.919,-0.39866 0.79147,-0.11509 2.1518,-0.32859 3.0232,-0.47454 0.8715,-0.14595 2.0446,-0.35236 2.6062,-0.4587 0.56212,-0.10675 1.5658,-0.30525 2.231,-0.44161 0.66511,-0.13593 1.6034,-0.33985 2.085,-0.45244 0.48163,-0.11217 0.9003,-0.206 0.93075,-0.20808 z m -79.515,15.788 c 0.063,0.088 0.24352,0.34736 0.40115,0.57671 0.15804,0.22935 0.59048,0.8202 0.96158,1.3136 0.37113,0.4929 0.96495,1.2435 1.319,1.668 0.35445,0.42409 0.91447,1.0717 1.2443,1.4386 0.32985,0.36696 1.0037,1.0721 1.4974,1.5675 0.49373,0.49499 1.1368,1.118 1.429,1.384 0.2919,0.26646 0.77978,0.69848 1.0842,0.96038 0.30399,0.26145 0.8628,0.72432 1.241,1.0283 0.37863,0.304 0.69347,0.56754 0.70056,0.58548 0.007,0.0179 -0.67805,0.37821 -1.522,0.7998 -0.84398,0.42201 -1.9566,0.9474 -2.4728,1.1676 -0.51583,0.22017 -1.2735,0.525 -1.683,0.67762 -0.40949,0.15262 -1.0567,0.37155 -1.4386,0.48706 -0.38155,0.11551 -0.91905,0.26354 -1.1943,0.32943 -0.27522,0.0659 -0.72558,0.15846 -1.0008,0.20558 -0.27522,0.0467 -0.74601,0.10258 -1.0458,0.12343 -0.32526,0.0225 -0.73392,0.023 -1.0104,7.6e-4 -0.25562,-0.0204 -0.59214,-0.0684 -0.74726,-0.10634 -0.15512,-0.0379 -0.41366,-0.12886 -0.57421,-0.20183 -0.18014,-0.0817 -0.3924,-0.22559 -0.55419,-0.37572 -0.20266,-0.18764 -0.29899,-0.31983 -0.42283,-0.58088 -0.088,-0.18556 -0.19224,-0.46912 -0.23102,-0.62967 -0.0392,-0.16054 -0.0838,-0.51374 -0.0992,-0.78525 -0.015,-0.27146 -0.0146,-0.7139 0.002,-0.98325 0.0163,-0.26937 0.0684,-0.72265 0.11634,-1.0078 0.0484,-0.28481 0.16305,-0.82777 0.25563,-1.206 0.0926,-0.37863 0.30607,-1.1008 0.47412,-1.6054 0.16847,-0.50457 0.44786,-1.2689 0.62091,-1.6988 0.17348,-0.42951 0.46996,-1.1238 0.65886,-1.5429 0.18891,-0.41867 0.55461,-1.1839 0.81316,-1.6997 0.25811,-0.51624 0.60298,-1.1884 0.76642,-1.4942 l 0.29732,-0.55544 z m 37.988,-52.887 c -0.16846,-0.0108 -0.35737,0.007 -0.49957,0.0467 -0.12552,0.035 -0.30357,0.10842 -0.39615,0.16305 -0.0922,0.0546 -0.22726,0.1618 -0.30024,0.23811 -0.0725,0.0767 -0.6034,0.99915 -1.1797,2.0504 -0.57588,1.0508 -1.1705,2.1112 -1.321,2.356 -0.15095,0.24478 -0.407,0.63259 -0.56879,0.86197 -0.16221,0.22935 -0.47287,0.63968 -0.69055,0.912 -0.21726,0.27231 -0.58672,0.70515 -0.8211,0.96158 -0.23436,0.25645 -0.63009,0.65552 -0.87945,0.8874 -0.24937,0.23143 -0.62217,0.56044 -0.8286,0.731 -0.20642,0.17097 -0.54419,0.43785 -0.7506,0.59297 -0.20642,0.15512 -0.58172,0.41826 -0.834,0.58464 -0.25229,0.16638 -0.68388,0.43242 -0.9591,0.5913 -0.27522,0.15888 -1.2381,0.6918 -2.1392,1.1839 -1.2264,0.66928 -1.6859,0.94117 -1.8256,1.0809 -0.103,0.10216 -0.23644,0.28689 -0.29649,0.40949 -0.0763,0.1568 -0.11509,0.31441 -0.12885,0.52625 -0.0129,0.20642 0.002,0.37572 0.048,0.53376 0.0371,0.12719 0.13052,0.32276 0.20724,0.43451 0.0772,0.11176 0.22268,0.26146 0.3236,0.33319 0.10091,0.0717 0.9153,0.52875 1.8098,1.0162 0.89445,0.48705 1.8514,1.0179 2.1267,1.1788 0.27522,0.16138 0.74643,0.46037 1.0475,0.66387 0.30066,0.20391 0.76523,0.54544 1.0321,0.75855 0.26646,0.21309 0.71056,0.59047 0.98662,0.83857 0.27564,0.24812 0.6843,0.6501 0.90781,0.89325 0.22351,0.24312 0.52041,0.57338 0.65969,0.73392 0.13927,0.16055 0.40991,0.49832 0.60131,0.7506 0.1914,0.25229 0.52,0.72141 0.73058,1.0425 0.21059,0.32109 0.61674,1.0058 0.90278,1.522 0.28606,0.51583 0.7902,1.4336 1.1205,2.0391 0.40198,0.73767 0.65928,1.1618 0.7794,1.2852 0.0984,0.10133 0.28606,0.23436 0.41742,0.29607 0.20641,0.0968 0.2919,0.11176 0.63467,0.11176 0.34236,0 0.42868,-0.015 0.63384,-0.11134 0.13052,-0.0613 0.31858,-0.19265 0.41742,-0.2919 0.1326,-0.13261 0.42742,-0.63384 1.113,-1.8903 0.51291,-0.94035 1.0646,-1.9348 1.226,-2.2101 0.16096,-0.27522 0.40532,-0.66928 0.54335,-0.8757 0.13761,-0.20641 0.39073,-0.56295 0.56212,-0.7923 0.1718,-0.22935 0.48705,-0.62341 0.70097,-0.8757 0.21392,-0.25228 0.55336,-0.63175 0.7548,-0.84277 0.20141,-0.21142 0.55378,-0.55628 0.78315,-0.76643 0.22935,-0.21016 0.63301,-0.55503 0.89655,-0.76605 0.26396,-0.211 0.69556,-0.53542 0.9591,-0.72099 0.26396,-0.18514 0.69556,-0.46746 0.9591,-0.62675 0.26397,-0.15929 1.1738,-0.66928 2.0224,-1.1338 0.84863,-0.46412 1.683,-0.9207 1.8544,-1.0142 0.17097,-0.0938 0.39281,-0.25228 0.49289,-0.35236 0.1005,-0.10008 0.23228,-0.28899 0.29357,-0.41951 0.0963,-0.20516 0.11134,-0.29148 0.11134,-0.63384 0,-0.35028 -0.0137,-0.42409 -0.11759,-0.6355 -0.0647,-0.13178 -0.19808,-0.31943 -0.29649,-0.417 -0.12844,-0.12761 -0.62967,-0.42368 -1.7798,-1.0513 -0.88028,-0.4808 -1.8448,-1.0129 -2.143,-1.183 -0.29815,-0.17055 -0.76395,-0.45787 -1.035,-0.63884 -0.27147,-0.18098 -0.68305,-0.4733 -0.9153,-0.64927 -0.23227,-0.17556 -0.6205,-0.48914 -0.86235,-0.69639 -0.24186,-0.20725 -0.61591,-0.54627 -0.83152,-0.75307 -0.21518,-0.20725 -0.60591,-0.6205 -0.8682,-0.91868 -0.26229,-0.29815 -0.64302,-0.75937 -0.8457,-1.0246 -0.20309,-0.26563 -0.54627,-0.75353 -0.76313,-1.0842 -0.21642,-0.3311 -0.628,-1.0241 -0.91365,-1.54 -0.28606,-0.51625 -0.7794,-1.417 -1.0967,-2.0016 -0.45787,-0.84487 -0.62091,-1.1072 -0.79275,-1.2769 -0.14679,-0.14512 -0.29482,-0.24312 -0.46203,-0.30567 -0.13553,-0.0505 -0.36822,-0.10008 -0.5175,-0.10967 z m -0.0813,4.6112 c 0.0137,0 0.1251,0.18306 0.2477,0.40658 0.12218,0.22351 0.33485,0.60339 0.47205,0.84442 0.13719,0.24061 0.40866,0.6818 0.60256,0.97995 0.19432,0.29816 0.56462,0.82358 0.82358,1.1676 0.25854,0.34403 0.61591,0.7944 0.79358,1.0008 0.17764,0.20641 0.50957,0.57588 0.73767,0.82148 0.2281,0.24519 0.67095,0.68013 0.98453,0.96659 0.31317,0.28607 0.74017,0.65845 0.9483,0.82733 0.2085,0.16889 0.5571,0.44077 0.77475,0.60382 0.21808,0.16263 0.64801,0.46287 0.9558,0.66636 0.30775,0.2035 0.77565,0.49415 1.0392,0.64552 0.26396,0.15138 0.67345,0.38239 0.9099,0.51375 l 0.43034,0.23811 -0.70139,0.38489 c -0.38573,0.21183 -0.9078,0.51249 -1.1601,0.66845 -0.25229,0.15596 -0.70265,0.45453 -1.0004,0.66345 -0.29775,0.20892 -0.72934,0.52876 -0.9591,0.71057 -0.22977,0.18222 -0.56754,0.4612 -0.75105,0.62007 -0.18348,0.15888 -0.61341,0.56379 -0.95535,0.89985 -0.34194,0.33611 -0.81105,0.82688 -1.0425,1.0909 -0.23144,0.26396 -0.55461,0.64843 -0.71849,0.85485 -0.16347,0.20599 -0.4512,0.59047 -0.63926,0.8544 -0.18807,0.26354 -0.49415,0.72349 -0.67971,1.0216 -0.18557,0.29815 -0.51082,0.85815 -0.72224,1.2439 l -0.38489,0.70223 -0.10217,-0.18098 c -0.0563,-0.0992 -0.28148,-0.49956 -0.5004,-0.88942 -0.21893,-0.3899 -0.58547,-0.99038 -0.81398,-1.3344 -0.22893,-0.34403 -0.58213,-0.84398 -0.78562,-1.1113 -0.2035,-0.26688 -0.57588,-0.726 -0.82778,-1.02 -0.25228,-0.29356 -0.72183,-0.7977 -1.0446,-1.12 -0.32234,-0.32275 -0.8265,-0.7923 -1.12,-1.0446 -0.29398,-0.25186 -0.7506,-0.62216 -1.0154,-0.82312 -0.27375,-0.20025 -0.708,-0.51225 -0.975,-0.69225 -0.2655,-0.18 -0.681,-0.44475 -0.92175,-0.58875 -0.24075,-0.144 -0.696,-0.40275 -1.011,-0.57375 -0.31575,-0.17175 -0.573,-0.324 -0.573,-0.339 4.2e-4,-0.0146 0.22101,-0.1472 0.48998,-0.29399 0.26938,-0.1472 0.66803,-0.37113 0.88567,-0.49789 0.21809,-0.12635 0.63467,-0.38656 0.92617,-0.57755 0.29148,-0.19098 0.75105,-0.51249 1.0216,-0.71432 0.27022,-0.20182 0.74518,-0.58129 1.0546,-0.84277 0.30983,-0.26188 0.8544,-0.76725 1.211,-1.1234 0.35611,-0.35611 0.84772,-0.88192 1.0917,-1.1684 0.24395,-0.28689 0.58714,-0.70806 0.7623,-0.9366 0.17514,-0.22809 0.50165,-0.68804 0.726,-1.0216 0.22393,-0.3336 0.52917,-0.8127 0.67804,-1.065 0.14846,-0.25229 0.39032,-0.6793 0.5371,-0.94868 0.1472,-0.26939 0.27856,-0.48997 0.2919,-0.48997 z m 47.309,57.425 c -0.0246,0.002 -0.12801,0.0208 -0.23018,0.0409 -0.10216,0.02 -0.28314,0.0842 -0.4024,0.1422 -0.11885,0.0583 -0.29024,0.18639 -0.38114,0.28481 -0.0909,0.0984 -0.21267,0.26229 -0.27064,0.36404 -0.0584,0.10174 -0.4858,0.87945 -0.94995,1.7281 -0.46453,0.84862 -0.97492,1.7489 -1.1347,2.0003 -0.15971,0.25187 -0.45244,0.67429 -0.65094,0.93825 -0.19808,0.26438 -0.55085,0.69639 -0.78398,0.96038 -0.2331,0.26354 -0.59922,0.65009 -0.8136,0.85905 -0.21475,0.2085 -0.54043,0.50874 -0.72391,0.66762 -0.18348,0.15846 -0.55169,0.45202 -0.81773,0.65176 -0.26646,0.19975 -0.69805,0.49748 -0.9591,0.66179 -0.26145,0.16471 -1.2443,0.71932 -2.1847,1.2331 -1.4854,0.8115 -1.738,0.96368 -1.9249,1.1596 -0.14052,0.1472 -0.24644,0.30942 -0.30565,0.46746 -0.0738,0.19599 -0.088,0.30941 -0.0763,0.59631 0.0113,0.27147 0.0396,0.40824 0.12176,0.58422 0.0588,0.12635 0.19057,0.31108 0.29273,0.41033 0.12427,0.12093 0.54794,0.37905 1.289,0.7848 0.60715,0.33234 1.3948,0.76477 1.7501,0.96037 0.3557,0.19599 0.93742,0.54836 1.2927,0.78353 0.3557,0.23477 0.83775,0.58047 1.0721,0.7677 0.23393,0.18723 0.628,0.52458 0.8757,0.74976 0.24728,0.22518 0.61049,0.58589 0.80648,0.80145 0.19599,0.21559 0.48955,0.55128 0.65218,0.74643 0.16263,0.19474 0.44995,0.57004 0.63885,0.834 0.18848,0.26355 0.49832,0.74226 0.68805,1.0634 0.18974,0.32109 0.68721,1.2122 1.1059,1.9808 0.41825,0.76815 0.81735,1.4766 0.88695,1.5737 0.0692,0.0972 0.22143,0.24145 0.33819,0.32068 0.11676,0.0792 0.32358,0.17555 0.45953,0.21392 0.16805,0.0479 0.33193,0.0634 0.51291,0.0487 0.18097,-0.0142 0.35069,-0.063 0.53209,-0.15221 0.16513,-0.0813 0.33402,-0.20808 0.44577,-0.33402 0.10383,-0.11676 0.41826,-0.64301 0.74101,-1.2393 0.30858,-0.57003 0.73809,-1.3552 0.9549,-1.7452 0.21642,-0.3899 0.53168,-0.9207 0.70014,-1.1797 0.16847,-0.25854 0.45078,-0.66136 0.62759,-0.8949 0.17681,-0.2331 0.48414,-0.61257 0.68346,-0.84277 0.19933,-0.23018 0.57546,-0.6255 0.83611,-0.87863 0.26103,-0.25312 0.60756,-0.5742 0.77062,-0.71348 0.16304,-0.13928 0.48622,-0.39699 0.71765,-0.57254 0.23186,-0.17514 0.63343,-0.45662 0.89198,-0.6255 0.25895,-0.16847 0.84607,-0.51375 1.3048,-0.7677 0.4587,-0.25354 1.2468,-0.68597 1.7514,-0.96038 0.50457,-0.27438 1.0058,-0.57712 1.1138,-0.67261 0.12342,-0.10884 0.24727,-0.27689 0.3336,-0.45203 l 0.13719,-0.27856 v -0.37613 c 0,-0.33193 -0.0146,-0.40575 -0.1226,-0.62634 -0.0676,-0.13761 -0.211,-0.33485 -0.31859,-0.43785 -0.13678,-0.13093 -0.56462,-0.38823 -1.4199,-0.8532 -0.67387,-0.36612 -1.459,-0.7956 -1.746,-0.95407 -0.28648,-0.15888 -0.81188,-0.48122 -1.1676,-0.71683 -0.35528,-0.2356 -0.84653,-0.58922 -1.0909,-0.78607 -0.24435,-0.19725 -0.63842,-0.53751 -0.8757,-0.75645 -0.23726,-0.21893 -0.60673,-0.58965 -0.82065,-0.82403 -0.21434,-0.23435 -0.53084,-0.60089 -0.70306,-0.81397 -0.1718,-0.21351 -0.4537,-0.58881 -0.6255,-0.834 -0.17222,-0.24561 -0.42951,-0.64344 -0.57254,-0.88403 -0.14262,-0.24103 -0.6426,-1.1409 -1.1109,-2.0003 -0.59715,-1.0954 -0.9036,-1.6155 -1.0254,-1.7385 -0.0955,-0.0967 -0.26521,-0.22226 -0.37697,-0.27897 -0.11217,-0.0567 -0.314,-0.12344 -0.44911,-0.14846 -0.13552,-0.0251 -0.26604,-0.0434 -0.29023,-0.0409 z m 0.0463,4.6662 c 0.005,0 0.14803,0.24811 0.31984,0.55211 0.1718,0.30398 0.45578,0.77684 0.63133,1.0513 0.17514,0.27397 0.50291,0.74309 0.72809,1.0425 0.22518,0.29899 0.55336,0.71265 0.72933,0.91905 0.17556,0.20641 0.58588,0.6451 0.91155,0.97537 0.32568,0.32985 0.82147,0.79688 1.1021,1.0375 0.28022,0.24103 0.68388,0.56963 0.89655,0.73017 0.21267,0.16096 0.6401,0.45995 0.9495,0.66512 0.30983,0.20474 0.83025,0.52374 1.1572,0.70848 0.32692,0.18515 0.59422,0.34778 0.59422,0.36153 -4.2e-4,0.0142 -0.11884,0.0867 -0.26354,0.16139 -0.1447,0.0751 -0.51542,0.28773 -0.82357,0.47287 -0.30775,0.18515 -0.77566,0.48831 -1.0396,0.67346 -0.26354,0.18556 -0.70223,0.51541 -0.97455,0.73308 -0.2723,0.21768 -0.7039,0.58798 -0.9591,0.82276 -0.2552,0.23476 -0.59673,0.56461 -0.75855,0.7335 -0.16221,0.16846 -0.39865,0.42159 -0.52542,0.56253 -0.12676,0.14094 -0.40866,0.47871 -0.62633,0.7506 -0.21767,0.27189 -0.5471,0.71015 -0.73267,0.97409 -0.18514,0.26397 -0.48831,0.73184 -0.67346,1.0396 -0.18514,0.30816 -0.39781,0.67888 -0.47287,0.82358 -0.0746,0.14469 -0.1472,0.26312 -0.16138,0.26354 -0.0137,0 -0.17639,-0.2673 -0.36154,-0.59423 -0.18515,-0.32692 -0.48914,-0.82695 -0.67596,-1.1113 -0.1864,-0.2844 -0.48205,-0.70682 -0.65636,-0.93825 -0.1743,-0.23186 -0.45953,-0.58964 -0.63342,-0.7956 -0.17389,-0.20558 -0.49331,-0.56212 -0.71057,-0.79185 -0.21684,-0.22977 -0.60131,-0.61258 -0.85485,-0.85065 -0.25312,-0.23811 -0.70014,-0.62509 -0.99285,-0.86025 -0.29273,-0.23519 -0.73851,-0.57254 -0.99038,-0.74935 -0.25228,-0.17723 -0.74726,-0.49373 -1.1005,-0.70348 -0.35361,-0.21017 -0.74059,-0.43493 -0.86025,-0.49998 l -0.21809,-0.1176 0.61757,-0.35278 c 0.33986,-0.19391 0.83483,-0.49498 1.1005,-0.66929 0.2652,-0.17389 0.69847,-0.47829 0.96202,-0.67554 0.26396,-0.19765 0.67679,-0.52708 0.9174,-0.73224 0.24103,-0.20476 0.71098,-0.64594 1.045,-0.9804 0.33359,-0.33402 0.76687,-0.79523 0.9624,-1.0246 0.19515,-0.22935 0.51207,-0.62341 0.70389,-0.8757 0.19182,-0.25228 0.50916,-0.70348 0.70557,-1.0029 0.19641,-0.29941 0.50707,-0.81022 0.69055,-1.1359 0.18348,-0.32526 0.33694,-0.59173 0.34111,-0.59214 z m -70.418,7.0944 c -0.12635,0.003 -0.38406,0.0205 -0.57337,0.0388 -0.18932,0.0184 -0.49874,0.0647 -0.68806,0.10341 -0.18931,0.0384 -0.5129,0.1251 -0.71932,0.19224 -0.20642,0.0671 -0.58547,0.22268 -0.84278,0.34611 -0.25687,0.12343 -0.66845,0.36154 -0.91447,0.52875 -0.26062,0.17765 -0.63426,0.48831 -0.89363,0.74352 -0.24519,0.24144 -0.56003,0.59464 -0.69972,0.7848 -0.1397,0.19057 -0.35571,0.52834 -0.48039,0.7506 -0.12468,0.22268 -0.29607,0.58088 -0.38072,0.7956 -0.0851,0.21517 -0.20725,0.60048 -0.27188,0.85612 -0.0646,0.25604 -0.14012,0.66178 -0.16805,0.90195 -0.0317,0.2723 -0.0417,0.6722 -0.0259,1.0621 0.0142,0.36362 0.06,0.79979 0.10926,1.0425 0.0467,0.22936 0.14344,0.59506 0.21517,0.81316 0.0717,0.21767 0.21309,0.57379 0.31442,0.79102 0.10133,0.21684 0.32317,0.6034 0.49289,0.85815 0.17014,0.2552 0.49206,0.65636 0.71557,0.89198 0.22393,0.23519 0.55795,0.54418 0.74268,0.6868 0.18515,0.14261 0.45828,0.33527 0.60757,0.42826 0.1497,0.093 0.39032,0.22893 0.53543,0.3019 0.14512,0.0734 0.4074,0.18933 0.58296,0.25771 0.17598,0.0684 0.49624,0.17055 0.71141,0.22727 0.21517,0.0563 0.61882,0.13302 0.89655,0.16971 0.3582,0.0476 0.67471,0.0605 1.0888,0.0446 0.34111,-0.0134 0.7656,-0.0596 1.0216,-0.11175 0.24103,-0.0488 0.64385,-0.15722 0.89573,-0.24062 0.25145,-0.0834 0.63259,-0.2406 0.8469,-0.34986 0.21433,-0.10925 0.54418,-0.30107 0.73309,-0.42659 0.18848,-0.12593 0.50665,-0.37154 0.70639,-0.54585 0.19933,-0.17473 0.48747,-0.46204 0.63927,-0.63884 0.1522,-0.17681 0.38864,-0.4904 0.52542,-0.69681 0.13677,-0.20642 0.33276,-0.5421 0.43576,-0.74601 0.10258,-0.20433 0.25896,-0.58881 0.34736,-0.85485 0.0884,-0.26647 0.1889,-0.62509 0.22352,-0.79688 0.0346,-0.17222 0.0851,-0.51916 0.11217,-0.77145 0.0296,-0.27564 0.038,-0.64843 0.0208,-0.9345 -0.0154,-0.26145 -0.0559,-0.63675 -0.0897,-0.834 -0.0338,-0.19682 -0.0997,-0.49831 -0.14637,-0.67011 -0.0463,-0.17139 -0.15804,-0.49998 -0.24811,-0.73017 -0.0901,-0.23019 -0.2598,-0.58713 -0.37739,-0.79312 -0.11718,-0.20642 -0.31817,-0.51583 -0.44619,-0.68763 -0.12802,-0.17222 -0.34653,-0.44077 -0.4858,-0.59714 -0.13887,-0.15638 -0.412,-0.41742 -0.60716,-0.58047 -0.19474,-0.16305 -0.50916,-0.3974 -0.69805,-0.52083 -0.18891,-0.12343 -0.53627,-0.31567 -0.77145,-0.4266 -0.23519,-0.11133 -0.57087,-0.24936 -0.74518,-0.3069 -0.17472,-0.0575 -0.49457,-0.14304 -0.71141,-0.19016 -0.21642,-0.0467 -0.59881,-0.10466 -0.84982,-0.12844 -0.25103,-0.0238 -0.55961,-0.0409 -0.68597,-0.0375 z m 0.2502,3.02 c 0.21767,0.01 0.55211,0.0559 0.74309,0.10174 0.19057,0.0459 0.48372,0.14679 0.65135,0.22435 0.16764,0.0771 0.42409,0.22143 0.57046,0.32026 0.14637,0.0988 0.38948,0.30274 0.54002,0.45328 0.15054,0.15053 0.34986,0.38656 0.44244,0.52417 0.0926,0.13761 0.21558,0.34402 0.27271,0.4587 0.0575,0.11467 0.1447,0.32609 0.19349,0.46954 0.0492,0.14345 0.11968,0.43451 0.15679,0.64635 0.0467,0.26771 0.06,0.5079 0.0434,0.78727 -0.0129,0.22144 -0.0634,0.55921 -0.11217,0.7506 -0.0488,0.19182 -0.1618,0.50542 -0.25145,0.69724 -0.0897,0.19182 -0.25813,0.47662 -0.37405,0.63342 -0.11634,0.15637 -0.32777,0.39239 -0.46996,0.52416 -0.1422,0.13178 -0.38197,0.31943 -0.53251,0.417 -0.15095,0.0976 -0.3853,0.22644 -0.52041,0.28607 -0.13553,0.0601 -0.38739,0.14636 -0.56004,0.19265 -0.17263,0.0459 -0.5104,0.0942 -0.75142,0.10717 -0.3115,0.0166 -0.55002,0.004 -0.82733,-0.0446 -0.21433,-0.0375 -0.52917,-0.12218 -0.69972,-0.18848 -0.17097,-0.0663 -0.44494,-0.20016 -0.60882,-0.29774 -0.16389,-0.0976 -0.45579,-0.32859 -0.64844,-0.51375 -0.19307,-0.18514 -0.44244,-0.47621 -0.55461,-0.64676 -0.11176,-0.17097 -0.26271,-0.45244 -0.33526,-0.62634 -0.0722,-0.17346 -0.16806,-0.49414 -0.21351,-0.71223 -0.0655,-0.31734 -0.078,-0.5004 -0.0613,-0.91785 0.0134,-0.32985 0.0509,-0.62841 0.10259,-0.81315 0.0446,-0.16054 0.12885,-0.40741 0.18723,-0.54877 0.058,-0.14136 0.19433,-0.39365 0.30233,-0.56087 0.10841,-0.16721 0.31191,-0.4245 0.45286,-0.5717 0.14095,-0.14678 0.36863,-0.34736 0.50623,-0.44536 0.13761,-0.098 0.38239,-0.24394 0.54377,-0.32484 0.1618,-0.0809 0.42534,-0.18723 0.58631,-0.23602 0.16096,-0.0488 0.41366,-0.1055 0.56128,-0.12635 0.14762,-0.0208 0.44702,-0.0292 0.66469,-0.0192 z"
         id="icon" /></g></g></svg>