<svg id="visual" viewBox="0 0 900 600" width="900" height="600" xmlns="http://www.w3.org/2000/svg" xmlns:xlink="http://www.w3.org/1999/xlink" version="1.1"><rect x="0" y="0" width="900" height="600" fill="#ffffff"></rect><path d="M0 306L30 310.8C60 315.7 120 325.3 180 323.5C240 321.7 300 308.3 360 287.5C420 266.7 480 238.3 540 240C600 241.7 660 273.3 720 291.8C780 310.3 840 315.7 870 318.3L900 321L900 601L870 601C840 601 780 601 720 601C660 601 600 601 540 601C480 601 420 601 360 601C300 601 240 601 180 601C120 601 60 601 30 601L0 601Z" fill="#996ac9"></path><path d="M0 260L30 268C60 276 120 292 180 293.2C240 294.3 300 280.7 360 289.5C420 298.3 480 329.7 540 350.2C600 370.7 660 380.3 720 366C780 351.7 840 313.3 870 294.2L900 275L900 601L870 601C840 601 780 601 720 601C660 601 600 601 540 601C480 601 420 601 360 601C300 601 240 601 180 601C120 601 60 601 30 601L0 601Z" fill="#8c5dbc"></path><path d="M0 395L30 382.3C60 369.7 120 344.3 180 337.2C240 330 300 341 360 347.5C420 354 480 356 540 354.5C600 353 660 348 720 348.5C780 349 840 355 870 358L900 361L900 601L870 601C840 601 780 601 720 601C660 601 600 601 540 601C480 601 420 601 360 601C300 601 240 601 180 601C120 601 60 601 30 601L0 601Z" fill="#7f50af"></path><path d="M0 468L30 462.5C60 457 120 446 180 444C240 442 300 449 360 450.5C420 452 480 448 540 440C600 432 660 420 720 423.7C780 427.3 840 446.7 870 456.3L900 466L900 601L870 601C840 601 780 601 720 601C660 601 600 601 540 601C480 601 420 601 360 601C300 601 240 601 180 601C120 601 60 601 30 601L0 601Z" fill="#7344a2"></path><path d="M0 441L30 441.3C60 441.7 120 442.3 180 445.5C240 448.7 300 454.3 360 453.5C420 452.7 480 445.3 540 448C600 450.7 660 463.3 720 477.2C780 491 840 506 870 513.5L900 521L900 601L870 601C840 601 780 601 720 601C660 601 600 601 540 601C480 601 420 601 360 601C300 601 240 601 180 601C120 601 60 601 30 601L0 601Z" fill="#663795"></path><path d="M0 557L30 555.3C60 553.7 120 550.3 180 541.8C240 533.3 300 519.7 360 519C420 518.3 480 530.7 540 531C600 531.3 660 519.7 720 515C780 510.3 840 512.7 870 513.8L900 515L900 601L870 601C840 601 780 601 720 601C660 601 600 601 540 601C480 601 420 601 360 601C300 601 240 601 180 601C120 601 60 601 30 601L0 601Z" fill="#592b88"></path></svg>