<svg id="visual" viewBox="0 0 900 675" width="900" height="675" xmlns="http://www.w3.org/2000/svg" xmlns:xlink="http://www.w3.org/1999/xlink" version="1.1"><path d="M0 215L15 209.5C30 204 60 193 90 192.8C120 192.7 150 203.3 180 208.8C210 214.3 240 214.7 270 208.2C300 201.7 330 188.3 360 190C390 191.7 420 208.3 450 209.8C480 211.3 510 197.7 540 198.7C570 199.7 600 215.3 630 213.7C660 212 690 193 720 182.5C750 172 780 170 810 177.8C840 185.7 870 203.3 885 212.2L900 221L900 0L885 0C870 0 840 0 810 0C780 0 750 0 720 0C690 0 660 0 630 0C600 0 570 0 540 0C510 0 480 0 450 0C420 0 390 0 360 0C330 0 300 0 270 0C240 0 210 0 180 0C150 0 120 0 90 0C60 0 30 0 15 0L0 0Z" fill="#9062bf"></path><path d="M0 117L15 121.2C30 125.3 60 133.7 90 139.8C120 146 150 150 180 153.8C210 157.7 240 161.3 270 156.3C300 151.3 330 137.7 360 136.8C390 136 420 148 450 148.3C480 148.7 510 137.3 540 129.2C570 121 600 116 630 112.2C660 108.3 690 105.7 720 104.7C750 103.7 780 104.3 810 108.2C840 112 870 119 885 122.5L900 126L900 0L885 0C870 0 840 0 810 0C780 0 750 0 720 0C690 0 660 0 630 0C600 0 570 0 540 0C510 0 480 0 450 0C420 0 390 0 360 0C330 0 300 0 270 0C240 0 210 0 180 0C150 0 120 0 90 0C60 0 30 0 15 0L0 0Z" fill="#7446a3"></path><path d="M0 43L15 50.2C30 57.3 60 71.7 90 80.3C120 89 150 92 180 90C210 88 240 81 270 76.7C300 72.3 330 70.7 360 66.2C390 61.7 420 54.3 450 57C480 59.7 510 72.3 540 73.3C570 74.3 600 63.7 630 60C660 56.3 690 59.7 720 58.2C750 56.7 780 50.3 810 55.7C840 61 870 78 885 86.5L900 95L900 0L885 0C870 0 840 0 810 0C780 0 750 0 720 0C690 0 660 0 630 0C600 0 570 0 540 0C510 0 480 0 450 0C420 0 390 0 360 0C330 0 300 0 270 0C240 0 210 0 180 0C150 0 120 0 90 0C60 0 30 0 15 0L0 0Z" fill="#592b88"></path></svg>