<svg id="visual" viewBox="0 0 540 960" width="540" height="960" xmlns="http://www.w3.org/2000/svg" xmlns:xlink="http://www.w3.org/1999/xlink" version="1.1"><path d="M0 107L30 100.5C60 94 120 81 180 76.2C240 71.3 300 74.7 360 73.2C420 71.7 480 65.3 510 62.2L540 59L540 0L510 0C480 0 420 0 360 0C300 0 240 0 180 0C120 0 60 0 30 0L0 0Z" fill="#592b88"></path><path d="M0 241L30 229.8C60 218.7 120 196.3 180 188.3C240 180.3 300 186.7 360 185C420 183.3 480 173.7 510 168.8L540 164L540 57L510 60.2C480 63.3 420 69.7 360 71.2C300 72.7 240 69.3 180 74.2C120 79 60 92 30 98.5L0 105Z" fill="#7b539f"></path><path d="M0 462L30 471.5C60 481 120 500 180 490.3C240 480.7 300 442.3 360 436C420 429.7 480 455.3 510 468.2L540 481L540 162L510 166.8C480 171.7 420 181.3 360 183C300 184.7 240 178.3 180 186.3C120 194.3 60 216.7 30 227.8L0 239Z" fill="#9d7cb7"></path><path d="M0 635L30 643C60 651 120 667 180 679.7C240 692.3 300 701.7 360 706.3C420 711 480 711 510 711L540 711L540 479L510 466.2C480 453.3 420 427.7 360 434C300 440.3 240 478.7 180 488.3C120 498 60 479 30 469.5L0 460Z" fill="#bda6cf"></path><path d="M0 779L30 782.2C60 785.3 120 791.7 180 801.2C240 810.7 300 823.3 360 823.3C420 823.3 480 810.7 510 804.3L540 798L540 709L510 709C480 709 420 709 360 704.3C300 699.7 240 690.3 180 677.7C120 665 60 649 30 641L0 633Z" fill="#ded2e7"></path><path d="M0 961L30 961C60 961 120 961 180 961C240 961 300 961 360 961C420 961 480 961 510 961L540 961L540 796L510 802.3C480 808.7 420 821.3 360 821.3C300 821.3 240 808.7 180 799.2C120 789.7 60 783.3 30 780.2L0 777Z" fill="#ffffff"></path></svg>